<svg width="512" height="436" viewBox="0 0 512 436" fill="none" xmlns="http://www.w3.org/2000/svg">
<path d="M191.65 347.623C156.55 342.023 122.55 331.823 88.5504 322.823C60.1504 315.223 32.6504 305.623 4.25044 298.123C0.550437 297.223 -0.149563 292.423 2.85044 289.423C10.2504 281.223 17.7504 273.123 25.1504 265.023C42.7504 245.923 60.8504 227.423 79.0504 208.923C86.3504 201.523 93.5504 193.923 100.95 186.623C104.75 182.823 110.15 181.223 114.75 182.423L304.55 234.523C308.25 235.423 308.95 240.223 305.95 243.223L205.35 343.323C201.65 347.223 191.65 347.623 191.65 347.623Z" fill="#FFFCED" stroke="#1D1D1D" stroke-miterlimit="10" stroke-linecap="round" stroke-linejoin="round"/>
<path d="M11.1504 281.223L214.15 334.723" stroke="#1D1D1D" stroke-miterlimit="10" stroke-linecap="round" stroke-linejoin="round"/>
<path d="M16.4506 295.623C20.1506 295.423 24.6506 292.823 22.6506 289.623C21.0506 287.223 16.8506 287.523 14.4506 289.123C13.6506 289.623 12.8506 290.323 12.5506 291.223C11.9506 292.423 12.1506 293.623 12.8506 294.423C13.5506 295.323 14.8506 295.723 16.4506 295.623Z" fill="#FFD873" stroke="#1D1D1D" stroke-miterlimit="10" stroke-linecap="round" stroke-linejoin="round"/>
<path d="M32.7504 300.223C35.6504 300.223 41.7504 297.023 38.6504 293.523C36.9504 291.523 32.9504 291.923 30.7504 293.423C29.9504 293.923 29.1504 294.623 28.8504 295.523C28.2504 296.723 28.4504 297.923 29.1504 298.723C30.0504 299.723 31.3504 300.123 32.7504 300.223Z" fill="#FFD873" stroke="#1D1D1D" stroke-miterlimit="10" stroke-linecap="round" stroke-linejoin="round"/>
<path d="M49.2509 304.423C52.4509 304.423 56.4509 302.623 55.9509 299.623C55.3509 296.023 50.0509 296.123 47.2509 297.923C45.1509 299.223 44.5509 301.823 46.1509 303.523C46.7509 304.023 47.9509 304.423 49.2509 304.423Z" fill="#FFD873" stroke="#1D1D1D" stroke-miterlimit="10" stroke-linecap="round" stroke-linejoin="round"/>
<path d="M74.9507 248.423L64.6507 245.723C63.5507 245.423 63.2507 244.023 64.2507 243.023L64.4507 242.823C65.5507 241.623 67.1507 241.223 68.4507 241.523L78.7507 244.223C79.8507 244.523 80.1507 245.923 79.1507 246.923L78.9507 247.123C77.8507 248.323 76.2507 248.723 74.9507 248.423Z" fill="#FF7272" stroke="#1D1D1D" stroke-miterlimit="10" stroke-linecap="round" stroke-linejoin="round"/>
<path d="M96.95 249.223L92.75 253.223L81.75 250.323L85.85 246.223L96.95 249.223Z" fill="#6CCA9D" stroke="#1D1D1D" stroke-miterlimit="10" stroke-linecap="round" stroke-linejoin="round"/>
<path d="M88.7506 257.923L57.8506 249.823" stroke="#1D1D1D" stroke-miterlimit="10" stroke-linecap="round" stroke-linejoin="round"/>
<path d="M64.9504 283.123L32.6504 274.723L51.8504 255.523L84.1504 263.923L64.9504 283.123Z" fill="#A09CE0" stroke="#1D1D1D" stroke-miterlimit="10" stroke-linecap="round" stroke-linejoin="round"/>
<path d="M122.751 200.823L112.451 198.123C111.351 197.823 111.05 196.423 112.05 195.423L112.251 195.223C113.351 194.023 114.951 193.623 116.251 193.923L126.55 196.623C127.65 196.923 127.951 198.323 126.951 199.323L126.751 199.523C125.651 200.723 124.051 201.223 122.751 200.823Z" fill="#FF7272" stroke="#1D1D1D" stroke-miterlimit="10" stroke-linecap="round" stroke-linejoin="round"/>
<path d="M144.65 201.623L140.65 205.723L129.55 202.723L133.65 198.723L144.65 201.623Z" fill="#6CCA9D" stroke="#1D1D1D" stroke-miterlimit="10" stroke-linecap="round" stroke-linejoin="round"/>
<path d="M136.55 210.423L105.65 202.323" stroke="#1D1D1D" stroke-miterlimit="10" stroke-linecap="round" stroke-linejoin="round"/>
<path d="M112.75 235.523L80.4502 227.123L99.6502 208.023L132.05 216.423L112.75 235.523Z" fill="#A09CE0" stroke="#1D1D1D" stroke-miterlimit="10" stroke-linecap="round" stroke-linejoin="round"/>
<path d="M180.15 275.923L169.85 273.223C168.75 272.923 168.45 271.523 169.45 270.523L169.65 270.323C170.75 269.123 172.35 268.723 173.65 269.023L183.95 271.723C185.05 272.023 185.35 273.423 184.35 274.423L184.15 274.623C183.05 275.823 181.55 276.323 180.15 275.923Z" fill="#FF7272" stroke="#1D1D1D" stroke-miterlimit="10" stroke-linecap="round" stroke-linejoin="round"/>
<path d="M202.15 276.723L198.05 280.823L187.05 277.823L191.05 273.823L202.15 276.723Z" fill="#6CCA9D" stroke="#1D1D1D" stroke-miterlimit="10" stroke-linecap="round" stroke-linejoin="round"/>
<path d="M194.05 285.523L163.05 277.423" stroke="#1D1D1D" stroke-miterlimit="10" stroke-linecap="round" stroke-linejoin="round"/>
<path d="M170.15 310.723L137.95 302.323L157.15 283.123L189.45 291.523L170.15 310.723Z" fill="#A09CE0" stroke="#1D1D1D" stroke-miterlimit="10" stroke-linecap="round" stroke-linejoin="round"/>
<path d="M227.951 228.423L217.651 225.723C216.551 225.423 216.251 224.023 217.251 223.023L217.451 222.823C218.551 221.623 220.151 221.223 221.451 221.523L231.751 224.223C232.851 224.523 233.151 225.923 232.151 226.923L231.951 227.123C230.951 228.323 229.351 228.723 227.951 228.423Z" fill="#FF7272" stroke="#1D1D1D" stroke-miterlimit="10" stroke-linecap="round" stroke-linejoin="round"/>
<path d="M249.95 229.223L245.95 233.223L234.75 230.323L238.95 226.223L249.95 229.223Z" fill="#6CCA9D" stroke="#1D1D1D" stroke-miterlimit="10" stroke-linecap="round" stroke-linejoin="round"/>
<path d="M241.75 237.923L210.95 229.823" stroke="#1D1D1D" stroke-miterlimit="10" stroke-linecap="round" stroke-linejoin="round"/>
<path d="M217.95 263.123L185.65 254.723L204.95 235.523L237.25 243.923L217.95 263.123Z" fill="#A09CE0" stroke="#1D1D1D" stroke-miterlimit="10" stroke-linecap="round" stroke-linejoin="round"/>
<path d="M127.651 262.223L117.351 259.523C116.251 259.223 115.951 257.823 116.951 256.823L117.151 256.623C118.251 255.423 119.851 255.023 121.151 255.323L131.451 258.023C132.551 258.323 132.851 259.723 131.851 260.723L131.651 260.923C130.551 262.023 128.951 262.523 127.651 262.223Z" fill="#FF7272" stroke="#1D1D1D" stroke-miterlimit="10" stroke-linecap="round" stroke-linejoin="round"/>
<path d="M149.65 263.023L145.55 267.023L134.45 264.023L138.55 260.023L149.65 263.023Z" fill="#6CCA9D" stroke="#1D1D1D" stroke-miterlimit="10" stroke-linecap="round" stroke-linejoin="round"/>
<path d="M141.451 271.823L110.551 263.623" stroke="#1D1D1D" stroke-miterlimit="10" stroke-linecap="round" stroke-linejoin="round"/>
<path d="M117.651 296.923L85.3506 288.523L104.651 269.323L136.951 277.823L117.651 296.923Z" fill="#A09CE0" stroke="#1D1D1D" stroke-miterlimit="10" stroke-linecap="round" stroke-linejoin="round"/>
<path d="M175.451 214.623L165.151 211.923C164.051 211.623 163.751 210.223 164.751 209.223L164.951 209.023C166.051 207.823 167.651 207.423 168.951 207.723L179.251 210.423C180.351 210.723 180.651 212.123 179.651 213.123L179.451 213.323C178.351 214.523 176.751 215.023 175.451 214.623Z" fill="#FF7272" stroke="#1D1D1D" stroke-miterlimit="10" stroke-linecap="round" stroke-linejoin="round"/>
<path d="M197.45 215.423L193.35 219.423L182.25 216.523L186.35 212.423L197.45 215.423Z" fill="#6CCA9D" stroke="#1D1D1D" stroke-miterlimit="10" stroke-linecap="round" stroke-linejoin="round"/>
<path d="M189.251 224.223L158.351 216.023" stroke="#1D1D1D" stroke-miterlimit="10" stroke-linecap="round" stroke-linejoin="round"/>
<path d="M165.45 249.323L133.15 240.923L152.45 221.823L184.75 230.223L165.45 249.323Z" fill="#A09CE0" stroke="#1D1D1D" stroke-miterlimit="10" stroke-linecap="round" stroke-linejoin="round"/>
<path d="M279.151 114.623L249.051 241.423L353.151 269.523L397.251 115.623L279.151 114.623Z" fill="#A09CE0" stroke="#1D1D1D" stroke-miterlimit="10" stroke-linecap="round" stroke-linejoin="round"/>
<path d="M359.051 16.5231C358.451 13.7231 358.751 10.2231 360.651 7.92312C366.251 1.02312 374.551 24.7231 374.951 27.8231" fill="#1D1D1D"/>
<path d="M359.051 16.5231C358.451 13.7231 358.751 10.2231 360.651 7.92312C366.251 1.02312 374.551 24.7231 374.951 27.8231" stroke="#1D1D1D" stroke-miterlimit="10" stroke-linecap="round" stroke-linejoin="round"/>
<path d="M490.55 108.323L475.55 103.623L461.95 120.023C462.05 134.323 482.25 136.423 482.25 136.423L499.05 110.023L490.55 108.323Z" fill="#FFD873" stroke="#1D1D1D" stroke-miterlimit="10" stroke-linecap="round" stroke-linejoin="round"/>
<path d="M251.951 213.823C233.651 207.123 234.951 188.323 239.651 170.523C244.851 150.723 248.051 140.223 252.351 125.423C257.651 107.223 263.451 96.0234 274.551 91.0234C290.751 83.7234 313.351 86.0234 325.651 86.4234C332.851 86.6234 355.551 87.7234 355.551 87.7234C380.151 89.6234 387.351 90.7234 395.351 98.5234C409.451 112.323 420.051 131.723 435.951 149.223L463.651 118.123C463.651 118.123 467.951 132.323 483.251 134.923C459.351 174.723 455.951 187.223 442.351 189.023C434.751 190.023 426.751 188.123 416.051 178.423C408.251 171.323 398.451 162.223 391.351 154.523" fill="#A09CE0"/>
<path d="M251.951 213.823C233.651 207.123 234.951 188.323 239.651 170.523C244.851 150.723 248.051 140.223 252.351 125.423C257.651 107.223 263.451 96.0234 274.551 91.0234C290.751 83.7234 313.351 86.0234 325.651 86.4234C332.851 86.6234 355.551 87.7234 355.551 87.7234C380.151 89.6234 387.351 90.7234 395.351 98.5234C409.451 112.323 420.051 131.723 435.951 149.223L463.651 118.123C463.651 118.123 467.951 132.323 483.251 134.923C459.351 174.723 455.951 187.223 442.351 189.023C434.751 190.023 426.751 188.123 416.051 178.423C408.251 171.323 398.451 162.223 391.351 154.523" stroke="#1D1D1D" stroke-miterlimit="10" stroke-linecap="round" stroke-linejoin="round"/>
<path d="M356.45 87.6231L363.85 88.3232C363.85 88.3232 359.95 106.523 338.95 104.923C322.35 103.623 315.75 86.0231 315.75 86.0231L325.65 86.4231L331.25 66.3232L363.35 64.7231L356.45 87.6231Z" fill="#FFD873" stroke="#1D1D1D" stroke-miterlimit="10" stroke-linecap="round" stroke-linejoin="round"/>
<path d="M380.45 60.9232C383.15 52.5232 373.85 48.2232 370.75 50.5232C372.15 45.4232 375.95 21.7232 354.95 15.7232C341.35 11.8232 332.85 13.3232 327.25 24.6232C323.05 33.0232 319.75 47.5232 320.75 62.3232C321.45 72.7232 325.051 81.2232 331.551 84.4232C341.051 89.0232 357.15 81.0232 363.25 64.8232C363.35 64.6232 365.651 69.2232 372.051 68.4232C374.951 67.9232 379.05 65.3232 380.45 60.9232Z" fill="#FFD873" stroke="#1D1D1D" stroke-miterlimit="10" stroke-linecap="round" stroke-linejoin="round"/>
<path d="M370.151 50.423C373.351 48.123 383.151 52.523 380.451 60.923C379.051 65.323 374.951 68.023 372.051 68.423C365.651 69.323 363.251 64.723 363.251 64.823L361.451 71.123" fill="#FFD873"/>
<path d="M370.151 50.423C373.351 48.123 383.151 52.523 380.451 60.923C379.051 65.323 374.951 68.023 372.051 68.423C365.651 69.323 363.251 64.723 363.251 64.823L361.451 71.123" stroke="#1D1D1D" stroke-miterlimit="10" stroke-linecap="round" stroke-linejoin="round"/>
<path d="M373.051 49.3232C377.251 40.0232 376.651 27.8232 372.151 20.9232C365.351 10.4232 347.951 -1.67681 340.851 1.52319C337.051 3.22319 341.451 9.62319 342.551 10.5232C338.851 7.32319 326.951 -1.47681 320.451 2.72319C317.651 4.52319 320.451 11.3232 325.551 16.5232C320.251 10.7232 311.351 5.22319 309.051 8.92319C305.851 14.1232 313.451 24.5232 318.551 26.1232C316.951 25.5232 309.851 26.1232 309.751 29.1232C309.551 35.8232 322.551 35.9232 322.551 35.9232C324.351 29.1232 326.751 28.8232 328.151 29.0232C331.151 29.3232 332.751 33.3232 338.451 34.1232C342.051 34.6232 348.851 32.4232 350.651 32.1232C359.751 30.6232 363.351 37.2232 363.251 44.5232C363.051 53.8232 359.651 58.7232 361.951 59.4232C363.851 60.9232 365.951 50.2232 373.051 49.3232Z" fill="#1D1D1D" stroke="#1D1D1D" stroke-miterlimit="10" stroke-linecap="round" stroke-linejoin="round"/>
<path d="M335.851 54.623C334.951 57.423 332.751 62.423 329.751 65.623" stroke="#1D1D1D" stroke-miterlimit="10" stroke-linecap="round" stroke-linejoin="round"/>
<path d="M329.351 72.6233C333.151 75.4233 339.751 74.1233 342.051 69.9233" stroke="#1D1D1D" stroke-miterlimit="10" stroke-linecap="round" stroke-linejoin="round"/>
<path d="M327.351 54.6231C329.551 54.6231 330.351 51.7231 329.851 49.9231C329.451 48.5231 327.951 47.6231 326.551 48.2231C325.351 48.8231 324.751 50.1231 324.751 51.4231C324.651 52.9231 325.551 54.6231 327.351 54.6231Z" fill="#1D1D1D"/>
<path d="M345.351 58.9234C347.551 58.9234 348.351 56.0234 347.851 54.2234C347.451 52.8234 345.951 51.9234 344.551 52.5234C343.351 53.1234 342.751 54.4234 342.751 55.7234C342.651 57.3234 343.551 58.9234 345.351 58.9234Z" fill="#1D1D1D"/>
<path d="M323.451 43.0232C325.951 41.0232 329.351 41.6232 332.751 45.4232" stroke="#1D1D1D" stroke-miterlimit="10" stroke-linecap="round" stroke-linejoin="round"/>
<path d="M341.351 48.0234C346.651 45.8234 350.651 46.7234 353.851 51.3234" stroke="#1D1D1D" stroke-miterlimit="10" stroke-linecap="round" stroke-linejoin="round"/>
<path d="M371.05 65.4231C368.75 65.5231 366.65 63.5231 366.65 61.1231C366.65 58.3231 369.85 57.3231 372.25 58.0231C372.95 58.2231 373.65 58.7231 373.75 59.4231C373.85 60.3231 372.95 61.0231 372.05 61.0231C371.15 60.9231 370.45 60.3231 370.15 59.4231C368.95 56.7231 370.55 53.7231 373.65 53.6231C375.45 53.5231 377.25 54.8231 377.75 56.5231" stroke="#1D1D1D" stroke-miterlimit="10" stroke-linecap="round" stroke-linejoin="round"/>
<path d="M327.151 24.623C322.951 33.023 319.651 47.523 320.651 62.323C321.351 72.723 324.951 81.223 331.451 84.423C336.751 87.023 344.151 85.623 350.651 81.123" stroke="#1D1D1D" stroke-miterlimit="10" stroke-linecap="round" stroke-linejoin="round"/>
<path d="M302.551 130.123C304.851 128.623 310.451 128.323 316.651 137.923C322.751 147.523 325.45 154.423 323.75 156.723C321.45 159.823 310.051 161.823 301.951 152.123C294.751 143.723 298.551 132.623 302.551 130.123Z" fill="#1D1D1D" stroke="#1D1D1D" stroke-miterlimit="10" stroke-linecap="round" stroke-linejoin="round"/>
<path d="M337.951 116.723C334.051 111.323 303.251 118.023 303.251 118.023L299.851 131.323C299.851 131.323 296.351 150.723 307.551 156.423C311.751 154.823 319.651 149.823 324.651 144.323C335.251 132.923 341.951 122.123 337.951 116.723Z" fill="#FFD873" stroke="#1D1D1D" stroke-miterlimit="10" stroke-linecap="round" stroke-linejoin="round"/>
<path d="M357.051 145.523L317.151 134.323L328.951 109.523L368.851 120.823L357.051 145.523Z" fill="#FFFCED" stroke="#1D1D1D" stroke-miterlimit="10" stroke-linecap="round" stroke-linejoin="round"/>
<path d="M328.951 109.523L357.051 145.523" stroke="#1D1D1D" stroke-miterlimit="10" stroke-linecap="round" stroke-linejoin="round"/>
<path d="M368.851 120.823L317.151 134.323" stroke="#1D1D1D" stroke-miterlimit="10" stroke-linecap="round" stroke-linejoin="round"/>
<path d="M328.951 111.423C330 111.423 330.851 110.572 330.851 109.523C330.851 108.474 330 107.623 328.951 107.623C327.901 107.623 327.051 108.474 327.051 109.523C327.051 110.572 327.901 111.423 328.951 111.423Z" fill="#1D1D1D" stroke="#1D1D1D" stroke-miterlimit="10" stroke-linecap="round" stroke-linejoin="round"/>
<path d="M317.151 136.223C318.2 136.223 319.051 135.372 319.051 134.323C319.051 133.274 318.2 132.423 317.151 132.423C316.102 132.423 315.251 133.274 315.251 134.323C315.251 135.372 316.102 136.223 317.151 136.223Z" fill="#1D1D1D" stroke="#1D1D1D" stroke-miterlimit="10" stroke-linecap="round" stroke-linejoin="round"/>
<path d="M368.851 122.723C369.901 122.723 370.751 121.872 370.751 120.823C370.751 119.774 369.901 118.923 368.851 118.923C367.802 118.923 366.951 119.774 366.951 120.823C366.951 121.872 367.802 122.723 368.851 122.723Z" fill="#1D1D1D" stroke="#1D1D1D" stroke-miterlimit="10" stroke-linecap="round" stroke-linejoin="round"/>
<path d="M357.051 147.423C358.101 147.423 358.951 146.572 358.951 145.523C358.951 144.474 358.101 143.623 357.051 143.623C356.002 143.623 355.151 144.474 355.151 145.523C355.151 146.572 356.002 147.423 357.051 147.423Z" fill="#1D1D1D" stroke="#1D1D1D" stroke-miterlimit="10" stroke-linecap="round" stroke-linejoin="round"/>
<path d="M315.051 117.623C315.051 117.623 321.951 118.923 323.751 119.723C324.751 124.123 326.351 129.923 329.751 129.523C333.851 129.023 332.351 117.623 329.451 113.723C327.551 112.023 323.151 110.723 317.651 110.223C320.251 109.223 325.551 107.823 325.551 107.823C327.251 110.923 333.351 120.623 336.451 118.023C339.651 115.423 332.151 101.923 328.251 100.323C323.751 98.5233 311.151 102.223 307.951 105.623C305.551 108.223 301.651 122.723 299.751 131.223" fill="#FFD873"/>
<path d="M315.051 117.623C315.051 117.623 321.951 118.923 323.751 119.723C324.751 124.123 326.351 129.923 329.751 129.523C333.851 129.023 332.351 117.623 329.451 113.723C327.551 112.023 323.151 110.723 317.651 110.223C320.251 109.223 325.551 107.823 325.551 107.823C327.251 110.923 333.351 120.623 336.451 118.023C339.651 115.423 332.151 101.923 328.251 100.323C323.751 98.5233 311.151 102.223 307.951 105.623C305.551 108.223 301.651 122.723 299.751 131.223" stroke="#1D1D1D" stroke-miterlimit="10" stroke-linecap="round" stroke-linejoin="round"/>
<path d="M315.65 108.823C316.35 110.123 317.75 110.123 317.75 110.123" stroke="#1D1D1D" stroke-miterlimit="10" stroke-linecap="round" stroke-linejoin="round"/>
<path d="M312.15 113.323C312.15 113.323 322.35 113.023 325.35 117.623C327.75 121.223 324.45 130.523 320.25 129.823C316.05 129.123 319.65 122.923 319.65 122.923L314.25 122.623" fill="#FFD873"/>
<path d="M312.15 113.323C312.15 113.323 322.35 113.023 325.35 117.623C327.75 121.223 324.45 130.523 320.25 129.823C316.05 129.123 319.65 122.923 319.65 122.923L314.25 122.623" stroke="#1D1D1D" stroke-miterlimit="10" stroke-linecap="round" stroke-linejoin="round"/>
<path d="M309.451 118.523C309.451 118.523 318.851 116.323 320.351 121.023C321.951 125.923 316.751 132.323 312.151 128.923C307.551 125.523 315.251 124.423 315.251 124.423L309.551 125.723" fill="#FFD873"/>
<path d="M309.451 118.523C309.451 118.523 318.851 116.323 320.351 121.023C321.951 125.923 316.751 132.323 312.151 128.923C307.551 125.523 315.251 124.423 315.251 124.423L309.551 125.723" stroke="#1D1D1D" stroke-miterlimit="10" stroke-linecap="round" stroke-linejoin="round"/>
<path d="M314.051 129.823C314.651 132.423 315.051 136.223 313.851 140.523" stroke="#1D1D1D" stroke-miterlimit="10" stroke-linecap="round" stroke-linejoin="round"/>
<path d="M251.95 182.523C264.05 170.623 287.65 143.123 299.85 131.323C300.85 151.523 318.55 160.123 323.65 156.823C323.65 156.823 314.05 168.323 297.85 187.623C285.85 201.923 269.45 218.823 251.95 213.923" fill="#A09CE0"/>
<path d="M251.95 182.523C264.05 170.623 287.65 143.123 299.85 131.323C300.85 151.523 318.55 160.123 323.65 156.823C323.65 156.823 314.05 168.323 297.85 187.623C285.85 201.923 269.45 218.823 251.95 213.923" stroke="#1D1D1D" stroke-miterlimit="10" stroke-linecap="round" stroke-linejoin="round"/>
<path d="M280.351 151.723L287.151 129.923" stroke="#1D1D1D" stroke-miterlimit="10" stroke-linecap="round" stroke-linejoin="round"/>
<path d="M476.551 119.423C475.451 118.923 473.751 118.823 472.851 119.723C472.451 118.723 472.651 117.823 473.951 116.823C475.751 115.423 503.251 95.8228 503.251 95.8228C503.251 95.8228 504.951 94.5228 505.951 94.3228C507.651 93.9228 508.951 94.7228 509.651 95.4228C511.051 96.8228 511.851 99.3228 509.551 101.323C508.351 102.423 482.251 122.923 482.251 122.923C482.251 122.923 479.951 125.023 478.951 124.323C479.251 123.123 478.851 120.423 476.551 119.423Z" fill="#1D1D1D" stroke="#1D1D1D" stroke-miterlimit="10" stroke-linecap="round" stroke-linejoin="round"/>
<path d="M478.651 109.123C482.051 109.323 485.151 110.223 486.951 112.423C488.251 114.023 489.151 116.223 488.351 118.223C488.251 118.423 487.551 119.623 487.251 119.523C488.751 120.323 490.051 121.123 491.651 120.223C495.151 118.523 494.851 114.423 494.051 111.123C493.151 107.423 489.451 104.323 485.951 101.423C489.051 103.723 492.051 107.123 492.951 108.723C494.251 110.923 495.051 114.823 494.251 117.223C494.251 117.323 495.951 117.323 497.351 116.023C499.051 114.423 499.851 111.623 499.251 107.923C498.551 103.223 495.951 100.323 492.151 97.223C495.051 99.823 496.651 101.423 497.551 103.123C499.451 106.623 499.651 109.723 499.151 112.523C499.051 112.723 500.851 113.123 502.451 111.423C503.851 109.923 504.751 106.023 503.451 100.823C503.051 99.123 501.051 96.523 497.651 93.623C501.051 96.423 502.951 98.923 503.451 100.823C503.851 102.123 504.251 103.723 504.151 106.723C505.951 106.723 507.651 104.923 507.951 102.423C508.151 100.423 508.151 97.023 506.651 94.723C505.451 92.823 501.751 89.023 497.451 89.123C493.651 89.223 484.151 94.523 478.551 99.523C477.251 100.623 476.751 101.323 473.851 105.223" fill="#FFD873"/>
<path d="M478.651 109.123C482.051 109.323 485.151 110.223 486.951 112.423C488.251 114.023 489.151 116.223 488.351 118.223C488.251 118.423 487.551 119.623 487.251 119.523C488.751 120.323 490.051 121.123 491.651 120.223C495.151 118.523 494.851 114.423 494.051 111.123C493.151 107.423 489.451 104.323 485.951 101.423C489.051 103.723 492.051 107.123 492.951 108.723C494.251 110.923 495.051 114.823 494.251 117.223C494.251 117.323 495.951 117.323 497.351 116.023C499.051 114.423 499.851 111.623 499.251 107.923C498.551 103.223 495.951 100.323 492.151 97.223C495.051 99.823 496.651 101.423 497.551 103.123C499.451 106.623 499.651 109.723 499.151 112.523C499.051 112.723 500.851 113.123 502.451 111.423C503.851 109.923 504.751 106.023 503.451 100.823C503.051 99.123 501.051 96.523 497.651 93.623C501.051 96.423 502.951 98.923 503.451 100.823C503.851 102.123 504.251 103.723 504.151 106.723C505.951 106.723 507.651 104.923 507.951 102.423C508.151 100.423 508.151 97.023 506.651 94.723C505.451 92.823 501.751 89.023 497.451 89.123C493.651 89.223 484.151 94.523 478.551 99.523C477.251 100.623 476.751 101.323 473.851 105.223" stroke="#1D1D1D" stroke-miterlimit="10" stroke-linecap="round" stroke-linejoin="round"/>
<path d="M483.051 128.223C487.751 129.023 493.451 128.723 496.151 127.523C497.951 126.723 500.351 124.723 500.651 118.923C500.951 114.123 499.251 110.023 496.051 111.023C492.751 112.023 492.951 117.523 491.651 118.723C490.351 119.923 489.051 119.823 487.451 119.623" fill="#FFD873"/>
<path d="M483.051 128.223C487.751 129.023 493.451 128.723 496.151 127.523C497.951 126.723 500.351 124.723 500.651 118.923C500.951 114.123 499.251 110.023 496.051 111.023C492.751 112.023 492.951 117.523 491.651 118.723C490.351 119.923 489.051 119.823 487.451 119.623" stroke="#1D1D1D" stroke-miterlimit="10" stroke-linecap="round" stroke-linejoin="round"/>
<path d="M318.15 5.42334C318.45 11.3233 323.75 15.8233 328.65 18.9233" stroke="white" stroke-miterlimit="10" stroke-linecap="round" stroke-linejoin="round"/>
<path d="M349.95 25.8232C348.25 23.2232 347.05 20.5232 346.05 17.7232C345.35 15.8232 344.65 12.3232 346.35 10.7232C348.85 8.42324 353.45 12.4232 355.05 14.1232C356.65 15.7232 359.45 19.8232 359.55 20.0232C358.15 14.9232 357.45 9.22324 360.85 6.32324" stroke="white" stroke-miterlimit="10" stroke-linecap="round" stroke-linejoin="round"/>
<path d="M435.85 149.223C435.85 149.223 431.15 154.023 430.15 159.623" stroke="#1D1D1D" stroke-miterlimit="10" stroke-linecap="round" stroke-linejoin="round"/>
<path d="M246.65 357.223L105.75 242.623C102.25 239.823 103.05 234.323 107.15 232.523C114.05 229.523 120.95 226.423 127.85 223.423C145.65 215.623 163.55 208.123 181.15 200.223C188.85 196.823 196.55 193.223 204.25 189.723C208.85 187.623 213.85 185.623 218.75 184.523C226.05 182.823 234.55 189.923 239.65 194.323C275.25 224.923 311.05 255.723 349.15 283.423C356.75 289.023 363.85 295.823 371.25 301.823C374.75 304.623 373.95 310.123 369.85 311.923L262.15 359.523C257.05 361.623 251.05 360.723 246.65 357.223Z" fill="#FFFCED" stroke="#1D1D1D" stroke-miterlimit="10" stroke-linecap="round" stroke-linejoin="round"/>
<path d="M118.45 227.624L273.95 354.124" stroke="#1D1D1D" stroke-miterlimit="10" stroke-linecap="round" stroke-linejoin="round"/>
<path d="M118.951 246.123C119.651 246.423 120.551 246.723 121.251 246.823C124.151 247.223 128.351 245.523 127.251 241.823C126.351 238.723 122.351 237.123 119.351 237.723C114.551 238.523 114.951 244.223 118.951 246.123Z" fill="#FFD873" stroke="#1D1D1D" stroke-miterlimit="10" stroke-linecap="round" stroke-linejoin="round"/>
<path d="M134.551 258.423C135.651 258.823 136.851 259.123 137.951 259.223C140.651 259.423 143.851 257.023 142.451 254.123C140.751 250.423 132.251 248.623 131.651 254.123C131.451 255.823 132.951 257.723 134.551 258.423Z" fill="#FFD873" stroke="#1D1D1D" stroke-miterlimit="10" stroke-linecap="round" stroke-linejoin="round"/>
<path d="M149.951 271.323C150.651 271.623 151.551 271.923 152.251 272.023C155.351 272.423 158.451 270.423 157.751 267.223C157.151 264.523 154.951 263.123 152.351 262.923C147.051 262.523 145.151 269.023 149.951 271.323Z" fill="#FFD873" stroke="#1D1D1D" stroke-miterlimit="10" stroke-linecap="round" stroke-linejoin="round"/>
<path d="M250.451 234.823L229.551 217.523C227.951 216.223 228.251 213.823 230.151 212.923L230.551 212.723C232.751 211.623 235.351 212.023 237.251 213.523L258.151 230.723C259.751 232.023 259.451 234.423 257.551 235.323L257.151 235.523C254.951 236.623 252.251 236.323 250.451 234.823Z" fill="#FF7272" stroke="#1D1D1D" stroke-miterlimit="10" stroke-linecap="round" stroke-linejoin="round"/>
<path d="M292.451 268.224L271.551 251.023C269.951 249.723 270.251 247.323 272.151 246.423L272.551 246.223C274.751 245.123 277.351 245.523 279.251 247.023L300.151 264.224C301.751 265.524 301.451 267.923 299.551 268.823L299.151 269.023C296.951 270.123 294.351 269.824 292.451 268.224Z" fill="#FF7272" stroke="#1D1D1D" stroke-miterlimit="10" stroke-linecap="round" stroke-linejoin="round"/>
<path d="M238.65 298.323L207.95 273.723L262.45 249.923L293.05 274.523L238.65 298.323Z" fill="#FFD873" stroke="#1D1D1D" stroke-miterlimit="10" stroke-linecap="round" stroke-linejoin="round"/>
<path d="M220.65 268.423L250.65 292.523" stroke="#1D1D1D" stroke-miterlimit="10" stroke-linecap="round" stroke-linejoin="round"/>
<path d="M238.95 271.723L254.95 284.723" stroke="#1D1D1D" stroke-miterlimit="10" stroke-linecap="round" stroke-linejoin="round"/>
<path d="M235.151 270.423L236.951 268.323H232.351" stroke="#1D1D1D" stroke-miterlimit="10" stroke-linecap="round" stroke-linejoin="round"/>
<path d="M246.751 268.023L262.851 280.923" stroke="#1D1D1D" stroke-miterlimit="10" stroke-linecap="round" stroke-linejoin="round"/>
<path d="M242.951 266.723L244.751 264.523H240.251" stroke="#1D1D1D" stroke-miterlimit="10" stroke-linecap="round" stroke-linejoin="round"/>
<path d="M254.65 264.323L270.65 277.223" stroke="#1D1D1D" stroke-miterlimit="10" stroke-linecap="round" stroke-linejoin="round"/>
<path d="M250.851 262.923L252.651 260.823H248.051" stroke="#1D1D1D" stroke-miterlimit="10" stroke-linecap="round" stroke-linejoin="round"/>
<path d="M196.25 265.024L165.65 240.324L220.15 216.624L250.75 241.324L196.25 265.024Z" fill="#FFD873" stroke="#1D1D1D" stroke-miterlimit="10" stroke-linecap="round" stroke-linejoin="round"/>
<path d="M178.45 235.023L208.55 259.423" stroke="#1D1D1D" stroke-miterlimit="10" stroke-linecap="round" stroke-linejoin="round"/>
<path d="M196.65 238.423L212.65 251.323" stroke="#1D1D1D" stroke-miterlimit="10" stroke-linecap="round" stroke-linejoin="round"/>
<path d="M192.851 237.123L194.551 235.023H190.051" stroke="#1D1D1D" stroke-miterlimit="10" stroke-linecap="round" stroke-linejoin="round"/>
<path d="M204.351 234.723L220.351 247.723" stroke="#1D1D1D" stroke-miterlimit="10" stroke-linecap="round" stroke-linejoin="round"/>
<path d="M200.551 233.423L202.251 231.323H197.751" stroke="#1D1D1D" stroke-miterlimit="10" stroke-linecap="round" stroke-linejoin="round"/>
<path d="M212.051 231.023L228.051 243.923" stroke="#1D1D1D" stroke-miterlimit="10" stroke-linecap="round" stroke-linejoin="round"/>
<path d="M208.251 229.823L210.051 227.723H205.551" stroke="#1D1D1D" stroke-miterlimit="10" stroke-linecap="round" stroke-linejoin="round"/>
<path d="M219.751 227.423L235.751 240.323" stroke="#1D1D1D" stroke-miterlimit="10" stroke-linecap="round" stroke-linejoin="round"/>
<path d="M215.951 226.023L217.751 223.923H213.251" stroke="#1D1D1D" stroke-miterlimit="10" stroke-linecap="round" stroke-linejoin="round"/>
<path d="M198.85 258.324C196.75 258.524 194.75 257.624 193.15 256.424C191.95 255.524 190.75 254.224 190.45 252.724C190.15 251.324 191.05 250.324 192.45 250.524C193.35 250.624 194.85 251.724 194.25 252.824C194.05 253.224 193.45 253.324 193.05 253.224C189.85 253.124 183.25 250.624 183.85 246.424C183.95 245.924 184.15 245.324 184.65 245.224C181.65 245.024 178.85 243.524 176.95 241.124" stroke="#1D1D1D" stroke-miterlimit="10" stroke-linecap="round" stroke-linejoin="round"/>
<path d="M241.85 292.823C239.65 292.623 236.75 292.123 234.95 290.723C234.35 290.323 231.75 285.923 233.05 286.023C231.25 285.923 229.35 284.823 227.95 283.723C227.65 283.423 225.35 279.823 226.95 280.023C223.65 279.623 220.65 277.423 219.25 274.423" stroke="#1D1D1D" stroke-miterlimit="10" stroke-linecap="round" stroke-linejoin="round"/>
<path d="M286.551 434.023C280.551 432.523 274.651 429.423 269.351 426.923C259.051 422.223 248.751 417.523 238.451 412.923C217.851 403.523 197.251 394.223 176.551 384.823C155.151 375.123 133.951 364.523 112.251 355.223C105.551 352.323 98.4509 349.323 91.9509 346.323C88.1509 344.523 87.5509 339.423 90.7509 336.823L188.951 258.423C193.051 255.123 198.751 254.423 203.451 256.623C234.451 270.723 265.551 284.823 296.551 298.923C317.451 308.423 336.451 317.323 357.351 326.823C364.051 329.923 369.151 332.223 377.151 335.423C382.651 337.623 388.751 339.723 393.551 343.523C398.751 347.623 394.951 353.523 391.151 357.223C383.251 365.023 375.051 372.423 366.651 379.623C350.051 393.923 332.651 407.323 315.551 421.023C311.051 424.623 306.651 428.823 301.751 432.023C297.151 435.323 291.851 435.323 286.551 434.023Z" fill="#FFFCED" stroke="#1D1D1D" stroke-miterlimit="10" stroke-linecap="round" stroke-linejoin="round"/>
<path d="M99.9512 329.823C194.751 374.923 310.351 425.423 310.351 425.423" stroke="#1D1D1D" stroke-miterlimit="10" stroke-linecap="round" stroke-linejoin="round"/>
<path d="M104.951 346.523C105.751 346.723 106.551 346.723 107.251 346.623C109.451 346.423 112.451 345.123 112.151 342.323C111.551 337.923 105.951 337.423 102.751 339.123C100.851 340.223 99.7505 342.123 101.151 344.123C102.051 345.523 103.451 346.223 104.951 346.523Z" fill="#FFD873" stroke="#1D1D1D" stroke-miterlimit="10" stroke-linecap="round" stroke-linejoin="round"/>
<path d="M121.951 354.123C124.751 354.623 128.651 353.123 128.751 349.723C128.851 346.023 122.651 345.223 120.051 346.423C119.151 346.823 118.351 347.423 117.851 348.223C117.151 349.423 117.351 350.623 118.051 351.723C119.051 353.123 120.451 353.823 121.951 354.123Z" fill="#FFD873" stroke="#1D1D1D" stroke-miterlimit="10" stroke-linecap="round" stroke-linejoin="round"/>
<path d="M138.951 362.123C139.751 362.323 140.551 362.323 141.251 362.223C143.451 362.023 146.451 360.723 146.151 357.923C145.651 354.123 140.651 353.223 137.651 354.223C136.051 354.823 135.251 355.923 135.051 357.623C134.551 360.023 136.651 361.623 138.951 362.123Z" fill="#FFD873" stroke="#1D1D1D" stroke-miterlimit="10" stroke-linecap="round" stroke-linejoin="round"/>
<path d="M306.351 409.923L278.251 396.823L283.951 392.223L312.051 405.323L306.351 409.923Z" fill="#A09CE0" stroke="#1D1D1D" stroke-miterlimit="10" stroke-linecap="round" stroke-linejoin="round"/>
<path d="M128.15 321.323L137.15 325.523" stroke="#1D1D1D" stroke-miterlimit="10" stroke-linecap="round" stroke-linejoin="round"/>
<path d="M131.251 330.023L122.351 325.823" stroke="#1D1D1D" stroke-miterlimit="10" stroke-linecap="round" stroke-linejoin="round"/>
<path d="M134.251 327.723L125.351 323.523" stroke="#1D1D1D" stroke-miterlimit="10" stroke-linecap="round" stroke-linejoin="round"/>
<path d="M236.051 348.623L145.251 307.423L190.351 271.423L281.051 312.723L236.051 348.623Z" fill="#6CCA9D" stroke="#1D1D1D" stroke-miterlimit="10" stroke-linecap="round" stroke-linejoin="round"/>
<path d="M164.151 345.023L148.951 338.023" stroke="#1D1D1D" stroke-miterlimit="10" stroke-linecap="round" stroke-linejoin="round"/>
<path d="M190.85 357.123L172.15 348.623" stroke="#1D1D1D" stroke-miterlimit="10" stroke-linecap="round" stroke-linejoin="round"/>
<path d="M210.251 365.923L199.551 361.023" stroke="#1D1D1D" stroke-miterlimit="10" stroke-linecap="round" stroke-linejoin="round"/>
<path d="M231.151 375.423L218.751 369.823" stroke="#1D1D1D" stroke-miterlimit="10" stroke-linecap="round" stroke-linejoin="round"/>
<path d="M261.151 389.023L239.951 379.423" stroke="#1D1D1D" stroke-miterlimit="10" stroke-linecap="round" stroke-linejoin="round"/>
<path d="M474.05 118.523C471.15 120.423 468.25 125.123 466.45 130.823C465.55 133.923 444.65 198.423 441.35 207.023C437.25 217.723 432.25 220.823 432.25 220.823L436.85 226.723C442.55 225.123 447.15 215.923 450.05 207.023C452.95 198.123 471.55 142.123 472.25 140.123C473.95 134.823 476.05 126.723 480.35 123.123C479.55 122.523 478.95 120.623 478.15 120.123C475.95 118.523 474.05 118.523 474.05 118.523Z" fill="#FF7272" stroke="#1D1D1D" stroke-miterlimit="10" stroke-linecap="round" stroke-linejoin="round"/>
<path d="M336.151 317.923C336.151 317.923 368.951 333.023 370.851 333.823C372.751 334.623 376.651 336.923 381.151 334.023C385.951 330.923 437.251 294.423 440.251 292.123C443.551 289.523 444.351 288.723 444.351 281.423C444.351 273.623 444.451 243.823 444.351 238.623C444.251 231.923 444.451 228.523 442.951 225.423C441.451 222.223 438.051 220.823 434.151 219.323C434.151 219.323 389.451 201.623 385.451 200.623C380.351 199.323 378.351 199.523 365.251 207.623C349.151 217.423 317.151 238.323 312.051 242.123C307.351 245.523 305.651 248.723 306.451 262.823C307.351 279.123 308.351 298.923 308.351 298.923C308.351 298.923 307.751 304.023 312.951 306.923C318.051 309.723 336.151 317.923 336.151 317.923Z" fill="#FF7272" stroke="#1D1D1D" stroke-miterlimit="10" stroke-linecap="round" stroke-linejoin="round"/>
<path d="M314.351 250.623L364.451 267.723" stroke="#1D1D1D" stroke-miterlimit="10" stroke-linecap="round" stroke-linejoin="round"/>
<path d="M338.851 221.323C338.851 222.223 338.851 247.623 338.851 247.623C338.851 247.623 341.451 256.323 355.751 256.323C368.951 256.323 370.751 247.623 370.751 247.623V219.523L338.851 221.323Z" fill="#FF7272" stroke="#1D1D1D" stroke-miterlimit="10" stroke-linecap="round" stroke-linejoin="round"/>
<path d="M402.05 197.023C402.05 208.323 380.85 228.123 354.75 228.123C328.65 228.123 307.45 208.323 307.45 197.023C307.45 185.723 328.65 189.323 354.75 189.323C380.85 189.323 402.05 185.723 402.05 197.023Z" fill="#FF6D55" stroke="#1D1D1D" stroke-miterlimit="10" stroke-linecap="round" stroke-linejoin="round"/>
<path d="M354.75 217.423C380.873 217.423 402.05 208.29 402.05 197.023C402.05 185.756 380.873 176.623 354.75 176.623C328.627 176.623 307.45 185.756 307.45 197.023C307.45 208.29 328.627 217.423 354.75 217.423Z" fill="#1D1D1D" stroke="#1D1D1D" stroke-miterlimit="10" stroke-linecap="round" stroke-linejoin="round"/>
<path d="M427.45 233.723C427.45 233.723 382.05 264.023 379.95 265.723C377.15 268.123 374.45 268.623 374.45 277.023C374.45 281.323 375.85 323.923 375.85 323.923" stroke="#1D1D1D" stroke-miterlimit="10" stroke-linecap="round" stroke-linejoin="round"/>
<path d="M351.35 278.023C359.75 287.523 358.05 300.223 355.95 304.223C355.95 304.223 342.95 318.323 339.85 319.623C334.95 321.723 327.15 323.423 322.15 321.323C315.55 318.623 311.95 308.923 309.35 302.223C306.75 295.823 311.05 287.423 314.95 282.323L332.15 271.323C336.15 270.023 346.65 272.823 351.35 278.023Z" fill="#FF7272" stroke="#1D1D1D" stroke-miterlimit="10" stroke-linecap="round" stroke-linejoin="round"/>
<path d="M343.85 300.923C345.25 309.023 343.85 315.623 341.75 319.423C339.75 323.023 330.65 328.223 329.35 328.723C318.95 332.823 305.15 320.123 302.95 306.623C301.35 297.223 301.55 291.023 307.25 285.923C309.65 283.723 315.65 279.523 318.95 279.023C330.05 277.223 341.55 287.523 343.85 300.923Z" fill="#FF7272" stroke="#1D1D1D" stroke-miterlimit="10" stroke-linecap="round" stroke-linejoin="round"/>
<path d="M322.863 331.276C333.922 329.437 341.08 317.081 338.85 303.68C336.621 290.278 325.848 280.906 314.79 282.745C303.731 284.585 296.573 296.941 298.802 310.342C301.032 323.744 311.804 333.116 322.863 331.276Z" fill="#1D1D1D" stroke="#1D1D1D" stroke-width="1.9999" stroke-miterlimit="9.9996" stroke-linecap="round" stroke-linejoin="round"/>
<path d="M294.85 355.623C294.75 355.623 294.75 355.623 294.85 355.623C293.95 355.623 293.15 354.823 293.15 353.923L293.35 344.623C293.35 344.023 293.35 343.523 293.45 343.223C293.45 343.123 293.45 343.123 293.45 343.023C293.45 343.023 293.45 343.023 293.45 342.923C293.55 342.023 293.75 341.823 294.25 341.523C294.75 341.223 295.45 341.223 295.95 341.623C296.45 341.923 296.75 342.523 296.75 343.023C296.75 343.823 296.55 353.423 296.55 353.923C296.45 354.823 295.65 355.623 294.85 355.623Z" fill="#A09CE0" stroke="#1D1D1D" stroke-miterlimit="10" stroke-linecap="round" stroke-linejoin="round"/>
<path d="M295.15 338.123C295.05 338.123 295.05 338.123 295.15 338.123C294.25 338.123 293.45 337.323 293.45 336.423C293.65 327.223 293.65 320.423 293.75 316.123C293.85 299.023 305.95 294.823 306.45 294.623C307.35 294.323 308.25 294.823 308.55 295.723C308.85 296.623 308.35 297.523 307.45 297.823C307.05 298.023 297.15 301.623 297.05 316.223C297.05 320.523 296.95 327.423 296.75 336.523C296.75 337.423 296.05 338.123 295.15 338.123Z" fill="#FFD873" stroke="#1D1D1D" stroke-miterlimit="10" stroke-linecap="round" stroke-linejoin="round"/>
<path d="M310.85 356.923C309.95 356.923 309.15 356.123 309.15 355.223L309.25 343.223C309.25 342.323 310.05 341.523 310.95 341.523C311.85 341.523 312.65 342.323 312.65 343.223L312.55 355.223C312.45 356.223 311.65 356.923 310.85 356.923Z" fill="#6CCA9D" stroke="#1D1D1D" stroke-miterlimit="10" stroke-linecap="round" stroke-linejoin="round"/>
<path d="M310.95 338.123C310.05 338.123 309.25 337.323 309.25 336.423C309.35 330.123 309.35 324.723 309.35 319.523C309.35 318.623 310.15 317.823 311.05 317.823C311.95 317.823 312.75 318.623 312.75 319.523C312.65 324.823 312.65 330.223 312.65 336.423C312.55 337.423 311.85 338.123 310.95 338.123Z" fill="#FFD873" stroke="#1D1D1D" stroke-miterlimit="10" stroke-linecap="round" stroke-linejoin="round"/>
<path d="M311.15 314.023C311.05 314.023 311.05 314.023 311.05 314.023C310.15 313.923 309.45 313.223 309.45 312.223C309.85 306.323 311.55 302.123 314.75 298.823C315.45 298.123 316.45 298.123 317.05 298.823C317.65 299.523 317.75 300.523 317.05 301.123C315.15 303.023 313.15 305.923 312.75 312.423C312.75 313.423 312.05 314.023 311.15 314.023Z" fill="#FF7272" stroke="#1D1D1D" stroke-miterlimit="10" stroke-linecap="round" stroke-linejoin="round"/>
<path d="M328.651 356.923C327.751 356.923 327.051 356.223 326.951 355.323C326.851 354.223 324.951 329.123 325.651 316.623C325.751 315.823 325.751 315.023 325.851 314.423C325.951 313.523 326.751 312.823 327.651 312.923C328.551 313.023 329.251 313.823 329.151 314.723C329.051 315.423 329.051 316.123 328.951 316.823C328.251 329.023 330.251 354.723 330.251 355.023C330.351 355.923 329.651 356.723 328.651 356.823C328.651 356.923 328.651 356.923 328.651 356.923Z" fill="#6CCA9D" stroke="#1D1D1D" stroke-miterlimit="10" stroke-linecap="round" stroke-linejoin="round"/>
<path d="M328.55 310.123C328.35 310.123 328.25 310.123 328.15 310.023C327.25 309.823 326.75 308.823 326.95 307.923C327.75 304.823 329.15 302.523 331.15 300.523C331.85 299.823 332.85 299.823 333.45 300.523C334.15 301.223 334.15 302.223 333.45 302.823C331.85 304.423 330.85 306.223 330.15 308.823C329.95 309.623 329.25 310.123 328.55 310.123Z" fill="#FFD873" stroke="#1D1D1D" stroke-miterlimit="10" stroke-linecap="round" stroke-linejoin="round"/>
<path d="M302.15 361.723C301.25 361.723 300.45 360.923 300.45 360.023C300.45 359.923 300.45 356.823 300.55 349.723C300.55 348.823 301.35 348.023 302.25 348.023C303.15 348.023 303.95 348.823 303.95 349.723C303.85 356.823 303.85 360.023 303.85 360.023C303.85 361.023 303.05 361.723 302.15 361.723Z" fill="#FF7272" stroke="#1D1D1D" stroke-miterlimit="10" stroke-linecap="round" stroke-linejoin="round"/>
<path d="M302.35 344.723C301.45 344.723 300.65 343.923 300.65 343.023C300.85 328.323 301.15 318.323 301.55 312.323C301.65 311.423 302.35 310.723 303.35 310.723C304.25 310.823 304.95 311.523 304.95 312.523C304.55 318.423 304.25 328.423 304.15 343.023C303.95 343.923 303.25 344.723 302.35 344.723Z" fill="#A09CE0" stroke="#1D1D1D" stroke-miterlimit="10" stroke-linecap="round" stroke-linejoin="round"/>
<path d="M304.051 307.223C303.951 307.223 303.851 307.223 303.751 307.123C302.851 306.923 302.251 306.023 302.451 305.123C305.351 291.323 314.451 288.023 314.851 287.923C315.751 287.623 316.651 288.123 316.951 289.023C317.251 289.923 316.751 290.823 315.851 291.123C315.551 291.223 308.151 294.023 305.651 305.823C305.451 306.623 304.851 307.223 304.051 307.223Z" fill="#6CCA9D" stroke="#1D1D1D" stroke-miterlimit="10" stroke-linecap="round" stroke-linejoin="round"/>
<path d="M319.55 361.423C318.65 361.423 317.85 360.723 317.85 359.823C317.85 359.823 317.75 356.123 317.65 350.723C317.65 349.823 318.35 349.023 319.25 349.023C319.25 349.023 319.25 349.023 319.35 349.023C320.25 349.023 321.05 349.723 321.05 350.623C321.15 356.023 321.25 359.723 321.25 359.723C321.15 360.723 320.45 361.423 319.55 361.423Z" fill="#A09CE0" stroke="#1D1D1D" stroke-miterlimit="10" stroke-linecap="round" stroke-linejoin="round"/>
<path d="M319.251 345.923C318.351 345.923 317.551 345.223 317.551 344.223C317.451 335.423 317.351 328.023 317.451 322.023C317.451 321.123 318.251 320.323 319.151 320.323C320.051 320.323 320.851 321.123 320.851 322.023C320.751 327.923 320.851 335.323 320.951 344.123C320.951 345.123 320.151 345.923 319.251 345.923Z" fill="#FF7272" stroke="#1D1D1D" stroke-miterlimit="10" stroke-linecap="round" stroke-linejoin="round"/>
<path d="M319.251 316.323C318.251 316.223 317.551 315.523 317.551 314.623C317.651 312.523 317.751 310.823 317.851 309.523C318.651 299.723 320.551 294.623 324.851 290.523C325.551 289.923 326.551 289.923 327.151 290.623C327.751 291.323 327.751 292.323 327.051 292.923C323.851 295.923 321.951 299.623 321.151 309.723C321.051 310.923 320.951 312.623 320.951 314.623C320.951 315.523 320.151 316.323 319.251 316.323Z" fill="#A09CE0" stroke="#1D1D1D" stroke-miterlimit="10" stroke-linecap="round" stroke-linejoin="round"/>
<path d="M303.45 370.423C311.15 372.023 319.65 372.223 327.15 370.123C334.95 367.923 344.55 360.323 340.95 351.123" stroke="#1D1D1D" stroke-miterlimit="10" stroke-linecap="round" stroke-linejoin="round"/>
<path d="M283.151 351.623C281.751 355.023 283.251 358.823 285.551 361.423C287.851 364.023 290.651 365.923 293.751 367.323" stroke="#1D1D1D" stroke-miterlimit="10" stroke-linecap="round" stroke-linejoin="round"/>
<path d="M279.45 367.923C283.85 376.623 299.35 382.123 308.65 382.123" stroke="#1D1D1D" stroke-miterlimit="10" stroke-linecap="round" stroke-linejoin="round"/>
<path d="M399.051 151.423L378.351 200.423L348.751 181.523L369.451 132.523L399.051 151.423Z" fill="#FFFCED" stroke="#1D1D1D" stroke-miterlimit="10" stroke-linecap="round" stroke-linejoin="round"/>
<path d="M348.751 181.523L399.051 151.423" stroke="#1D1D1D" stroke-miterlimit="10" stroke-linecap="round" stroke-linejoin="round"/>
<path d="M369.451 132.523L378.351 200.423" stroke="#1D1D1D" stroke-miterlimit="10" stroke-linecap="round" stroke-linejoin="round"/>
<path d="M348.751 183.723C349.966 183.723 350.951 182.738 350.951 181.523C350.951 180.308 349.966 179.323 348.751 179.323C347.536 179.323 346.551 180.308 346.551 181.523C346.551 182.738 347.536 183.723 348.751 183.723Z" fill="#1D1D1D" stroke="#1D1D1D" stroke-miterlimit="10" stroke-linecap="round" stroke-linejoin="round"/>
<path d="M378.35 202.623C379.565 202.623 380.55 201.638 380.55 200.423C380.55 199.208 379.565 198.223 378.35 198.223C377.135 198.223 376.15 199.208 376.15 200.423C376.15 201.638 377.135 202.623 378.35 202.623Z" fill="#1D1D1D" stroke="#1D1D1D" stroke-miterlimit="10" stroke-linecap="round" stroke-linejoin="round"/>
<path d="M369.451 134.723C370.666 134.723 371.651 133.738 371.651 132.523C371.651 131.308 370.666 130.323 369.451 130.323C368.236 130.323 367.251 131.308 367.251 132.523C367.251 133.738 368.236 134.723 369.451 134.723Z" fill="#1D1D1D" stroke="#1D1D1D" stroke-miterlimit="10" stroke-linecap="round" stroke-linejoin="round"/>
<path d="M399.051 153.623C400.266 153.623 401.251 152.638 401.251 151.423C401.251 150.208 400.266 149.223 399.051 149.223C397.836 149.223 396.851 150.208 396.851 151.423C396.851 152.638 397.836 153.623 399.051 153.623Z" fill="#1D1D1D" stroke="#1D1D1D" stroke-miterlimit="10" stroke-linecap="round" stroke-linejoin="round"/>
<path d="M369.751 201.323L342.051 160.723L307.351 176.423L335.051 217.023L369.751 201.323Z" fill="#FFFCED" stroke="#1D1D1D" stroke-miterlimit="10" stroke-linecap="round" stroke-linejoin="round"/>
<path d="M307.351 176.423L369.751 201.323" stroke="#1D1D1D" stroke-miterlimit="10" stroke-linecap="round" stroke-linejoin="round"/>
<path d="M335.051 217.023L342.051 160.723" stroke="#1D1D1D" stroke-miterlimit="10" stroke-linecap="round" stroke-linejoin="round"/>
<path d="M307.35 178.623C308.565 178.623 309.55 177.638 309.55 176.423C309.55 175.208 308.565 174.223 307.35 174.223C306.135 174.223 305.15 175.208 305.15 176.423C305.15 177.638 306.135 178.623 307.35 178.623Z" fill="#1D1D1D" stroke="#1D1D1D" stroke-miterlimit="10" stroke-linecap="round" stroke-linejoin="round"/>
<path d="M342.051 162.923C343.266 162.923 344.251 161.938 344.251 160.723C344.251 159.508 343.266 158.523 342.051 158.523C340.836 158.523 339.851 159.508 339.851 160.723C339.851 161.938 340.836 162.923 342.051 162.923Z" fill="#1D1D1D" stroke="#1D1D1D" stroke-miterlimit="10" stroke-linecap="round" stroke-linejoin="round"/>
<path d="M335.051 219.223C336.266 219.223 337.251 218.238 337.251 217.023C337.251 215.808 336.266 214.823 335.051 214.823C333.836 214.823 332.851 215.808 332.851 217.023C332.851 218.238 333.836 219.223 335.051 219.223Z" fill="#1D1D1D" stroke="#1D1D1D" stroke-miterlimit="10" stroke-linecap="round" stroke-linejoin="round"/>
<path d="M369.751 203.523C370.966 203.523 371.951 202.538 371.951 201.323C371.951 200.108 370.966 199.123 369.751 199.123C368.536 199.123 367.551 200.108 367.551 201.323C367.551 202.538 368.536 203.523 369.751 203.523Z" fill="#1D1D1D" stroke="#1D1D1D" stroke-miterlimit="10" stroke-linecap="round" stroke-linejoin="round"/>
<path d="M374.851 188.923L351.651 182.423L350.651 176.723C350.451 175.423 351.651 174.323 352.951 174.623L371.151 179.523C372.451 179.923 373.551 181.023 373.751 182.423L374.851 188.923Z" fill="#FFFCED" stroke="#1D1D1D" stroke-miterlimit="10" stroke-linecap="round" stroke-linejoin="round"/>
<path d="M376.75 214.822L358.55 209.922C357.25 209.522 356.15 208.422 355.95 207.022L351.65 182.422L374.85 188.922L379.05 212.822C379.25 214.022 378.05 215.222 376.75 214.822Z" fill="#FFFCED" stroke="#1D1D1D" stroke-miterlimit="10" stroke-linecap="round" stroke-linejoin="round"/>
<path d="M356.951 189.422L370.351 193.222" stroke="#1D1D1D" stroke-miterlimit="10" stroke-linecap="round" stroke-linejoin="round"/>
<path d="M357.65 194.723L371.15 198.523" stroke="#1D1D1D" stroke-miterlimit="10" stroke-linecap="round" stroke-linejoin="round"/>
<path d="M370.85 207.723L361.65 205.223C360.55 204.923 359.65 204.023 359.45 202.823C359.25 201.723 360.25 200.723 361.35 201.023L370.55 203.523C371.65 203.823 372.55 204.723 372.75 205.923C372.95 207.023 371.95 208.023 370.85 207.723Z" fill="#1D1D1D" stroke="#1D1D1D" stroke-miterlimit="10" stroke-linecap="round" stroke-linejoin="round"/>
<path d="M388.351 192.823L378.051 189.523C377.451 189.323 377.151 188.723 377.351 188.123L380.651 177.823C380.851 177.223 381.451 176.923 382.051 177.123L392.351 180.423C392.951 180.623 393.251 181.223 393.051 181.823L389.751 192.123C389.551 192.723 388.951 193.023 388.351 192.823Z" fill="#FFFCED" stroke="#1D1D1D" stroke-miterlimit="10" stroke-linecap="round" stroke-linejoin="round"/>
<path d="M382.751 181.123L389.451 183.323" stroke="#1D1D1D" stroke-miterlimit="10" stroke-linecap="round" stroke-linejoin="round"/>
<path d="M381.852 183.823L388.552 186.023" stroke="#1D1D1D" stroke-miterlimit="10" stroke-linecap="round" stroke-linejoin="round"/>
<path d="M380.951 186.522L387.651 188.722" stroke="#1D1D1D" stroke-miterlimit="10" stroke-linecap="round" stroke-linejoin="round"/>
<path d="M353.951 221.123L334.051 196.023C332.351 193.923 332.751 190.823 334.851 189.223L335.751 188.523C337.851 186.823 340.951 187.223 342.551 189.323L362.451 214.423C364.151 216.523 363.751 219.623 361.651 221.223L360.751 221.923C358.751 223.523 355.651 223.223 353.951 221.123Z" fill="#FFFCED" stroke="#1D1D1D" stroke-miterlimit="10" stroke-linecap="round" stroke-linejoin="round"/>
<path d="M404.35 191.823L381.95 214.623C380.05 216.523 377.05 216.523 375.05 214.723L374.25 213.923C372.35 212.023 372.35 209.023 374.15 207.023L396.55 184.223C398.45 182.323 401.45 182.323 403.45 184.123L404.25 184.923C406.15 186.823 406.15 189.923 404.35 191.823Z" fill="#FFFCED" stroke="#1D1D1D" stroke-miterlimit="10" stroke-linecap="round" stroke-linejoin="round"/>
<path d="M402.05 198.023C400.85 209.423 380.15 228.023 354.75 228.023C329.35 228.023 308.65 209.423 307.45 198.023C308.75 208.823 329.35 217.423 354.75 217.423C380.05 217.423 400.75 208.823 402.05 198.023Z" fill="#FF7272" stroke="#1D1D1D" stroke-miterlimit="10" stroke-linecap="round" stroke-linejoin="round"/>
<path d="M276.65 349.723C278.05 343.323 282.55 338.423 288.55 336.423" stroke="#1D1D1D" stroke-miterlimit="10" stroke-linecap="round" stroke-linejoin="round"/>
</svg>
