<svg width="1280" height="380" viewBox="0 0 1280 380" fill="none" xmlns="http://www.w3.org/2000/svg">
<g clip-path="url(#clip0_2638_18299)">
<rect y="1.00049" width="1290" height="331" fill="white"/>
<path d="M1172.64 232.18C1172.64 253.746 1161.99 272.845 1145.6 284.463C1145.6 291.944 1145.6 296.4 1145.6 296.4C1145.6 296.4 1043.54 296.4 1008.06 296.4C972.423 296.4 943.706 267.513 943.706 232.02C943.706 196.369 972.582 167.64 1008.06 167.64C1014.27 167.64 1020.31 168.516 1025.96 170.107C1020.15 160.399 1016.89 149.258 1016.89 137.161C1016.89 107.001 1037.57 81.774 1065.49 74.771C1065.89 74.6914 1066.29 74.5322 1066.77 74.4527C1071.54 73.3386 1076.47 72.7019 1081.64 72.7019C1116.96 72.7019 1145.6 101.351 1145.6 136.684C1145.6 136.764 1145.6 136.923 1145.6 137.002C1145.52 150.531 1141.3 163.025 1134.06 173.37C1138.12 175.121 1142.02 177.349 1145.6 179.896C1161.99 191.514 1172.64 210.614 1172.64 232.18Z" stroke="#1D1D1D" stroke-width="2" stroke-miterlimit="10" stroke-linecap="round" stroke-linejoin="round"/>
<path d="M799.628 258.439C799.628 293.932 770.752 322.819 735.274 322.819C724.774 322.819 714.91 320.352 706.159 315.896C694.943 334.438 674.34 346.852 651.033 346.852C645.146 346.852 639.419 346.056 633.93 344.544L576.258 323.535C571.644 354.571 544.916 378.445 512.699 378.445C477.062 378.445 448.345 349.558 448.345 314.065C448.345 280.244 474.436 252.471 507.608 249.845C504.108 241.887 502.119 232.974 502.119 223.742C502.119 216.342 503.392 209.179 505.619 202.495C478.175 195.173 458.05 170.106 458.05 140.423C458.05 104.771 486.925 76.0426 522.404 76.0426C535.131 76.0426 547.143 79.7828 557.166 86.2288C556.768 83.6822 556.609 80.9765 556.609 78.2708C556.609 42.6191 585.485 13.8909 620.964 13.8909C646.419 13.8909 668.454 28.6131 678.874 50.0996C683.091 58.6146 685.318 68.1642 685.318 78.1912C685.318 87.2633 683.409 95.9375 680.068 103.736C686.67 101.269 693.75 99.7573 701.227 99.5186C701.784 99.5186 702.341 99.5186 702.898 99.5186C738.535 99.5186 767.252 128.406 767.252 163.899C767.252 176.393 763.752 188.091 757.547 197.879C782.207 207.19 799.628 230.745 799.628 258.439Z" fill="white" stroke="#1D1D1D" stroke-width="2" stroke-miterlimit="10" stroke-linecap="round" stroke-linejoin="round"/>
<path d="M505.779 202.733C505.7 202.733 505.62 202.653 505.461 202.653" stroke="#1D1D1D" stroke-width="2" stroke-miterlimit="10" stroke-linecap="round" stroke-linejoin="round"/>
<path d="M468.948 293.771L452.402 291.542L445.163 300.217L452.243 345.02L466.641 332.208L468.948 293.771Z" fill="white"/>
<path d="M506.971 377.409L487.88 352.023L537.2 342.872L554.143 361.254" fill="white"/>
<path d="M506.971 377.409L487.88 352.023L537.2 342.872L554.143 361.254" stroke="#1D1D1D" stroke-width="2" stroke-miterlimit="10" stroke-linecap="round" stroke-linejoin="round"/>
<path d="M528.133 356.162L515.564 358.708L510.712 353.058L523.281 350.511L528.133 356.162Z" fill="white" stroke="#1D1D1D" stroke-width="2" stroke-miterlimit="10" stroke-linecap="round" stroke-linejoin="round"/>
<path d="M512.535 366.348L541.013 360.3" stroke="#1D1D1D" stroke-width="2" stroke-miterlimit="10" stroke-linecap="round" stroke-linejoin="round"/>
<path d="M516.116 369.929L544.594 364.04" stroke="#1D1D1D" stroke-width="2" stroke-miterlimit="10" stroke-linecap="round" stroke-linejoin="round"/>
<path d="M519.694 373.669L548.013 367.78" stroke="#1D1D1D" stroke-width="2" stroke-miterlimit="10" stroke-linecap="round" stroke-linejoin="round"/>
<path d="M520.098 313.588L541.974 322.66C541.974 322.66 500.688 332.766 493.449 335.392C485.892 338.257 477.778 343.907 474.994 347.648C473.324 349.956 474.676 353.059 478.017 352.263C476.028 355.924 480.483 358.073 483.665 354.889C483.188 356.004 483.665 357.277 484.779 357.834C486.449 358.63 488.438 356.799 489.631 355.844C492.017 353.855 495.597 351.468 499.734 350.035C499.336 350.831 496.87 353.537 496.393 356.481C495.836 359.505 499.654 359.744 501.325 357.595C503.87 354.253 504.825 351.706 508.007 349.637C508.325 349.478 571.327 340.883 571.327 340.883C571.327 340.883 574.19 334.278 576.1 325.286" fill="white"/>
<path d="M520.098 313.588L541.974 322.66C541.974 322.66 500.688 332.766 493.449 335.392C485.892 338.257 477.778 343.907 474.994 347.648C473.324 349.956 474.676 353.059 478.017 352.263C476.028 355.924 480.483 358.073 483.665 354.889C483.188 356.004 483.665 357.277 484.779 357.834C486.449 358.63 488.438 356.799 489.631 355.844C492.017 353.855 495.597 351.468 499.734 350.035C499.336 350.831 496.87 353.537 496.393 356.481C495.836 359.505 499.654 359.744 501.325 357.595C503.87 354.253 504.825 351.706 508.007 349.637C508.325 349.478 571.327 340.883 571.327 340.883C571.327 340.883 574.19 334.278 576.1 325.286" stroke="#1D1D1D" stroke-width="2" stroke-miterlimit="10" stroke-linecap="round" stroke-linejoin="round"/>
<path d="M484.542 316.612C484.542 316.612 478.815 312.792 476.269 316.612C473.724 320.432 475.792 325.047 477.701 326.798C479.531 328.469 483.19 329.106 485.338 327.435" fill="white"/>
<path d="M484.542 316.612C484.542 316.612 478.815 312.792 476.269 316.612C473.724 320.432 475.792 325.047 477.701 326.798C479.531 328.469 483.19 329.106 485.338 327.435" stroke="#1D1D1D" stroke-width="2" stroke-miterlimit="10" stroke-linecap="round" stroke-linejoin="round"/>
<path d="M516.041 318.442C520.496 321.466 523.2 316.054 522.325 312.234C521.45 307.539 516.995 305.55 513.813 307.778" fill="white"/>
<path d="M516.041 318.442C520.496 321.466 523.2 316.054 522.325 312.234C521.45 307.539 516.995 305.55 513.813 307.778" stroke="#1D1D1D" stroke-width="2" stroke-miterlimit="10" stroke-linecap="round" stroke-linejoin="round"/>
<path d="M517.318 313.349C516.999 312.792 516.761 312.235 516.443 311.678C513.817 307.062 510.317 302.447 505.147 300.617C501.806 299.502 497.987 299.343 494.487 300.059C493.851 300.139 493.055 300.378 492.419 300.617C484.146 303.163 481.203 311.439 481.601 319.477C481.919 325.127 483.907 330.777 486.453 335.791C487.964 338.656 491.226 345.022 495.283 344.067C496.396 343.749 497.271 342.555 496.874 341.52C497.51 343.192 500.772 346.693 502.601 347.33C503.476 347.728 504.59 347.648 505.465 347.011C506.101 346.614 506.419 346.057 506.738 345.42C507.215 344.306 507.295 342.953 506.897 341.759C507.772 343.032 508.965 343.987 510.397 344.624C511.351 345.102 512.465 345.261 513.499 344.942C517.397 343.43 513.977 337.701 513.022 335.313C513.101 335.632 516.283 336.984 516.84 337.303C518.193 337.939 519.943 338.417 521.215 337.303C524.079 334.836 522.488 330.141 521.693 327.196C520.261 322.342 519.306 317.647 517.318 313.349Z" fill="#1D1D1D"/>
<path d="M446.993 298.308C459.403 274.514 515.643 284.621 538.951 296.08C546.667 299.9 567.19 311.36 574.19 316.453" stroke="#1D1D1D" stroke-width="2" stroke-miterlimit="10" stroke-linecap="round" stroke-linejoin="round"/>
<path d="M454.87 333.482C457.495 327.354 460.279 321.306 463.381 315.417C467.12 308.255 471.177 299.581 478.018 295.125C480.007 293.851 491.064 289.236 495.996 291.703C500.451 293.772 505.303 296 504.508 299.024C503.633 302.048 494.882 300.456 493.371 300.934C491.064 301.57 488.598 302.446 486.768 304.197C484.143 306.743 482.393 310.165 481.518 313.746C479.689 320.431 473.086 339.45 471.973 342.315C468.552 351.626 462.268 361.494 450.813 359.584C438.244 357.356 433.869 343.111 438.324 325.763C442.381 309.926 443.733 303.958 447.392 297.751" fill="white"/>
<path d="M454.87 333.482C457.495 327.354 460.279 321.306 463.381 315.417C467.12 308.255 471.177 299.581 478.018 295.125C480.007 293.851 491.064 289.236 495.996 291.703C500.451 293.772 505.303 296 504.508 299.024C503.633 302.048 494.882 300.456 493.371 300.934C491.064 301.57 488.598 302.446 486.768 304.197C484.143 306.743 482.393 310.165 481.518 313.746C479.689 320.431 473.086 339.45 471.973 342.315C468.552 351.626 462.268 361.494 450.813 359.584C438.244 357.356 433.869 343.111 438.324 325.763C442.381 309.926 443.733 303.958 447.392 297.751" stroke="#1D1D1D" stroke-width="2" stroke-miterlimit="10" stroke-linecap="round" stroke-linejoin="round"/>
<path d="M542.055 322.58L558.044 318.363" stroke="#1D1D1D" stroke-width="2" stroke-miterlimit="10" stroke-linecap="round" stroke-linejoin="round"/>
<path d="M483.585 354.971C483.585 354.971 485.574 350.196 493.926 345.898" stroke="#1D1D1D" stroke-width="2" stroke-miterlimit="10" stroke-linecap="round" stroke-linejoin="round"/>
<path d="M477.938 352.342C477.938 352.342 481.676 346.692 489.631 342.315" stroke="#1D1D1D" stroke-width="2" stroke-miterlimit="10" stroke-linecap="round" stroke-linejoin="round"/>
<path d="M485.337 299.343C485.973 298.945 489.235 297.513 490.985 297.752C494.087 298.07 496.474 300.139 495.758 301.094" stroke="#1D1D1D" stroke-width="2" stroke-miterlimit="10" stroke-linecap="round" stroke-linejoin="round"/>
<path d="M486.291 295.285C489.075 294.33 492.098 293.773 493.53 294.17C494.962 294.489 501.803 298.149 500.291 300.457" stroke="#1D1D1D" stroke-width="2" stroke-miterlimit="10" stroke-linecap="round" stroke-linejoin="round"/>
<path d="M719.361 112.73L610.54 105.567C608.074 105.408 606.085 103.26 606.244 100.713L611.256 29.6484C611.415 27.1814 613.563 25.2715 616.029 25.4307L724.85 32.5928C727.316 32.752 729.305 34.9006 729.146 37.4472L724.134 108.512C723.975 110.979 721.827 112.889 719.361 112.73Z" fill="white" stroke="#1D1D1D" stroke-width="2" stroke-miterlimit="10" stroke-linecap="round" stroke-linejoin="round"/>
<path d="M612.525 99.6007L617.457 31.5601L723.097 38.7222L718.245 106.604L612.525 99.6007Z" fill="#1D1D1D"/>
<path d="M632.809 44.2903L686.424 47.3939" stroke="white" stroke-width="2" stroke-miterlimit="10" stroke-linecap="round" stroke-linejoin="round"/>
<path d="M643.391 54.6362L673.142 56.5461" stroke="white" stroke-width="2" stroke-miterlimit="10" stroke-linecap="round" stroke-linejoin="round"/>
<path d="M642.915 64.3428L697.008 68.0034" stroke="white" stroke-width="2" stroke-miterlimit="10" stroke-linecap="round" stroke-linejoin="round"/>
<path d="M630.743 73.1772L675.29 76.44" stroke="white" stroke-width="2" stroke-miterlimit="10" stroke-linecap="round" stroke-linejoin="round"/>
<path d="M641.883 83.762L688.498 87.3431" stroke="white" stroke-width="2" stroke-miterlimit="10" stroke-linecap="round" stroke-linejoin="round"/>
<path d="M597.892 91.4033L606.881 74.5325L625.733 76.4424C625.813 76.9199 621.995 93.2337 621.995 93.2337" fill="white"/>
<path d="M597.892 91.4033L606.881 74.5325L625.733 76.4424C625.813 76.9199 621.995 93.2337 621.995 93.2337" stroke="#1D1D1D" stroke-width="2" stroke-miterlimit="10" stroke-linecap="round" stroke-linejoin="round"/>
<path d="M625.574 39.1985C635.756 42.6204 638.302 53.6024 636.074 62.9132C636.711 63.7886 643.472 67.9267 643.472 67.9267C643.472 67.9267 639.177 74.134 636.313 78.1925C632.574 83.6039 629.313 86.3892 621.756 84.5589C621.756 84.5589 613.006 80.5003 608.551 73.0198C604.017 65.6189 606.88 50.5784 606.88 50.5784L625.574 39.1985Z" fill="white" stroke="#1D1D1D" stroke-width="2" stroke-miterlimit="10" stroke-linecap="round" stroke-linejoin="round"/>
<path d="M632.654 60.8426C632.972 58.8532 631.063 57.8186 630.029 59.7285C629.552 60.5243 629.393 61.3997 629.393 62.2751C629.393 62.8321 629.472 63.3892 629.87 63.7075C630.506 64.185 631.381 63.5483 631.859 63.0709C632.177 62.2751 632.495 61.5589 632.654 60.8426Z" fill="#1D1D1D"/>
<path d="M626.291 54.6353C626.291 54.6353 629.632 53.0438 633.052 53.7599" stroke="#1D1D1D" stroke-width="2" stroke-miterlimit="10" stroke-linecap="round" stroke-linejoin="round"/>
<path d="M668.531 154.031C668.531 154.031 659.144 115.673 656.36 109.387C651.985 99.5984 645.382 97.6089 637.984 95.699C635.916 95.1419 591.369 89.8897 581.267 90.0488C581.267 90.0488 567.584 87.741 561.857 100.633C558.595 107.795 556.209 115.116 556.209 115.116" fill="white"/>
<path d="M668.531 154.031C668.531 154.031 659.144 115.673 656.36 109.387C651.985 99.5984 645.382 97.6089 637.984 95.699C635.916 95.1419 591.369 89.8897 581.267 90.0488C581.267 90.0488 567.584 87.741 561.857 100.633C558.595 107.795 556.209 115.116 556.209 115.116" stroke="#1D1D1D" stroke-width="2" stroke-miterlimit="10" stroke-linecap="round" stroke-linejoin="round"/>
<path d="M619.295 59.0922C618.182 60.3654 617.307 58.2168 615.238 57.1027C609.988 54.2378 605.693 61.3204 607.522 65.7769C608.397 68.0847 611.181 69.2784 613.17 70.6312C620.329 75.406 627.25 80.5787 632.58 87.4225C639.023 95.858 648.489 108.352 641.569 119.414C638.307 124.586 630.432 126.655 625.898 122.676C627.807 124.268 621.284 133.181 620.091 134.295C617.307 137.08 614.841 138.035 611.102 137.956C602.352 137.876 596.067 131.51 599.806 122.676C597.261 128.963 584.374 125.462 581.431 121.642C575.146 113.525 580.317 102.224 582.942 93.9481C587.238 80.897 589.544 67.448 591.692 53.9195C593.204 44.6087 602.193 36.2528 611.341 34.9795C616.273 34.3429 624.068 34.8999 628.125 38.4014C629.398 40.0726 620.489 57.978 619.295 59.0922Z" fill="#1D1D1D" stroke="#1D1D1D" stroke-width="2" stroke-miterlimit="10" stroke-linecap="round" stroke-linejoin="round"/>
<path d="M632.414 72.623C633.528 73.6576 635.675 74.6125 637.187 74.6125" stroke="#1D1D1D" stroke-width="2" stroke-miterlimit="10" stroke-linecap="round" stroke-linejoin="round"/>
<path d="M743.544 222.149C740.713 230.679 639.495 225.253 634.882 219.842C628.756 212.679 631.541 202.414 633.609 194.296C635.836 185.702 643.155 159.281 647.291 153.313C654.928 143.047 667.735 145.116 679.269 145.116C685.554 145.116 708.543 135.567 708.543 135.567L709.179 146.867L732.01 148.299C732.01 148.299 751.022 148.856 751.738 165.409C752.215 177.426 750.067 217.852 743.544 222.149Z" fill="#FFF1D1" stroke="#1D1D1D" stroke-width="2" stroke-miterlimit="10" stroke-linecap="round" stroke-linejoin="round"/>
<path d="M683.328 116.707C682.055 116.23 679.828 115.912 678.714 115.912C676.487 115.912 672.907 118.538 672.35 123.631C671.952 126.894 672.827 131.032 675.771 132.942C677.362 133.897 679.271 134.295 681.1 134.056" fill="#FFF1D1"/>
<path d="M683.328 116.707C682.055 116.23 679.828 115.912 678.714 115.912C676.487 115.912 672.907 118.538 672.35 123.631C671.952 126.894 672.827 131.032 675.771 132.942C677.362 133.897 679.271 134.295 681.1 134.056" stroke="#1D1D1D" stroke-width="2" stroke-miterlimit="10" stroke-linecap="round" stroke-linejoin="round"/>
<path d="M687.389 150.528C697.014 157.292 705.207 143.604 707.276 135.805C710.378 123.789 712.208 110.738 702.98 104.849C695.821 100.233 685.082 103.576 680.786 112.091C678.002 117.582 677.684 121.64 678.479 130.712C679.195 137.636 681.502 146.23 687.389 150.528Z" fill="#FFF1D1" stroke="#1D1D1D" stroke-width="2" stroke-miterlimit="10" stroke-linecap="round" stroke-linejoin="round"/>
<path d="M679.189 135.09C679.109 138.034 679.189 146.708 680.461 151.722C681.575 156.337 685.473 158.884 690.246 158.168C701.303 156.576 706.156 144.321 708.622 135.01C706.792 136.363 701.621 138.352 699.871 139.705C699.871 139.705 693.746 137.318 687.7 140.262C682.212 136.442 679.189 135.09 679.189 135.09Z" fill="#1D1D1D" stroke="#1D1D1D" stroke-width="2" stroke-miterlimit="10" stroke-linecap="round" stroke-linejoin="round"/>
<path d="M688.42 130.076C687.545 134.373 685.317 138.591 685.317 138.591" stroke="#1D1D1D" stroke-width="2" stroke-miterlimit="10" stroke-linecap="round" stroke-linejoin="round"/>
<path d="M685.236 142.412C685.793 143.049 688.975 145.038 693.828 142.094" stroke="#FFF1D1" stroke-width="2" stroke-miterlimit="10" stroke-linecap="round" stroke-linejoin="round"/>
<path d="M694.548 127.848C694.469 127.927 694.389 128.166 694.23 128.325C693.753 129.121 693.912 130.633 694.628 131.349C695.344 132.066 696.616 131.747 697.014 130.872C697.491 130.235 697.173 128.644 696.696 127.848C696.219 126.972 695.105 127.291 694.548 127.848Z" fill="#1D1D1D"/>
<path d="M682.055 127.848C681.975 127.927 681.896 128.166 681.737 128.325C681.259 129.121 681.339 130.633 682.134 131.349C682.771 131.986 684.123 131.747 684.521 130.872C684.998 130.235 684.68 128.644 684.203 127.848C683.885 126.972 682.691 127.291 682.055 127.848Z" fill="#1D1D1D"/>
<path d="M710.852 117.263C708.386 102.78 695.579 96.8115 685.317 103.178C679.669 106.6 679.351 113.125 678.953 117.741C679.033 116.308 682.215 106.759 690.567 107.157C693.829 107.316 701.704 108.271 705.522 120.128C705.681 119.89 709.659 117.9 710.852 117.263Z" fill="#FFF1D1" stroke="#1D1D1D" stroke-width="2" stroke-miterlimit="10" stroke-linecap="round" stroke-linejoin="round"/>
<path d="M714.192 118.617C712.919 118.139 710.692 117.821 709.578 117.821C707.351 117.821 703.771 120.447 703.214 125.54C702.817 128.803 703.692 132.941 706.635 134.851C708.226 135.806 710.135 136.204 711.965 135.965" fill="#FFF1D1"/>
<path d="M714.192 118.617C712.919 118.139 710.692 117.821 709.578 117.821C707.351 117.821 703.771 120.447 703.214 125.54C702.817 128.803 703.692 132.941 706.635 134.851C708.226 135.806 710.135 136.204 711.965 135.965" stroke="#1D1D1D" stroke-width="2" stroke-miterlimit="10" stroke-linecap="round" stroke-linejoin="round"/>
<path d="M716.738 133.101C714.828 135.966 710.93 137.319 708.942 133.897C707.51 131.589 707.112 128.167 707.351 125.541C707.51 123.074 708.783 119.811 711.169 118.697C714.272 117.185 716.499 119.97 717.613 122.597C719.124 126.018 718.806 130.077 716.738 133.101Z" fill="#FFF1D1" stroke="#1D1D1D" stroke-width="2" stroke-miterlimit="10" stroke-linecap="round" stroke-linejoin="round"/>
<path d="M719.759 222.15C719.759 222.15 683.803 180.609 681.576 178.54C680.223 177.187 677.041 174.561 678.314 172.333C678.394 172.174 679.189 171.059 679.348 171.457C678.712 170.343 678.075 169.388 678.712 168.115C679.03 167.478 679.746 166.683 680.541 167.001C679.905 165.966 678.951 163.261 681.973 162.385C681.178 160.316 676.246 150.607 681.814 150.607C682.848 150.607 683.485 152.119 683.803 153.074C684.678 155.143 685.633 157.531 686.746 159.441C688.019 161.51 691.44 166.683 694.462 165.807C697.087 165.011 696.849 159.918 697.485 157.61C698.519 153.313 700.508 153.393 701.383 153.87C702.735 154.507 702.019 158.406 702.178 161.112C702.656 167.399 703.769 170.423 702.576 176.789L736.623 201.777" fill="#FFF1D1"/>
<path d="M719.759 222.15C719.759 222.15 683.803 180.609 681.576 178.54C680.223 177.187 677.041 174.561 678.314 172.333C678.394 172.174 679.189 171.059 679.348 171.457C678.712 170.343 678.075 169.388 678.712 168.115C679.03 167.478 679.746 166.683 680.541 167.001C679.905 165.966 678.951 163.261 681.973 162.385C681.178 160.316 676.246 150.607 681.814 150.607C682.848 150.607 683.485 152.119 683.803 153.074C684.678 155.143 685.633 157.531 686.746 159.441C688.019 161.51 691.44 166.683 694.462 165.807C697.087 165.011 696.849 159.918 697.485 157.61C698.519 153.313 700.508 153.393 701.383 153.87C702.735 154.507 702.019 158.406 702.178 161.112C702.656 167.399 703.769 170.423 702.576 176.789L736.623 201.777" stroke="#1D1D1D" stroke-width="2" stroke-miterlimit="10" stroke-linecap="round" stroke-linejoin="round"/>
<path d="M679.985 157.372C679.985 157.293 680.781 160.635 684.52 166.524" stroke="#1D1D1D" stroke-width="2" stroke-miterlimit="10" stroke-linecap="round" stroke-linejoin="round"/>
<path d="M680.461 166.761C680.461 166.761 680.859 167.398 681.734 168.751" stroke="#1D1D1D" stroke-width="2" stroke-miterlimit="10" stroke-linecap="round" stroke-linejoin="round"/>
<path d="M679.907 149.016C680.066 149.971 680.305 151.005 680.464 151.801C681.578 156.417 685.476 158.963 690.248 158.247L679.907 149.016Z" fill="#1D1D1D" stroke="#1D1D1D" stroke-width="2" stroke-miterlimit="10" stroke-linecap="round" stroke-linejoin="round"/>
<path d="M697.566 230.667H634.246L621.916 188.569C621.598 187.694 622.394 186.659 623.269 186.659H683.645C684.282 186.659 684.759 187.137 684.998 187.694L697.566 230.667Z" fill="#FFF1D1" stroke="#1D1D1D" stroke-width="2" stroke-miterlimit="10" stroke-linecap="round" stroke-linejoin="round"/>
<path d="M740.203 226.451H696.372L697.565 230.668H741.476L740.203 226.451Z" fill="#FFF1D1" stroke="#1D1D1D" stroke-width="2" stroke-miterlimit="10" stroke-linecap="round" stroke-linejoin="round"/>
<path d="M714.12 278.175L729.791 229.313L738.86 225.811L755.167 234.804L749.678 244.035L746.258 257.564C749.599 258.598 755.644 259.633 759.383 266.556C760.974 269.5 762.167 272.684 763.679 278.095C766.701 288.679 770.679 303.799 772.667 311.121" fill="white"/>
<path d="M714.12 278.175L729.791 229.313L738.86 225.811L755.167 234.804L749.678 244.035L746.258 257.564C749.599 258.598 755.644 259.633 759.383 266.556C760.974 269.5 762.167 272.684 763.679 278.095C766.701 288.679 770.679 303.799 772.667 311.121" stroke="#1D1D1D" stroke-width="2" stroke-miterlimit="10" stroke-linecap="round" stroke-linejoin="round"/>
<path d="M756.68 201.858C756.68 201.858 763.999 205.121 764.078 213.397C764.158 218.252 762.169 223.663 762.169 223.663L769.567 229.552C769.567 229.552 765.908 233.77 764.158 236.714C761.612 240.932 760.499 245.229 757.476 246.821C753.26 249.049 749.044 245.786 745.544 243.717C742.441 241.807 739.657 239.818 738.782 235.998C738.623 235.202 738.146 232.735 738.146 229.552C738.146 229.552 733.691 232.815 729.475 229.552C725.179 226.289 726.85 218.491 732.736 217.934C738.862 217.376 739.975 221.196 741.725 223.265C743.396 225.334 745.146 225.255 744.987 222.708C744.828 219.446 743.873 205.201 756.68 201.858Z" fill="white" stroke="#1D1D1D" stroke-width="2" stroke-miterlimit="10" stroke-linecap="round" stroke-linejoin="round"/>
<path d="M757.473 232.815C757.473 232.815 760.018 236.078 764.234 236.874" stroke="#1D1D1D" stroke-width="2" stroke-miterlimit="10" stroke-linecap="round" stroke-linejoin="round"/>
<path d="M755.722 221.274C755.563 222.229 756.359 223.264 757.393 223.104C757.95 223.025 758.348 222.547 758.666 222.15C758.984 221.752 759.143 221.195 759.223 220.638C759.382 219.364 758.666 218.33 757.393 218.807C756.279 219.205 755.961 220.24 755.722 221.274Z" fill="#1D1D1D"/>
<path d="M754.687 215.227C756.675 214.909 759.062 214.75 760.812 215.864" stroke="#1D1D1D" stroke-width="2" stroke-miterlimit="10" stroke-linecap="round" stroke-linejoin="round"/>
<path d="M743.472 192.707C728.596 193.184 722.471 198.039 719.289 200.506C717.46 201.938 715.948 203.609 714.516 205.44C711.175 209.657 707.357 216.422 715.55 217.536C712.528 217.058 712.05 229.473 719.528 225.733C718.096 227.165 718.176 229.632 719.21 231.224C720.085 232.497 721.119 232.497 722.471 232.815C722.551 232.815 722.789 232.895 722.869 232.974C723.028 233.133 723.028 233.452 722.948 233.611C722.312 237.112 723.823 239.102 726.21 241.41C726.289 241.489 726.369 241.569 726.528 241.569C726.608 241.569 726.846 241.489 726.846 241.41C729.074 238.147 730.824 234.168 731.858 230.348C731.699 230.985 728.596 228.677 728.437 228.359C727.403 227.085 726.846 225.255 727.085 223.663C727.88 219.446 733.21 216.501 737.187 217.775C740.449 218.889 740.926 223.743 743.87 224.937C747.767 226.369 744.506 217.058 750.711 208.066C753.813 203.45 758.984 204.644 760.018 203.53C760.416 198.596 754.847 192.468 743.472 192.707Z" fill="#1D1D1D"/>
<path d="M811.723 248.732C812.359 248.414 813.234 248.573 813.95 248.891C814.587 249.209 815.303 249.687 815.859 250.244C817.291 251.597 817.45 253.586 817.212 255.496C816.655 259.316 814.427 263.772 812.28 266.956C809.973 270.218 803.132 273.879 797.643 274.516C797.643 274.516 794.62 288.044 786.108 298.071C787.62 286.851 787.381 268.149 787.938 265.523C789.29 258.281 790.802 256.69 793.665 252.233L811.723 248.732Z" fill="white" stroke="#1D1D1D" stroke-width="2" stroke-miterlimit="10" stroke-linecap="round" stroke-linejoin="round"/>
<path d="M804.88 234.646L816.335 236.317C816.812 236.397 816.971 236.874 816.971 237.193L808.38 266.876C808.3 267.274 807.902 267.513 807.584 267.433L795.97 265.443C795.493 265.364 795.334 264.886 795.334 264.568L804.084 235.203C804.164 234.805 804.562 234.567 804.88 234.646Z" fill="#1D1D1D" stroke="#1D1D1D" stroke-width="2" stroke-miterlimit="10" stroke-linecap="round" stroke-linejoin="round"/>
<path d="M793.663 251.994C795.095 249.925 796.686 247.936 798.675 246.185C799.629 245.389 801.141 244.593 802.175 245.389C802.97 246.026 803.05 247.22 802.811 248.254C802.016 252.472 796.925 255.575 796.527 259.873" fill="white"/>
<path d="M793.663 251.994C795.095 249.925 796.686 247.936 798.675 246.185C799.629 245.389 801.141 244.593 802.175 245.389C802.97 246.026 803.05 247.22 802.811 248.254C802.016 252.472 796.925 255.575 796.527 259.873" stroke="#1D1D1D" stroke-width="2" stroke-miterlimit="10" stroke-linecap="round" stroke-linejoin="round"/>
<path d="M805.917 267.593C804.883 267.036 804.485 266.001 804.485 265.205C804.485 263.693 805.28 262.977 806.712 262.738C805.439 261.863 804.326 260.192 805.201 258.839C805.519 258.441 806.314 257.964 807.428 258.202C806.792 257.407 806.155 256.69 806.155 255.576C806.155 254.701 806.633 253.905 807.428 253.587C808.86 252.95 810.292 253.189 811.803 253.666C811.167 253.03 810.53 251.836 810.451 251.199C810.371 250.244 810.849 249.289 811.883 248.971C812.519 248.653 813.394 248.812 814.11 249.13C814.746 249.449 815.462 249.926 816.019 250.483C817.451 251.836 817.61 253.825 817.372 255.735C816.815 259.555 814.826 264.171 812.44 267.195C810.61 269.503 804.803 273.88 797.803 274.755" fill="white"/>
<path d="M805.917 267.593C804.883 267.036 804.485 266.001 804.485 265.205C804.485 263.693 805.28 262.977 806.712 262.738C805.439 261.863 804.326 260.192 805.201 258.839C805.519 258.441 806.314 257.964 807.428 258.202C806.792 257.407 806.155 256.69 806.155 255.576C806.155 254.701 806.633 253.905 807.428 253.587C808.86 252.95 810.292 253.189 811.803 253.666C811.167 253.03 810.53 251.836 810.451 251.199C810.371 250.244 810.849 249.289 811.883 248.971C812.519 248.653 813.394 248.812 814.11 249.13C814.746 249.449 815.462 249.926 816.019 250.483C817.451 251.836 817.61 253.825 817.372 255.735C816.815 259.555 814.826 264.171 812.44 267.195C810.61 269.503 804.803 273.88 797.803 274.755" stroke="#1D1D1D" stroke-width="2" stroke-miterlimit="10" stroke-linecap="round" stroke-linejoin="round"/>
<path d="M806.555 262.737C808.543 262.658 810.93 264.17 812.68 265.682" stroke="#1D1D1D" stroke-width="2" stroke-miterlimit="10" stroke-linecap="round" stroke-linejoin="round"/>
<path d="M807.35 258.122C810.372 258.52 813.952 260.032 815.304 261.385" stroke="#1D1D1D" stroke-width="2" stroke-miterlimit="10" stroke-linecap="round" stroke-linejoin="round"/>
<path d="M810.609 253.108C813.394 254.063 815.541 255.655 816.973 256.849" stroke="#1D1D1D" stroke-width="2" stroke-miterlimit="10" stroke-linecap="round" stroke-linejoin="round"/>
<path d="M720.163 259.95C722.39 260.03 725.811 260.826 727.879 261.383C736.55 263.452 740.766 269.818 743.152 278.174C746.414 289.315 751.744 313.985 752.937 320.351" stroke="#1D1D1D" stroke-width="2" stroke-miterlimit="10" stroke-linecap="round" stroke-linejoin="round"/>
<path d="M786.267 208.94L806.393 212.521L802.575 227.323L782.449 223.662L786.267 208.94Z" fill="white" stroke="#1D1D1D" stroke-width="2" stroke-miterlimit="10" stroke-linecap="round" stroke-linejoin="round"/>
<path d="M806.392 212.522L793.743 218.491L786.902 209.976" stroke="#1D1D1D" stroke-width="2" stroke-miterlimit="10" stroke-linecap="round" stroke-linejoin="round"/>
<path d="M808.86 206.714C807.269 206.635 805.599 207.033 804.485 208.067C802.497 209.898 802.576 213.32 804.485 215.23C807.11 218.015 812.44 216.582 813.554 213.16C814.508 209.738 812.201 206.874 808.86 206.714Z" fill="white" stroke="#1D1D1D" stroke-width="2" stroke-miterlimit="10" stroke-linecap="round" stroke-linejoin="round"/>
<path d="M808.781 210.135C808.383 211.169 807.985 212.363 807.667 213.397" stroke="#1D1D1D" stroke-width="2" stroke-miterlimit="10" stroke-linecap="round" stroke-linejoin="round"/>
<path d="M461.316 120.369C461.316 120.369 461.396 136.206 460.839 141.697C460.68 143.527 457.975 145.915 451.771 146.71C444.214 147.745 441.509 144.721 441.111 143.686C441.111 143.686 436.259 123.314 436.259 122.916" fill="white"/>
<path d="M461.316 120.369C461.316 120.369 461.396 136.206 460.839 141.697C460.68 143.527 457.975 145.915 451.771 146.71C444.214 147.745 441.509 144.721 441.111 143.686C441.111 143.686 436.259 123.314 436.259 122.916" stroke="#1D1D1D" stroke-width="2" stroke-miterlimit="10" stroke-linecap="round" stroke-linejoin="round"/>
<path d="M460.282 122.836C459.884 123.234 459.486 123.473 458.929 123.791C453.043 126.895 444.611 128.327 438.486 125.383C437.849 125.064 437.452 124.746 436.974 124.428C434.906 122.359 436.656 119.255 439.758 117.982C445.247 115.594 452.963 114.639 458.532 117.186C459.407 117.663 460.123 118.141 460.52 118.778C461.475 120.051 461.475 121.642 460.282 122.836Z" fill="white" stroke="#1D1D1D" stroke-width="2" stroke-miterlimit="10" stroke-linecap="round" stroke-linejoin="round"/>
<path d="M477.705 186.738C465.773 176.552 460.841 159.124 460.841 159.124C459.807 155.065 453.682 154.11 448.352 152.518C446.681 152.041 442.545 150.927 441.431 149.097C440.954 148.46 440.954 147.266 441.75 146.709C438.488 146.311 437.772 143.924 439.761 142.253C436.022 140.741 436.658 137.319 438.488 137.557C438.09 137.478 436.022 136.045 436.579 134.215C436.977 133.101 438.408 132.783 439.443 132.783C441.67 132.703 443.818 133.658 445.886 134.295C449.227 135.25 452.727 135.727 456.227 135.886C457.102 135.966 458.057 135.966 458.773 135.568C461.239 134.613 461.239 130.077 461.239 128.804C462.671 130.077 467.125 135.409 468.875 138.035C473.171 144.322 481.603 169.946 485.183 180.451" fill="white"/>
<path d="M477.705 186.738C465.773 176.552 460.841 159.124 460.841 159.124C459.807 155.065 453.682 154.11 448.352 152.518C446.681 152.041 442.545 150.927 441.431 149.097C440.954 148.46 440.954 147.266 441.75 146.709C438.488 146.311 437.772 143.924 439.761 142.253C436.022 140.741 436.658 137.319 438.488 137.557C438.09 137.478 436.022 136.045 436.579 134.215C436.977 133.101 438.408 132.783 439.443 132.783C441.67 132.703 443.818 133.658 445.886 134.295C449.227 135.25 452.727 135.727 456.227 135.886C457.102 135.966 458.057 135.966 458.773 135.568C461.239 134.613 461.239 130.077 461.239 128.804C462.671 130.077 467.125 135.409 468.875 138.035C473.171 144.322 481.603 169.946 485.183 180.451" stroke="#1D1D1D" stroke-width="2" stroke-miterlimit="10" stroke-linecap="round" stroke-linejoin="round"/>
<path d="M438.243 137.558C440.63 138.991 448.743 140.184 452.244 140.423" stroke="#1D1D1D" stroke-width="2" stroke-miterlimit="10" stroke-linecap="round" stroke-linejoin="round"/>
<path d="M439.52 142.254C441.19 143.05 449.145 144.482 451.293 144.482" stroke="#1D1D1D" stroke-width="2" stroke-miterlimit="10" stroke-linecap="round" stroke-linejoin="round"/>
<path d="M441.589 146.709C445.089 147.346 446.998 147.744 450.021 148.301" stroke="#1D1D1D" stroke-width="2" stroke-miterlimit="10" stroke-linecap="round" stroke-linejoin="round"/>
<path d="M476.747 114.002C476.747 114.002 474.759 107.716 473.009 102.782C471.179 97.8478 473.963 96.3358 476.747 96.8928C479.611 97.4499 483.111 109.466 487.566 112.888C492.021 116.231 493.85 120.767 493.85 120.767L503.873 151.644" fill="white"/>
<path d="M476.747 114.002C476.747 114.002 474.759 107.716 473.009 102.782C471.179 97.8478 473.963 96.3358 476.747 96.8928C479.611 97.4499 483.111 109.466 487.566 112.888C492.021 116.231 493.85 120.767 493.85 120.767L503.873 151.644" stroke="#1D1D1D" stroke-width="2" stroke-miterlimit="10" stroke-linecap="round" stroke-linejoin="round"/>
<path d="M495.838 126.814C492.497 117.026 490.031 107.874 486.849 103.02C484.462 102.622 482.076 102.224 479.689 101.905C477.701 101.508 475.712 101.269 473.803 100.951C471.814 100.553 469.984 99.5977 468.473 98.3244C467.518 97.5286 466.643 96.4941 465.927 95.6983C464.814 94.2658 462.586 90.6848 460.2 91.0827C457.336 91.5601 458.53 95.38 459.245 97.0511C459.882 98.6427 460.757 100.075 461.711 101.508C462.109 101.985 464.973 106.123 465.45 105.964C463.939 106.601 462.905 107.317 462.348 108.988C461.871 110.341 461.95 111.933 462.746 113.206C464.018 115.275 465.132 117.264 466.803 119.095C469.746 122.039 475.235 124.745 479.689 125.541L488.042 153.155" fill="white"/>
<path d="M495.838 126.814C492.497 117.026 490.031 107.874 486.849 103.02C484.462 102.622 482.076 102.224 479.689 101.905C477.701 101.508 475.712 101.269 473.803 100.951C471.814 100.553 469.984 99.5977 468.473 98.3244C467.518 97.5286 466.643 96.4941 465.927 95.6983C464.814 94.2658 462.586 90.6848 460.2 91.0827C457.336 91.5601 458.53 95.38 459.245 97.0511C459.882 98.6427 460.757 100.075 461.711 101.508C462.109 101.985 464.973 106.123 465.45 105.964C463.939 106.601 462.905 107.317 462.348 108.988C461.871 110.341 461.95 111.933 462.746 113.206C464.018 115.275 465.132 117.264 466.803 119.095C469.746 122.039 475.235 124.745 479.689 125.541L488.042 153.155" stroke="#1D1D1D" stroke-width="2" stroke-miterlimit="10" stroke-linecap="round" stroke-linejoin="round"/>
<path d="M474.042 84.1584L461.553 86.1479C461.075 86.2275 460.757 86.705 460.916 87.1825L471.099 119.81C471.178 120.208 471.655 120.447 471.974 120.367L484.701 117.9C485.179 117.821 485.497 117.264 485.338 116.866L474.996 84.6359C474.758 84.3176 474.44 84.1584 474.042 84.1584Z" fill="#1D1D1D" stroke="#1D1D1D" stroke-width="2" stroke-miterlimit="10" stroke-linecap="round" stroke-linejoin="round"/>
<path d="M486.929 103.019C485.338 100.711 483.509 98.5623 481.122 96.8115C480.009 95.9362 478.338 95.1404 477.224 96.0157C476.349 96.6524 476.27 98.0053 476.588 99.1194C477.543 103.735 483.19 107.237 483.747 111.773" fill="white"/>
<path d="M486.929 103.019C485.338 100.711 483.509 98.5623 481.122 96.8115C480.009 95.9362 478.338 95.1404 477.224 96.0157C476.349 96.6524 476.27 98.0053 476.588 99.1194C477.543 103.735 483.19 107.237 483.747 111.773" stroke="#1D1D1D" stroke-width="2" stroke-miterlimit="10" stroke-linecap="round" stroke-linejoin="round"/>
<path d="M474.362 120.289C474.999 119.652 475.237 118.777 475.237 117.902C475.237 116.231 474.283 115.514 472.771 115.116C474.203 114.161 475.317 112.172 474.362 110.74C474.044 110.342 473.09 109.864 471.896 109.944C472.692 108.989 473.249 108.273 473.249 106.999C473.249 106.044 472.692 105.089 471.817 104.771C469.828 103.896 467.283 104.93 465.373 105.806C459.169 108.67 463.703 115.435 466.964 118.698C469.908 121.642 472.215 123.313 476.669 124.189" fill="white"/>
<path d="M474.362 120.289C474.999 119.652 475.237 118.777 475.237 117.902C475.237 116.231 474.283 115.514 472.771 115.116C474.203 114.161 475.317 112.172 474.362 110.74C474.044 110.342 473.09 109.864 471.896 109.944C472.692 108.989 473.249 108.273 473.249 106.999C473.249 106.044 472.692 105.089 471.817 104.771C469.828 103.896 467.283 104.93 465.373 105.806C459.169 108.67 463.703 115.435 466.964 118.698C469.908 121.642 472.215 123.313 476.669 124.189" stroke="#1D1D1D" stroke-width="2" stroke-miterlimit="10" stroke-linecap="round" stroke-linejoin="round"/>
<path d="M472.845 115.115C469.902 115.433 467.038 117.104 466.879 118.219" stroke="#1D1D1D" stroke-width="2" stroke-miterlimit="10" stroke-linecap="round" stroke-linejoin="round"/>
<path d="M471.813 110.022C468.552 110.58 463.859 112.41 463.143 113.365" stroke="#1D1D1D" stroke-width="2" stroke-miterlimit="10" stroke-linecap="round" stroke-linejoin="round"/>
<path d="M477.7 186.739C484.382 165.968 491.144 138.513 495.598 127.531C500.61 115.276 515.645 115.356 525.111 113.923L521.054 104.215C517.792 106.841 516.599 108.432 511.985 107.875C507.928 107.318 495.678 96.3362 495.678 96.3362C495.678 96.3362 499.576 89.572 500.61 87.5029C498.621 84.2401 497.11 80.7386 496.712 76.9984C496.235 73.2581 497.11 69.2791 499.337 66.3347C502.837 61.6395 508.167 57.8197 514.054 56.7056C532.986 53.3632 541.657 73.0194 536.963 89.0149C540.066 97.4503 542.929 105.567 546.032 111.138C553.191 110.501 560.032 109.149 565.839 111.775C571.487 114.242 572.442 121.404 572.124 126.497C571.646 135.569 566.635 157.294 566.635 157.294" fill="white"/>
<path d="M477.7 186.739C484.382 165.968 491.144 138.513 495.598 127.531C500.61 115.276 515.645 115.356 525.111 113.923L521.054 104.215C517.792 106.841 516.599 108.432 511.985 107.875C507.928 107.318 495.678 96.3362 495.678 96.3362C495.678 96.3362 499.576 89.572 500.61 87.5029C498.621 84.2401 497.11 80.7386 496.712 76.9984C496.235 73.2581 497.11 69.2791 499.337 66.3347C502.837 61.6395 508.167 57.8197 514.054 56.7056C532.986 53.3632 541.657 73.0194 536.963 89.0149C540.066 97.4503 542.929 105.567 546.032 111.138C553.191 110.501 560.032 109.149 565.839 111.775C571.487 114.242 572.442 121.404 572.124 126.497C571.646 135.569 566.635 157.294 566.635 157.294" stroke="#1D1D1D" stroke-width="2" stroke-miterlimit="10" stroke-linecap="round" stroke-linejoin="round"/>
<path d="M497.666 69.28C507.689 70.5533 510.632 79.5458 513.973 87.5833C514.769 83.9226 517.235 80.6599 521.133 80.5803C525.19 80.5007 528.372 84.4797 527.735 88.3791C527.258 90.4482 525.746 92.1193 523.758 92.9947C527.258 93.8701 536.804 92.5172 538.076 91.1644C538.076 91.1644 543.247 75.5668 536.088 64.1073C529.326 53.2845 519.701 53.1253 513.894 54.4782C497.507 58.4571 497.666 69.28 497.666 69.28Z" fill="#1D1D1D" stroke="#1D1D1D" stroke-width="2" stroke-miterlimit="10" stroke-linecap="round" stroke-linejoin="round"/>
<path d="M502.441 101.509C504.43 100.634 506.101 99.1216 507.135 97.2117" stroke="#1D1D1D" stroke-width="2" stroke-miterlimit="10" stroke-linecap="round" stroke-linejoin="round"/>
<path d="M503.158 86.1492C503.635 86.7858 504.112 87.1837 504.669 87.4225C504.987 87.502 505.306 87.502 505.544 87.3429C505.942 87.1837 506.101 86.7062 506.181 86.3083C506.34 84.7963 505.226 83.2843 503.635 83.523C503.237 83.523 502.999 83.6822 502.76 84.0801C502.362 84.5576 502.601 85.5125 503.158 86.1492Z" fill="#1D1D1D"/>
<path d="M497.666 78.2721C500.45 77.3968 502.121 78.113 504.348 78.9088" stroke="#1D1D1D" stroke-width="2" stroke-miterlimit="10" stroke-linecap="round" stroke-linejoin="round"/>
<path d="M531.078 50.2597C528.85 54.7958 524.157 57.4219 519.066 56.6261C516.282 56.2282 513.657 55.6712 511.509 53.7612C509.998 52.4084 508.884 50.6576 508.645 48.7477C508.248 45.8032 509.998 42.8588 512.384 41.108C514.771 39.2777 517.714 38.5615 520.657 38.1636C521.214 38.084 521.691 38.084 522.328 38.084C522.964 38.084 523.441 38.1636 523.998 38.4023C526.066 38.8798 528.373 39.6756 529.885 41.1876C532.112 43.4954 532.51 47.3152 531.078 50.2597Z" fill="#1D1D1D" stroke="#1D1D1D" stroke-width="2" stroke-miterlimit="10" stroke-linecap="round" stroke-linejoin="round"/>
<path d="M516.919 263.372C516.919 263.372 507.532 264.009 501.566 263.85C504.669 244.353 514.055 222.309 534.022 204.881C554.466 187.135 556.693 170.98 561.227 162.465C565.762 153.95 574.75 153.075 574.75 153.075C574.75 153.075 596.069 147.902 595.512 178.381" fill="#1D1D1D"/>
<path d="M516.919 263.372C516.919 263.372 507.532 264.009 501.566 263.85C504.669 244.353 514.055 222.309 534.022 204.881C554.466 187.135 556.693 170.98 561.227 162.465C565.762 153.95 574.75 153.075 574.75 153.075C574.75 153.075 596.069 147.902 595.512 178.381" stroke="#1D1D1D" stroke-width="2" stroke-miterlimit="10" stroke-linecap="round" stroke-linejoin="round"/>
<path d="M560.673 250.083C560.673 250.083 553.514 277.777 547.627 291.783C543.411 301.731 534.422 305.789 525.195 302.845C509.285 297.831 514.615 274.435 516.763 263.453C518.831 252.391 522.172 241.568 525.115 230.666C527.9 220.639 532.434 218.013 536.729 216.819C539.354 216.182 554.787 215.148 558.605 213.954C562.423 212.84 563.617 211.01 564.332 208.622C565.207 205.2 567.117 194.935 567.117 194.935L587.481 202.733C587.481 202.733 585.651 210.93 584.458 214.989C589.39 215.307 594.242 215.546 599.333 215.944C602.834 216.342 606.97 216.501 610.152 218.172C616.595 221.514 619.459 229.95 621.289 236.475C623.277 243.399 629.562 265.522 636.244 288.6" fill="white"/>
<path d="M560.673 250.083C560.673 250.083 553.514 277.777 547.627 291.783C543.411 301.731 534.422 305.789 525.195 302.845C509.285 297.831 514.615 274.435 516.763 263.453C518.831 252.391 522.172 241.568 525.115 230.666C527.9 220.639 532.434 218.013 536.729 216.819C539.354 216.182 554.787 215.148 558.605 213.954C562.423 212.84 563.617 211.01 564.332 208.622C565.207 205.2 567.117 194.935 567.117 194.935L587.481 202.733C587.481 202.733 585.651 210.93 584.458 214.989C589.39 215.307 594.242 215.546 599.333 215.944C602.834 216.342 606.97 216.501 610.152 218.172C616.595 221.514 619.459 229.95 621.289 236.475C623.277 243.399 629.562 265.522 636.244 288.6" stroke="#1D1D1D" stroke-width="2" stroke-miterlimit="10" stroke-linecap="round" stroke-linejoin="round"/>
<path d="M522.811 284.463C531.879 262.896 545.482 238.863 545.482 238.863Z" fill="white"/>
<path d="M522.811 284.463C531.879 262.896 545.482 238.863 545.482 238.863" stroke="#1D1D1D" stroke-width="2" stroke-miterlimit="10" stroke-linecap="round" stroke-linejoin="round"/>
<path d="M574.436 159.68C574.834 161.59 569.664 174.323 565.05 182.281C558.686 175.039 551.447 180.848 554.868 186.737C559.641 195.332 565.209 189.841 565.209 189.841C565.209 189.841 569.266 204.722 580.641 204.881C591.937 205.2 595.676 191.591 595.596 178.302C595.437 178.302 588.119 171.458 574.436 159.68Z" fill="white" stroke="#1D1D1D" stroke-width="2" stroke-miterlimit="10" stroke-linecap="round" stroke-linejoin="round"/>
<path d="M580.478 181.007C580.478 181.007 581.75 188.965 582.944 191.75" stroke="#1D1D1D" stroke-width="2" stroke-miterlimit="10" stroke-linecap="round" stroke-linejoin="round"/>
<path d="M576.582 194.696C576.582 194.696 582.707 199.073 587.162 192.468" stroke="#1D1D1D" stroke-width="2" stroke-miterlimit="10" stroke-linecap="round" stroke-linejoin="round"/>
<path d="M573.642 185.385C575.074 184.43 575.313 179.735 572.608 181.088C571.494 181.645 570.938 183.475 571.256 184.51C571.574 185.146 572.051 185.624 572.767 185.544C573.165 185.703 573.483 185.544 573.642 185.385Z" fill="#1D1D1D"/>
<path d="M588.829 184.428C590.261 183.473 590.499 178.778 587.795 180.13C586.681 180.687 586.124 182.518 586.442 183.552C586.761 184.189 587.238 184.666 587.954 184.587C588.431 184.587 588.67 184.507 588.829 184.428Z" fill="#1D1D1D"/>
<path d="M567.436 177.426C568.549 175.914 573.799 174.959 577.061 176.153" stroke="#1D1D1D" stroke-width="2" stroke-miterlimit="10" stroke-linecap="round" stroke-linejoin="round"/>
<path d="M585.489 175.039C588.114 172.413 592.092 173.368 592.649 173.527" stroke="#1D1D1D" stroke-width="2" stroke-miterlimit="10" stroke-linecap="round" stroke-linejoin="round"/>
<path d="M595.433 177.187C595.433 177.187 596.944 175.595 598.933 177.267C602.194 179.813 599.331 188.726 594.717 188.567" stroke="#1D1D1D" stroke-width="2" stroke-miterlimit="10" stroke-linecap="round" stroke-linejoin="round"/>
<path d="M556.618 221.275L559.402 212.124C559.402 212.124 560.039 209.1 562.505 209.338C564.891 209.657 577.46 209.498 577.46 209.498C577.46 209.498 579.369 210.055 579.13 211.567C578.971 213.158 571.971 233.451 571.971 233.451L553.675 231.143L556.618 221.275Z" fill="white" stroke="#1D1D1D" stroke-width="2" stroke-miterlimit="10" stroke-linecap="round" stroke-linejoin="round"/>
<path d="M545.477 238.943C545.477 238.943 543.886 227.483 546.114 225.494C548.421 223.504 556.455 220.719 556.455 220.719L554.943 225.733C554.943 225.733 568.467 218.013 571.41 217.138C573.796 216.501 575.228 217.775 573.478 219.923C570.217 223.982 560.035 229.234 560.035 229.234C560.035 229.234 566.398 227.245 568.308 226.926C569.739 226.767 573.558 226.847 574.592 227.802C576.581 229.632 574.592 231.781 572.603 231.86C573.08 231.781 574.433 234.088 572.921 235.76C572.364 236.396 570.614 236.874 570.853 236.715C571.649 237.59 571.012 239.182 570.296 239.977C569.183 240.932 567.433 241.091 566.239 241.091C566.239 242.444 564.41 248.413 560.591 249.925" fill="white"/>
<path d="M545.477 238.943C545.477 238.943 543.886 227.483 546.114 225.494C548.421 223.504 556.455 220.719 556.455 220.719L554.943 225.733C554.943 225.733 568.467 218.013 571.41 217.138C573.796 216.501 575.228 217.775 573.478 219.923C570.217 223.982 560.035 229.234 560.035 229.234C560.035 229.234 566.398 227.245 568.308 226.926C569.739 226.767 573.558 226.847 574.592 227.802C576.581 229.632 574.592 231.781 572.603 231.86C573.08 231.781 574.433 234.088 572.921 235.76C572.364 236.396 570.614 236.874 570.853 236.715C571.649 237.59 571.012 239.182 570.296 239.977C569.183 240.932 567.433 241.091 566.239 241.091C566.239 242.444 564.41 248.413 560.591 249.925" stroke="#1D1D1D" stroke-width="2" stroke-miterlimit="10" stroke-linecap="round" stroke-linejoin="round"/>
<path d="M552.639 227.483L555.184 225.732" stroke="#1D1D1D" stroke-width="2" stroke-miterlimit="10" stroke-linecap="round" stroke-linejoin="round"/>
<path d="M572.842 231.938C572.842 231.938 570.217 230.346 562.023 233.052Z" fill="white"/>
<path d="M572.842 231.938C572.842 231.938 570.217 230.346 562.023 233.052" stroke="#1D1D1D" stroke-width="2" stroke-miterlimit="10" stroke-linecap="round" stroke-linejoin="round"/>
<path d="M570.932 236.873C570.932 236.873 566.398 236.395 563.296 237.35Z" fill="white"/>
<path d="M570.932 236.873C570.932 236.873 566.398 236.395 563.296 237.35" stroke="#1D1D1D" stroke-width="2" stroke-miterlimit="10" stroke-linecap="round" stroke-linejoin="round"/>
<path d="M659.784 271.092C652.386 270.774 639.897 270.456 634.567 271.251C626.055 272.604 622.635 279.209 622.635 279.209L582.065 352.821H692.955" fill="white"/>
<path d="M659.784 271.092C652.386 270.774 639.897 270.456 634.567 271.251C626.055 272.604 622.635 279.209 622.635 279.209L582.065 352.821H692.955" stroke="#1D1D1D" stroke-width="2" stroke-miterlimit="10" stroke-linecap="round" stroke-linejoin="round"/>
<path d="M678.077 259.554L684.202 272.446C693.987 273.242 700.112 273.879 703.851 274.117C711.01 274.674 714.828 277.38 717.135 282.075C719.124 286.134 732.647 340.964 732.647 340.964C732.647 340.964 737.022 355.846 723.579 359.029C709.976 362.292 690.725 341.68 690.725 341.68" fill="white"/>
<path d="M678.077 259.554L684.202 272.446C693.987 273.242 700.112 273.879 703.851 274.117C711.01 274.674 714.828 277.38 717.135 282.075C719.124 286.134 732.647 340.964 732.647 340.964C732.647 340.964 737.022 355.846 723.579 359.029C709.976 362.292 690.725 341.68 690.725 341.68" stroke="#1D1D1D" stroke-width="2" stroke-miterlimit="10" stroke-linecap="round" stroke-linejoin="round"/>
<path d="M674.979 249.925C674.343 242.762 672.354 232.337 663.842 230.905C657.479 229.87 650.876 231.94 647.058 237.351C641.808 244.513 645.944 256.371 648.728 263.851C650.637 268.785 654.376 275.549 660.66 274.992C670.445 274.196 672.672 262.896 672.672 262.896" fill="white"/>
<path d="M674.979 249.925C674.343 242.762 672.354 232.337 663.842 230.905C657.479 229.87 650.876 231.94 647.058 237.351C641.808 244.513 645.944 256.371 648.728 263.851C650.637 268.785 654.376 275.549 660.66 274.992C670.445 274.196 672.672 262.896 672.672 262.896" stroke="#1D1D1D" stroke-width="2" stroke-miterlimit="10" stroke-linecap="round" stroke-linejoin="round"/>
<path d="M638.069 234.406C638.069 234.406 632.182 234.247 633.216 230.427C634.489 225.812 654.933 222.31 660.183 223.265C665.433 224.141 673.229 226.21 676.252 234.963C679.274 243.717 678.718 248.651 678.718 248.651C678.718 248.651 676.411 250.243 674.342 253.665C672.672 256.609 672.911 252.312 671.956 247.219C671.001 242.205 669.57 237.987 664.001 237.033C658.433 236.078 654.774 239.022 651.274 242.285C647.773 245.548 644.353 251.039 641.966 250.561C639.58 250.004 641.012 246.264 641.012 246.264C641.012 246.264 637.591 250.959 634.807 250.004C632.023 249.049 633.693 243.876 636.716 241.33C631.227 243.399 627.171 243.24 627.171 241.171C627.091 237.43 634.569 234.804 638.069 234.406Z" fill="#1D1D1D"/>
<path d="M662.676 257.54C665.338 256.965 666.993 254.165 666.372 251.286C665.75 248.408 663.088 246.541 660.425 247.116C657.763 247.691 656.108 250.491 656.73 253.37C657.351 256.248 660.013 258.115 662.676 257.54Z" fill="white" stroke="#1D1D1D" stroke-width="2.0002" stroke-miterlimit="10.0006" stroke-linecap="round" stroke-linejoin="round"/>
<path d="M647.966 259.205C650.628 258.629 652.283 255.83 651.662 252.951C651.04 250.073 648.378 248.205 645.716 248.781C643.053 249.356 641.398 252.156 642.02 255.034C642.641 257.913 645.303 259.78 647.966 259.205Z" fill="white" stroke="#1D1D1D" stroke-width="2.0002" stroke-miterlimit="10.0006" stroke-linecap="round" stroke-linejoin="round"/>
<path d="M653.104 255.494C653.104 255.494 653.502 261.304 653.104 263.85" stroke="#1D1D1D" stroke-width="2" stroke-miterlimit="10" stroke-linecap="round" stroke-linejoin="round"/>
<path d="M654.612 267.195C654.612 267.195 657.396 267.513 659.783 264.808" stroke="#1D1D1D" stroke-width="2" stroke-miterlimit="10" stroke-linecap="round" stroke-linejoin="round"/>
<path d="M675.217 250.56C675.853 250.002 676.808 247.774 679.592 247.933C685.797 248.093 685.001 258.995 679.751 259.632C678.717 259.791 677.683 259.711 676.649 259.473" stroke="#1D1D1D" stroke-width="2" stroke-miterlimit="10" stroke-linecap="round" stroke-linejoin="round"/>
<path d="M660.82 255.177C659.388 254.222 659.15 249.447 661.854 250.721C662.968 251.278 663.684 253.188 663.207 254.381C662.888 255.018 662.411 255.496 661.616 255.416C661.218 255.496 661.059 255.416 660.82 255.177Z" fill="#1D1D1D"/>
<path d="M646.417 256.21C644.985 255.255 644.746 250.48 647.451 251.754C648.565 252.311 649.281 254.221 648.803 255.414C648.485 256.051 648.008 256.529 647.212 256.449C646.974 256.529 646.735 256.369 646.417 256.21Z" fill="#1D1D1D"/>
<path d="M696.376 300.935L704.808 329.504" stroke="#1D1D1D" stroke-width="2" stroke-miterlimit="10" stroke-linecap="round" stroke-linejoin="round"/>
<path d="M648.33 352.82H582.146L569.339 308.892C569.021 307.937 569.816 306.903 570.771 306.903H633.852C634.489 306.903 635.125 307.38 635.284 307.937L648.33 352.82Z" fill="#1D1D1D" stroke="#1D1D1D" stroke-width="2" stroke-miterlimit="10" stroke-linecap="round" stroke-linejoin="round"/>
<path d="M613.723 337.781C611.814 338.418 609.826 338.656 607.837 338.577C607.757 340.487 607.837 344.704 607.28 344.704C606.405 343.192 605.928 341.601 605.371 340.168C605.212 339.691 604.973 339.293 604.735 338.895C603.78 337.781 599.882 338.258 598.291 337.542C596.223 336.587 594.95 334.757 594.95 332.37C594.95 329.107 598.212 326.879 601.155 326.481C599.484 324.889 598.053 323.934 596.621 322.104C597.257 321.467 598.928 320.194 599.723 319.796C601.234 321.308 602.666 323.059 604.337 325.526C603.223 322.422 602.269 320.114 601.234 317.011C602.746 316.533 604.098 316.056 605.291 315.896C606.087 318.761 606.962 321.228 607.757 324.412C609.189 322.581 610.064 320.512 611.257 318.921C612.212 319.478 614.042 320.751 614.758 321.388C614.439 321.785 610.701 326.401 610.462 326.401C618.496 326.958 619.053 335.553 613.723 337.781Z" fill="#FFF1D1"/>
<path d="M697.807 341.6C695.818 341.521 693.193 338.974 692.318 337.144C691.841 338.576 690.33 342.794 690.091 343.351C689.455 345.181 686.352 345.34 686.273 343.351C686.193 340.963 687.545 336.03 688.659 332.289V332.13L688.341 333.005C687.466 336.109 684.841 344.942 684.125 346.534C683.25 348.762 679.67 349.001 679.591 346.534C679.511 343.669 681.659 336.268 683.091 331.812L683.17 331.971C683.17 331.971 679.432 344.624 678.716 346.534C677.841 348.762 674.261 349.001 674.181 346.534C674.022 342.316 678.875 328.31 678.875 328.31C678.875 328.31 675.454 327.992 673.625 328.31C672.352 330.698 670.522 333.324 669.886 334.677C669.249 335.95 664.477 336.984 665.033 333.881C665.59 330.857 669.408 323.695 672.272 322.899C675.295 322.103 692.955 323.854 695.421 324.49C701.228 325.764 719.046 337.78 719.046 337.78" fill="white"/>
<path d="M697.807 341.6C695.818 341.521 693.193 338.974 692.318 337.144C691.841 338.576 690.33 342.794 690.091 343.351C689.455 345.181 686.352 345.34 686.273 343.351C686.193 340.963 687.545 336.03 688.659 332.289V332.13L688.341 333.005C687.466 336.109 684.841 344.942 684.125 346.534C683.25 348.762 679.67 349.001 679.591 346.534C679.511 343.669 681.659 336.268 683.091 331.812L683.17 331.971C683.17 331.971 679.432 344.624 678.716 346.534C677.841 348.762 674.261 349.001 674.181 346.534C674.022 342.316 678.875 328.31 678.875 328.31C678.875 328.31 675.454 327.992 673.625 328.31C672.352 330.698 670.522 333.324 669.886 334.677C669.249 335.95 664.477 336.984 665.033 333.881C665.59 330.857 669.408 323.695 672.272 322.899C675.295 322.103 692.955 323.854 695.421 324.49C701.228 325.764 719.046 337.78 719.046 337.78" stroke="#1D1D1D" stroke-width="2" stroke-miterlimit="10" stroke-linecap="round" stroke-linejoin="round"/>
<path d="M691.763 348.364H647.137L648.33 352.82H693.036L691.763 348.364Z" fill="white" stroke="#1D1D1D" stroke-width="2" stroke-miterlimit="10" stroke-linecap="round" stroke-linejoin="round"/>
<path d="M199.841 305.909L176.613 234.367L167.545 230.865L151.237 239.858L156.726 249.089L160.147 262.618C156.806 263.652 150.76 264.687 147.021 271.61C145.43 274.554 144.237 277.738 142.726 283.149C139.703 293.733 131.987 315.14 129.998 322.382" fill="white"/>
<path d="M199.841 305.909L176.613 234.367L167.545 230.865L151.237 239.858L156.726 249.089L160.147 262.618C156.806 263.652 150.76 264.687 147.021 271.61C145.43 274.554 144.237 277.738 142.726 283.149C139.703 293.733 131.987 315.14 129.998 322.382" stroke="#1D1D1D" stroke-width="2" stroke-miterlimit="10" stroke-linecap="round" stroke-linejoin="round"/>
<path d="M149.57 206.834C149.57 206.834 142.252 210.097 142.172 218.373C142.093 223.227 144.082 228.639 144.082 228.639L136.684 234.527C136.684 234.527 140.343 238.745 142.093 241.69C144.638 245.907 145.752 250.205 148.775 251.796C152.991 254.024 157.207 250.762 160.707 248.693C163.809 246.783 166.594 244.793 167.469 240.973C167.628 240.178 168.105 237.711 168.105 234.527C168.105 234.527 172.56 237.79 176.776 234.527C181.071 231.265 179.401 223.466 173.514 222.909C167.389 222.352 166.275 226.172 164.525 228.241C162.855 230.31 161.105 230.23 161.264 227.684C161.423 224.421 162.378 210.256 149.57 206.834Z" fill="white" stroke="#1D1D1D" stroke-width="2" stroke-miterlimit="10" stroke-linecap="round" stroke-linejoin="round"/>
<path d="M149.567 238.185C149.567 238.185 146.306 241.05 142.249 241.846" stroke="#1D1D1D" stroke-width="2" stroke-miterlimit="10" stroke-linecap="round" stroke-linejoin="round"/>
<path d="M150.601 226.329C150.76 227.284 149.965 228.318 148.931 228.159C148.374 228.08 147.976 227.602 147.658 227.204C147.34 226.727 147.181 226.249 147.101 225.692C146.942 224.419 147.658 223.384 148.931 223.862C149.965 224.101 150.283 225.215 150.601 226.329Z" fill="#1D1D1D"/>
<path d="M151.554 220.122C149.566 219.804 148.293 219.565 144.634 220.043" stroke="#1D1D1D" stroke-width="2" stroke-miterlimit="10" stroke-linecap="round" stroke-linejoin="round"/>
<path d="M164.841 195.213C165.239 195.611 165.478 195.85 165.875 196.248C164.921 195.293 165.239 193.462 166.273 192.746C167.307 191.871 168.819 191.791 170.091 192.11C172.637 192.746 174.546 195.054 176.296 196.884C178.285 198.874 180.035 201.341 181.308 203.887C183.933 208.901 185.365 214.869 185.206 220.52C184.887 229.512 182.58 238.425 180.99 247.258C177.489 244.155 175.66 239.937 174.228 235.48C174.387 236.117 177.489 233.809 177.648 233.491C178.683 232.218 179.239 230.387 179.001 228.796C178.205 224.578 172.876 221.634 168.898 222.907C165.637 224.021 165.159 228.875 162.216 230.069C158.318 231.502 161.58 222.191 155.375 213.198C153.148 209.935 149.17 210.413 146.148 208.503C142.886 206.434 141.295 202.534 141.454 198.556C141.454 197.919 141.534 197.203 141.932 196.566C142.807 195.134 144.795 195.054 146.466 195.293C149.727 195.929 152.909 197.362 155.296 199.829C153.784 198.396 152.432 197.839 151.875 195.531C151.239 193.065 152.193 189.643 155.136 189.802C158.557 190.12 162.455 192.905 164.841 195.213Z" fill="#1D1D1D"/>
<path d="M94.5271 253.785C93.8907 253.467 93.0157 253.626 92.2997 253.944C91.6634 254.263 90.9474 254.74 90.3906 255.297C88.9587 256.65 88.7996 258.64 89.0383 260.55C89.5951 264.369 91.8224 268.826 93.9702 272.009C96.2771 275.272 103.118 278.933 108.607 279.569L120.141 317.927L130.165 322.463L136.528 303.045C136.528 303.045 115.607 261.584 112.744 257.128L94.5271 253.785Z" fill="white" stroke="#1D1D1D" stroke-width="2" stroke-miterlimit="10" stroke-linecap="round" stroke-linejoin="round"/>
<path d="M101.364 239.617L89.9088 241.288C89.4316 241.368 89.2725 241.845 89.2725 242.164L97.8636 271.847C97.9432 272.245 98.3409 272.483 98.6591 272.404L110.273 270.414C110.75 270.335 110.909 269.857 110.909 269.539L102.159 240.174C102.08 239.776 101.682 239.617 101.364 239.617Z" fill="#1D1D1D" stroke="#1D1D1D" stroke-width="2" stroke-miterlimit="10" stroke-linecap="round" stroke-linejoin="round"/>
<path d="M112.737 256.967C111.305 254.898 109.714 252.908 107.726 251.158C106.771 250.362 105.26 249.566 104.225 250.362C103.43 250.998 103.35 252.192 103.589 253.227C104.385 257.444 109.476 260.548 109.873 264.845" fill="white"/>
<path d="M112.737 256.967C111.305 254.898 109.714 252.908 107.726 251.158C106.771 250.362 105.26 249.566 104.225 250.362C103.43 250.998 103.35 252.192 103.589 253.227C104.385 257.444 109.476 260.548 109.873 264.845" stroke="#1D1D1D" stroke-width="2" stroke-miterlimit="10" stroke-linecap="round" stroke-linejoin="round"/>
<path d="M100.33 272.643C101.364 272.085 101.762 271.051 101.762 270.255C101.762 268.743 100.966 268.027 99.5346 267.788C100.807 266.913 101.921 265.242 101.046 263.889C100.728 263.491 99.9323 263.013 98.8187 263.252C99.4551 262.456 100.091 261.74 100.091 260.626C100.091 259.751 99.6142 258.955 98.8187 258.637C97.3868 258 95.9549 258.239 94.4435 258.716C95.0799 258.079 95.7163 256.886 95.7959 256.249C95.8754 255.294 95.3981 254.339 94.364 254.021C93.7276 253.703 92.8526 253.862 92.1367 254.18C91.5003 254.498 90.7843 254.976 90.2275 255.533C88.7956 256.886 88.6365 258.875 88.8752 260.785C89.432 264.605 91.4207 269.221 93.8072 272.245C95.6368 274.552 101.444 278.929 108.444 279.805" fill="white"/>
<path d="M100.33 272.643C101.364 272.085 101.762 271.051 101.762 270.255C101.762 268.743 100.966 268.027 99.5346 267.788C100.807 266.913 101.921 265.242 101.046 263.889C100.728 263.491 99.9323 263.013 98.8187 263.252C99.4551 262.456 100.091 261.74 100.091 260.626C100.091 259.751 99.6142 258.955 98.8187 258.637C97.3868 258 95.9549 258.239 94.4435 258.716C95.0799 258.079 95.7163 256.886 95.7959 256.249C95.8754 255.294 95.3981 254.339 94.364 254.021C93.7276 253.703 92.8526 253.862 92.1367 254.18C91.5003 254.498 90.7843 254.976 90.2275 255.533C88.7956 256.886 88.6365 258.875 88.8752 260.785C89.432 264.605 91.4207 269.221 93.8072 272.245C95.6368 274.552 101.444 278.929 108.444 279.805" stroke="#1D1D1D" stroke-width="2" stroke-miterlimit="10" stroke-linecap="round" stroke-linejoin="round"/>
<path d="M99.6926 267.627C97.7039 267.547 95.3174 269.059 93.5674 270.571" stroke="#1D1D1D" stroke-width="2" stroke-miterlimit="10" stroke-linecap="round" stroke-linejoin="round"/>
<path d="M98.8171 263.091C95.7943 263.489 92.2146 265.001 90.8623 266.354" stroke="#1D1D1D" stroke-width="2" stroke-miterlimit="10" stroke-linecap="round" stroke-linejoin="round"/>
<path d="M95.7955 258.157C93.0113 259.112 90.8635 260.704 89.4316 261.897" stroke="#1D1D1D" stroke-width="2" stroke-miterlimit="10" stroke-linecap="round" stroke-linejoin="round"/>
<path d="M227.522 135.366L165.555 159.956C164.441 160.434 163.089 160.036 162.134 159.081L143.838 141.255C141.849 139.266 142.008 135.764 144.395 134.889L206.363 110.299C207.476 109.821 208.829 110.219 209.783 111.174L228.079 129C230.068 130.989 229.829 134.411 227.522 135.366Z" fill="white" stroke="#1D1D1D" stroke-width="2" stroke-miterlimit="10" stroke-linecap="round" stroke-linejoin="round"/>
<path d="M165.239 152.714L218.616 131.626" stroke="#1D1D1D" stroke-width="2" stroke-miterlimit="10" stroke-linecap="round" stroke-linejoin="round"/>
<path d="M161.26 147.939L214.716 126.93" stroke="#1D1D1D" stroke-width="2" stroke-miterlimit="10" stroke-linecap="round" stroke-linejoin="round"/>
<path d="M157.363 143.085L210.74 122.155" stroke="#1D1D1D" stroke-width="2" stroke-miterlimit="10" stroke-linecap="round" stroke-linejoin="round"/>
<path d="M153.387 138.31L206.843 117.38" stroke="#1D1D1D" stroke-width="2" stroke-miterlimit="10" stroke-linecap="round" stroke-linejoin="round"/>
<path d="M130.073 96.6921C130.073 96.6921 161.177 120.566 164.12 121.521C166.109 122.158 168.336 121.839 170.325 121.919C172.234 121.998 173.586 121.601 175.257 122.556C177.086 123.59 178.518 126.296 179.313 128.206C179.711 129.001 180.109 130.036 179.393 130.673C178.041 132.026 175.893 129.24 175.018 128.444C174.381 127.808 173.347 126.455 172.472 126.455C170.961 126.296 167.938 126.057 166.347 126.057C167.699 127.012 170.325 129.081 171.2 130.513C172.154 132.026 173.029 133.617 173.506 135.288C173.984 136.562 175.495 140.143 173.029 140.302C172.154 140.381 171.04 139.267 170.722 138.471C169.609 136.402 168.813 134.095 166.984 132.583C166.109 131.787 163.483 129.718 162.449 128.922C164.438 130.513 168.097 133.538 169.29 135.845C169.927 137.119 171.597 141.495 169.211 141.655C167.62 141.814 166.347 139.824 165.711 138.631C164.358 136.402 161.495 133.697 159.426 132.185C161.017 133.219 163.802 136.402 164.358 138.074C164.677 138.869 164.756 139.745 163.881 140.302C163.245 140.859 162.29 140.62 161.574 139.983C159.983 138.71 158.949 136.959 157.04 135.925C154.813 134.572 152.585 133.458 150.278 132.503C147.494 131.389 144.551 129.24 142.005 126.614L121.88 117.303" fill="white"/>
<path d="M130.073 96.6921C130.073 96.6921 161.177 120.566 164.12 121.521C166.109 122.158 168.336 121.839 170.325 121.919C172.234 121.998 173.586 121.601 175.257 122.556C177.086 123.59 178.518 126.296 179.313 128.206C179.711 129.001 180.109 130.036 179.393 130.673C178.041 132.026 175.893 129.24 175.018 128.444C174.381 127.808 173.347 126.455 172.472 126.455C170.961 126.296 167.938 126.057 166.347 126.057C167.699 127.012 170.325 129.081 171.2 130.513C172.154 132.026 173.029 133.617 173.506 135.288C173.984 136.562 175.495 140.143 173.029 140.302C172.154 140.381 171.04 139.267 170.722 138.471C169.609 136.402 168.813 134.095 166.984 132.583C166.109 131.787 163.483 129.718 162.449 128.922C164.438 130.513 168.097 133.538 169.29 135.845C169.927 137.119 171.597 141.495 169.211 141.655C167.62 141.814 166.347 139.824 165.711 138.631C164.358 136.402 161.495 133.697 159.426 132.185C161.017 133.219 163.802 136.402 164.358 138.074C164.677 138.869 164.756 139.745 163.881 140.302C163.245 140.859 162.29 140.62 161.574 139.983C159.983 138.71 158.949 136.959 157.04 135.925C154.813 134.572 152.585 133.458 150.278 132.503C147.494 131.389 144.551 129.24 142.005 126.614L121.88 117.303" stroke="#1D1D1D" stroke-width="2" stroke-miterlimit="10" stroke-linecap="round" stroke-linejoin="round"/>
<path d="M171.996 67.0079C172.155 68.9974 180.587 97.5665 180.587 97.5665C179.951 99.1581 178.917 102.898 178.996 107.594C179.076 109.583 179.394 115.949 179.633 118.257C180.19 121.918 182.735 122.873 183.849 118.655C184.406 116.666 184.406 115.392 184.962 111.652C185.758 115.949 187.269 120.008 187.826 124.226C187.985 125.579 188.303 130.831 190.61 130.433C191.485 130.274 191.883 129.796 192.042 129.08C192.838 124.862 191.963 117.939 190.69 113.96C192.042 118.337 192.599 125.579 193.792 129.876C194.429 132.104 196.338 131.865 196.735 128.921C197.372 123.907 195.86 117.461 194.826 112.925C195.463 115.552 196.656 119.69 197.133 122.316C197.531 124.305 198.486 129.558 200.236 128.921C202.224 128.125 199.917 116.666 198.247 111.652C198.883 113.323 200.713 120.088 202.304 119.371C204.531 118.496 203.099 114.119 202.463 112.448C201.031 108.071 198.486 101.864 195.781 98.3623L190.292 66.053" fill="white"/>
<path d="M171.996 67.0079C172.155 68.9974 180.587 97.5665 180.587 97.5665C179.951 99.1581 178.917 102.898 178.996 107.594C179.076 109.583 179.394 115.949 179.633 118.257C180.19 121.918 182.735 122.873 183.849 118.655C184.406 116.666 184.406 115.392 184.962 111.652C185.758 115.949 187.269 120.008 187.826 124.226C187.985 125.579 188.303 130.831 190.61 130.433C191.485 130.274 191.883 129.796 192.042 129.08C192.838 124.862 191.963 117.939 190.69 113.96C192.042 118.337 192.599 125.579 193.792 129.876C194.429 132.104 196.338 131.865 196.735 128.921C197.372 123.907 195.86 117.461 194.826 112.925C195.463 115.552 196.656 119.69 197.133 122.316C197.531 124.305 198.486 129.558 200.236 128.921C202.224 128.125 199.917 116.666 198.247 111.652C198.883 113.323 200.713 120.088 202.304 119.371C204.531 118.496 203.099 114.119 202.463 112.448C201.031 108.071 198.486 101.864 195.781 98.3623L190.292 66.053" stroke="#1D1D1D" stroke-width="2" stroke-miterlimit="10" stroke-linecap="round" stroke-linejoin="round"/>
<path d="M313.829 206.989C313.829 233.648 297.521 256.487 274.532 266.276H274.453C266.1 270.175 256.793 272.403 247.009 272.403C236.19 272.403 226.008 269.777 217.019 265.082C215.348 299.142 187.189 326.279 152.665 326.279C117.027 326.279 88.3105 297.391 88.3105 261.899C88.3105 231.977 108.675 206.83 136.278 199.588V172.053C132.857 167.995 129.835 163.538 127.448 158.763C123.073 150.169 120.687 140.381 120.687 130.035C120.687 94.5427 149.562 65.6553 185.041 65.6553C186.075 65.6553 187.268 65.6553 188.302 65.7349C190.927 65.8144 193.552 66.2123 196.018 66.6102C226.326 71.8625 249.315 98.2829 249.315 130.035C249.315 134.412 248.838 138.55 248.043 142.609C248.52 142.609 248.838 142.609 249.315 142.609C251.861 142.609 254.327 142.768 256.872 143.086C268.009 144.439 278.43 148.577 287.021 154.864C303.249 166.642 313.829 185.661 313.829 206.989Z" stroke="#1D1D1D" stroke-width="2" stroke-miterlimit="10" stroke-linecap="round" stroke-linejoin="round"/>
<path d="M241.04 155.022C238.494 157.648 236.426 160.831 235.153 164.253C232.607 170.62 232.369 177.463 227.516 182.875C226.482 183.989 225.21 185.103 223.698 185.421C220.596 186.058 217.016 182.159 219.403 179.294C217.016 182.159 213.118 184.466 209.379 183.352C206.993 182.716 206.118 181.124 205.72 178.657C205.243 176.27 205.72 173.803 206.754 171.495C199.436 170.858 202.538 163.378 205.72 159.717C207.152 158.046 208.823 156.693 210.493 155.34C218.687 148.974 234.119 132.978 245.653 139.902C247.722 141.175 249.949 143.881 249.71 146.586C249.392 150.406 243.506 152.316 241.04 155.022Z" fill="#1D1D1D"/>
<path d="M248.831 191.631C256.229 191.312 268.718 190.994 274.048 191.79C282.56 193.222 285.901 199.827 285.901 199.827L326.47 273.438H216.058" fill="white"/>
<path d="M248.831 191.631C256.229 191.312 268.718 190.994 274.048 191.79C282.56 193.222 285.901 199.827 285.901 199.827L326.47 273.438H216.058" stroke="#1D1D1D" stroke-width="2" stroke-miterlimit="10" stroke-linecap="round" stroke-linejoin="round"/>
<path d="M235.948 173.008C236.585 165.846 238.573 155.421 247.085 153.988C253.449 152.954 260.051 155.023 263.87 160.434C269.12 167.597 264.983 179.454 262.199 186.934C260.29 191.868 256.551 198.633 250.267 198.076C240.482 197.28 238.255 185.98 238.255 185.98" fill="white"/>
<path d="M235.948 173.008C236.585 165.846 238.573 155.421 247.085 153.988C253.449 152.954 260.051 155.023 263.87 160.434C269.12 167.597 264.983 179.454 262.199 186.934C260.29 191.868 256.551 198.633 250.267 198.076C240.482 197.28 238.255 185.98 238.255 185.98" stroke="#1D1D1D" stroke-width="2" stroke-miterlimit="10" stroke-linecap="round" stroke-linejoin="round"/>
<path d="M257.823 178.421C257.823 178.421 257.425 184.23 257.823 186.777" stroke="#1D1D1D" stroke-width="2" stroke-miterlimit="10" stroke-linecap="round" stroke-linejoin="round"/>
<path d="M256.312 190.117C256.312 190.117 253.528 190.436 251.142 187.73" stroke="#1D1D1D" stroke-width="2" stroke-miterlimit="10" stroke-linecap="round" stroke-linejoin="round"/>
<path d="M235.869 173.484C235.232 172.927 234.278 170.699 231.494 170.858C225.289 171.017 226.084 181.92 231.335 182.556C232.369 182.716 233.403 182.636 234.437 182.397" fill="white"/>
<path d="M235.869 173.484C235.232 172.927 234.278 170.699 231.494 170.858C225.289 171.017 226.084 181.92 231.335 182.556C232.369 182.716 233.403 182.636 234.437 182.397" stroke="#1D1D1D" stroke-width="2" stroke-miterlimit="10" stroke-linecap="round" stroke-linejoin="round"/>
<path d="M250.187 178.261C251.619 177.306 251.858 172.531 249.153 173.805C248.039 174.362 247.323 176.272 247.801 177.465C248.119 178.102 248.596 178.579 249.392 178.5C249.71 178.42 250.028 178.261 250.187 178.261Z" fill="#1D1D1D"/>
<path d="M264.505 179.293C265.937 178.338 266.176 173.563 263.471 174.837C262.358 175.394 261.642 177.304 262.119 178.497C262.437 179.134 262.915 179.611 263.71 179.532C264.028 179.452 264.346 179.373 264.505 179.293Z" fill="#1D1D1D"/>
<path d="M268.484 158.525C265.62 152.636 260.211 147.941 253.529 146.907C247.722 145.952 241.04 147.384 237.062 151.841C232.767 156.615 231.176 163.777 231.335 169.826C231.335 170.223 231.335 170.462 231.653 170.86C231.971 171.258 232.528 171.497 232.926 171.815C233.483 172.372 233.881 173.247 234.358 173.805C234.835 174.441 235.471 176.271 236.028 176.669C237.381 177.624 238.017 175.396 238.574 174.362C240.244 171.019 243.188 169.03 246.37 167.12C249.87 165.051 254.881 161.868 256.87 158.286C261.643 160.674 265.143 166.244 266.177 171.417C271.029 169.03 270.552 162.743 268.563 158.684C268.484 158.605 268.484 158.605 268.484 158.525Z" fill="#1D1D1D"/>
<path d="M231.416 169.108C230.462 160.752 234.439 154.465 237.144 151.76C242.394 146.508 247.246 144.598 253.69 145.075" stroke="white" stroke-width="2" stroke-miterlimit="10" stroke-linecap="round" stroke-linejoin="round"/>
<path d="M260.211 273.438H326.395L339.282 229.51C339.6 228.555 338.804 227.52 337.85 227.52H274.768C274.132 227.52 273.495 227.998 273.336 228.555L260.211 273.438Z" fill="#1D1D1D" stroke="#1D1D1D" stroke-width="2" stroke-miterlimit="10" stroke-linecap="round" stroke-linejoin="round"/>
<path d="M216.859 268.981H261.485L260.213 273.437H216.063L216.859 268.981Z" fill="white" stroke="#1D1D1D" stroke-width="2" stroke-miterlimit="10" stroke-linecap="round" stroke-linejoin="round"/>
<path d="M196.496 253.782C202.621 250.28 227.519 238.901 234.36 238.503C240.724 238.105 246.452 241.765 251.225 245.506C255.759 249.007 259.02 253.145 259.1 259.193C259.1 259.671 259.02 260.148 258.622 260.467C258.225 260.626 257.827 260.546 257.588 260.387C257.191 260.069 257.032 259.83 256.952 259.512C254.963 256.249 253.293 253.702 249.952 251.872C251.543 255.612 254.168 260.865 253.054 264.923C252.975 265.241 252.895 265.56 252.656 265.719C252.179 266.196 251.543 266.117 251.065 265.719C250.588 265.321 250.429 264.843 250.111 264.286C248.202 260.546 246.372 256.886 244.463 253.145C246.372 256.408 247.884 260.069 247.963 263.809C247.963 264.923 247.486 266.594 246.372 266.594C245.497 266.594 244.861 265.719 244.383 264.923C242.554 261.819 241.122 258.636 239.69 255.294C241.361 258.318 241.997 261.979 241.52 265.321C241.44 265.798 241.201 266.276 240.883 266.356C240.724 266.356 240.406 266.276 240.247 266.196C239.133 265.56 238.576 264.207 238.02 263.093C237.145 261.262 234.519 256.806 232.213 257.204C230.224 257.602 214.314 270.335 207.473 273.995C201.189 277.338 192.757 281.555 185.359 279.804C171.915 276.542 176.29 261.74 176.29 261.74C176.29 261.74 189.814 206.989 191.802 202.851C194.189 198.076 197.768 195.45 205.087 194.893C208.826 194.575 217.178 193.62 227.042 192.903L231.338 182.876" fill="white"/>
<path d="M196.496 253.782C202.621 250.28 227.519 238.901 234.36 238.503C240.724 238.105 246.452 241.765 251.225 245.506C255.759 249.007 259.02 253.145 259.1 259.193C259.1 259.671 259.02 260.148 258.622 260.467C258.225 260.626 257.827 260.546 257.588 260.387C257.191 260.069 257.032 259.83 256.952 259.512C254.963 256.249 253.293 253.702 249.952 251.872C251.543 255.612 254.168 260.865 253.054 264.923C252.975 265.241 252.895 265.56 252.656 265.719C252.179 266.196 251.543 266.117 251.065 265.719C250.588 265.321 250.429 264.843 250.111 264.286C248.202 260.546 246.372 256.886 244.463 253.145C246.372 256.408 247.884 260.069 247.963 263.809C247.963 264.923 247.486 266.594 246.372 266.594C245.497 266.594 244.861 265.719 244.383 264.923C242.554 261.819 241.122 258.636 239.69 255.294C241.361 258.318 241.997 261.979 241.52 265.321C241.44 265.798 241.201 266.276 240.883 266.356C240.724 266.356 240.406 266.276 240.247 266.196C239.133 265.56 238.576 264.207 238.02 263.093C237.145 261.262 234.519 256.806 232.213 257.204C230.224 257.602 214.314 270.335 207.473 273.995C201.189 277.338 192.757 281.555 185.359 279.804C171.915 276.542 176.29 261.74 176.29 261.74C176.29 261.74 189.814 206.989 191.802 202.851C194.189 198.076 197.768 195.45 205.087 194.893C208.826 194.575 217.178 193.62 227.042 192.903L231.338 182.876" stroke="#1D1D1D" stroke-width="2" stroke-miterlimit="10" stroke-linecap="round" stroke-linejoin="round"/>
<path d="M212.246 221.552L203.894 249.961" stroke="#1D1D1D" stroke-width="2" stroke-miterlimit="10" stroke-linecap="round" stroke-linejoin="round"/>
<path d="M1011.24 177.108L1120.06 169.945C1122.53 169.786 1124.52 167.637 1124.36 165.091L1119.35 94.0263C1119.19 91.5593 1117.04 89.6494 1114.57 89.8086L1005.75 96.9708C1003.28 97.1299 1001.3 99.2785 1001.46 101.825L1006.47 172.89C1006.63 175.357 1008.77 177.267 1011.24 177.108Z" fill="white" stroke="#1D1D1D" stroke-width="2" stroke-miterlimit="10" stroke-linecap="round" stroke-linejoin="round"/>
<path d="M1117.99 163.899L1113.14 96.0171L1007.42 102.941L1012.27 170.902L1117.99 163.899Z" fill="#1D1D1D"/>
<path d="M1082.67 109.465L1017.76 113.285" stroke="white" stroke-width="2" stroke-miterlimit="10" stroke-linecap="round" stroke-linejoin="round"/>
<path d="M1067.32 120.208L1019.03 123.233" stroke="white" stroke-width="2" stroke-miterlimit="10" stroke-linecap="round" stroke-linejoin="round"/>
<path d="M1087.52 128.643L1031.76 132.463" stroke="white" stroke-width="2" stroke-miterlimit="10" stroke-linecap="round" stroke-linejoin="round"/>
<path d="M1074.32 139.308L1032.79 142.332" stroke="white" stroke-width="2" stroke-miterlimit="10" stroke-linecap="round" stroke-linejoin="round"/>
<path d="M1088.72 148.061L1020.23 153.314" stroke="white" stroke-width="2" stroke-miterlimit="10" stroke-linecap="round" stroke-linejoin="round"/>
<path d="M1018.4 248.651C1018.4 248.651 1032.72 192.786 1035.42 186.579C1039.8 176.791 1046.4 174.801 1053.8 172.891C1054.67 172.732 1062.23 171.777 1071.7 170.663C1071.7 170.663 1070.26 166.286 1068.83 162.068C1069.23 161.989 1067.56 157.373 1068.04 157.214C1068.04 157.214 1066.76 148.381 1071.3 140.9C1071.85 140.025 1087.29 137.876 1087.61 136.921L1089.43 145.754L1096.04 168.196C1096.04 168.196 1107.65 167.241 1110.51 167.321C1110.51 167.321 1122.45 164.854 1130.88 178.541C1141.78 196.367 1149.97 236.316 1149.97 236.316" fill="white"/>
<path d="M1018.4 248.651C1018.4 248.651 1032.72 192.786 1035.42 186.579C1039.8 176.791 1046.4 174.801 1053.8 172.891C1054.67 172.732 1062.23 171.777 1071.7 170.663C1071.7 170.663 1070.26 166.286 1068.83 162.068C1069.23 161.989 1067.56 157.373 1068.04 157.214C1068.04 157.214 1066.76 148.381 1071.3 140.9C1071.85 140.025 1087.29 137.876 1087.61 136.921L1089.43 145.754L1096.04 168.196C1096.04 168.196 1107.65 167.241 1110.51 167.321C1110.51 167.321 1122.45 164.854 1130.88 178.541C1141.78 196.367 1149.97 236.316 1149.97 236.316" stroke="#1D1D1D" stroke-width="2" stroke-miterlimit="10" stroke-linecap="round" stroke-linejoin="round"/>
<path d="M1069.31 163.581L1064.93 149.973C1062.55 151.405 1060.72 151.962 1058.49 151.326C1054.43 150.053 1051.65 144.402 1054.99 140.662C1056.66 138.752 1059.37 138.434 1061.67 138.195C1061.28 131.829 1058.41 118.857 1066.29 116.311L1084.9 127.77C1084.9 127.77 1092.06 137.797 1089.44 145.676" fill="white"/>
<path d="M1069.31 163.581L1064.93 149.973C1062.55 151.405 1060.72 151.962 1058.49 151.326C1054.43 150.053 1051.65 144.402 1054.99 140.662C1056.66 138.752 1059.37 138.434 1061.67 138.195C1061.28 131.829 1058.41 118.857 1066.29 116.311L1084.9 127.77C1084.9 127.77 1092.06 137.797 1089.44 145.676" stroke="#1D1D1D" stroke-width="2" stroke-miterlimit="10" stroke-linecap="round" stroke-linejoin="round"/>
<path d="M1097.63 137.318C1098.27 132.782 1097.71 128.644 1096.6 124.267C1095.64 120.368 1094.29 116.309 1091.82 113.126C1091.03 112.171 1090.15 111.136 1089.04 110.5C1088.17 109.943 1087.13 109.624 1086.1 109.545C1085.14 109.465 1084.11 110.022 1083.15 110.42C1082.36 108.828 1081.16 107.157 1079.89 106.043C1078.54 105.009 1076.95 104.133 1075.28 104.77C1074.4 105.168 1073.77 106.123 1073.85 106.998C1072.57 106.123 1071.38 105.088 1069.95 104.611C1066.69 103.258 1062.39 103.974 1062.79 108.271C1062.87 109.226 1063.35 110.181 1063.66 111.057C1060.8 110.738 1058.41 112.012 1056.98 114.479C1055.95 116.468 1055.63 118.935 1055.95 121.163C1056.51 125.461 1059.69 137.159 1060.96 138.114C1063.35 139.944 1065.81 144.321 1068.6 149.812C1070.59 153.632 1071.94 158.566 1073.61 159.123C1075.28 159.68 1092.46 156.258 1092.46 156.258C1093.81 151.642 1096.92 142.332 1097.63 137.318Z" fill="#1D1D1D"/>
<path d="M1093.97 153.076C1095.32 148.221 1097.31 142.492 1098.03 137.558C1098.66 132.942 1098.11 128.724 1096.99 124.268C1096.04 120.289 1094.69 116.151 1092.14 112.967C1091.35 112.012 1090.47 110.978 1089.28 110.341C1088.4 109.784 1087.29 109.466 1086.25 109.386C1085.3 109.307 1084.19 109.864 1083.23 110.262C1082.44 108.67 1081.24 106.999 1079.89 105.805C1078.54 104.771 1076.87 103.816 1075.2 104.452C1074.32 104.85 1073.69 105.805 1073.77 106.76C1072.49 105.805 1071.22 104.85 1069.79 104.293C1066.53 102.94 1062.15 103.657 1062.63 108.034C1062.71 108.988 1063.19 109.943 1063.5 110.898C1060.64 110.58 1058.09 111.853 1056.74 114.4C1055.63 116.389 1055.39 118.936 1055.71 121.164C1056.26 125.541 1056.98 131.43 1058.73 136.046" stroke="white" stroke-width="2" stroke-miterlimit="10" stroke-linecap="round" stroke-linejoin="round"/>
<path d="M1024.29 183.238C1021.82 174.166 1017.37 163.263 1007.9 159.443C1004.4 158.011 999.468 157.533 995.729 158.091C995.411 158.091 995.252 158.17 995.093 158.17C987.774 159.523 982.047 165.332 979.183 172.017C975.365 180.771 973.854 193.583 973.854 203.531C973.854 203.849 987.456 207.51 997.797 208.465C1003.29 209.022 1008.85 207.987 1013.95 206.236C1018.88 204.565 1022.46 203.292 1028.11 200.268C1027.95 199.472 1025.56 188.013 1024.29 183.238Z" fill="#1D1D1D" stroke="#1D1D1D" stroke-width="2" stroke-miterlimit="10" stroke-linecap="round" stroke-linejoin="round"/>
<path d="M980.297 184.989C980.297 184.989 978.626 183.636 976.876 185.546C974.012 188.57 978.149 196.847 982.683 196.21" fill="white"/>
<path d="M980.297 184.989C980.297 184.989 978.626 183.636 976.876 185.546C974.012 188.57 978.149 196.847 982.683 196.21" stroke="#1D1D1D" stroke-width="2" stroke-miterlimit="10" stroke-linecap="round" stroke-linejoin="round"/>
<path d="M951.818 262.977C958.58 240.058 956.273 247.459 958.182 240.536C960.091 234.09 962.955 225.575 969.319 222.233C972.58 220.561 976.558 220.323 980.137 220.004C984.99 219.527 989.922 219.368 995.013 219.049C993.74 214.991 991.99 206.794 991.99 206.794L1012.35 198.995C1012.35 198.995 1014.18 209.261 1015.14 212.683C1015.77 214.991 1017.05 216.901 1020.87 218.015C1027.63 220.004 1034.79 218.811 1041.55 220.88C1050.3 223.426 1055.55 227.962 1055.55 239.661L1056.03 288.841" fill="white"/>
<path d="M951.818 262.977C958.58 240.058 956.273 247.459 958.182 240.536C960.091 234.09 962.955 225.575 969.319 222.233C972.58 220.561 976.558 220.323 980.137 220.004C984.99 219.527 989.922 219.368 995.013 219.049C993.74 214.991 991.99 206.794 991.99 206.794L1012.35 198.995C1012.35 198.995 1014.18 209.261 1015.14 212.683C1015.77 214.991 1017.05 216.901 1020.87 218.015C1027.63 220.004 1034.79 218.811 1041.55 220.88C1050.3 223.426 1055.55 227.962 1055.55 239.661L1056.03 288.841" stroke="#1D1D1D" stroke-width="2" stroke-miterlimit="10" stroke-linecap="round" stroke-linejoin="round"/>
<path d="M1001.77 174.484C1003.76 174.802 1005.75 172.654 1005.51 170.744C1005.99 173.688 1005.59 176.155 1006.87 179.02C1007.9 181.487 1009.33 183.795 1011.24 185.864C1013.15 183.317 1016.09 180.612 1019.51 182.044C1022.3 183.158 1022.93 186.341 1021.98 188.968C1018.48 198.119 1012.19 193.504 1012.19 193.504C1012.19 193.504 1010.21 208.783 998.99 210.534C991.274 211.807 986.342 205.6 983.637 199.074C981.648 194.22 980.853 188.729 981.41 183.477C981.887 178.622 983.876 172.495 987.217 168.914C987.058 170.028 986.739 171.221 987.137 172.335C987.535 173.29 988.251 174.245 989.364 174.325C990.478 174.484 991.671 173.848 992.308 172.893C992.944 171.938 993.342 170.903 993.74 169.789C993.74 170.664 993.74 171.699 994.137 172.574C994.535 173.45 995.171 174.166 996.126 174.245C997.081 174.325 998.035 173.688 998.512 172.893C999.069 172.097 999.149 171.062 999.388 170.107C998.592 171.858 999.865 174.166 1001.77 174.484Z" fill="white" stroke="#1D1D1D" stroke-width="2" stroke-miterlimit="10" stroke-linecap="round" stroke-linejoin="round"/>
<path d="M995.491 186.66C995.491 186.66 995.411 194.777 994.536 197.642" stroke="#1D1D1D" stroke-width="2" stroke-miterlimit="10" stroke-linecap="round" stroke-linejoin="round"/>
<path d="M999.705 201.143C999.705 201.143 995.489 203.929 991.989 201.541" stroke="#1D1D1D" stroke-width="2" stroke-miterlimit="10" stroke-linecap="round" stroke-linejoin="round"/>
<path d="M1002.97 190.162C1001.46 189.526 1000.58 184.91 1003.45 185.706C1004.56 186.104 1005.43 187.775 1005.27 188.969C1005.2 189.605 1004.64 190.242 1003.92 190.242C1003.52 190.401 1003.21 190.321 1002.97 190.162Z" fill="#1D1D1D"/>
<path d="M987.693 191.356C986.182 190.72 985.307 186.104 988.171 186.9C989.284 187.298 990.16 188.969 990 190.163C989.921 190.799 989.364 191.436 988.648 191.436C988.25 191.436 988.012 191.436 987.693 191.356Z" fill="#1D1D1D"/>
<path d="M1007.98 181.409C1006.55 180.056 1001.3 179.897 998.275 181.489" stroke="#1D1D1D" stroke-width="2" stroke-miterlimit="10" stroke-linecap="round" stroke-linejoin="round"/>
<path d="M989.681 181.568C986.658 179.26 982.92 180.772 982.442 181.09" stroke="#1D1D1D" stroke-width="2" stroke-miterlimit="10" stroke-linecap="round" stroke-linejoin="round"/>
<path d="M987.537 227.724L984.752 218.573C984.752 218.573 984.116 215.549 981.65 215.787C979.184 216.106 966.695 215.947 966.695 215.947C966.695 215.947 964.786 216.504 965.025 218.016C965.184 219.607 972.184 239.9 972.184 239.9L990.48 237.592L987.537 227.724Z" fill="white" stroke="#1D1D1D" stroke-width="2" stroke-miterlimit="10" stroke-linecap="round" stroke-linejoin="round"/>
<path d="M1038.77 296.719L1000.9 247.936C1000.9 247.936 1000.27 233.93 997.88 231.941C995.573 229.951 987.539 227.166 987.539 227.166L989.05 232.18C989.05 232.18 975.527 224.46 972.584 223.585C970.197 222.948 968.766 224.222 970.516 226.37C973.777 230.429 983.959 235.681 983.959 235.681C983.959 235.681 977.595 233.692 975.686 233.373C974.254 233.214 970.436 233.294 969.402 234.249C967.413 236.079 969.402 238.228 971.391 238.307C970.913 238.228 969.561 240.535 971.072 242.207C971.629 242.843 973.379 243.321 973.141 243.162C972.345 244.037 972.982 245.629 973.697 246.424C974.811 247.379 976.561 247.538 977.754 247.538C977.754 248.891 981.175 256.372 986.584 259.714L988.971 262.659L1008.14 296.241C1006.23 296.48 1038.77 296.719 1038.77 296.719Z" fill="white" stroke="#1D1D1D" stroke-width="2" stroke-miterlimit="10" stroke-linecap="round" stroke-linejoin="round"/>
<path d="M991.514 233.931L988.969 232.18" stroke="#1D1D1D" stroke-width="2" stroke-miterlimit="10" stroke-linecap="round" stroke-linejoin="round"/>
<path d="M971.229 238.468C971.229 238.468 973.854 236.876 982.047 239.582Z" fill="white"/>
<path d="M971.229 238.468C971.229 238.468 973.854 236.876 982.047 239.582" stroke="#1D1D1D" stroke-width="2" stroke-miterlimit="10" stroke-linecap="round" stroke-linejoin="round"/>
<path d="M973.059 243.243C973.059 243.243 977.593 242.765 980.695 243.72Z" fill="white"/>
<path d="M973.059 243.243C973.059 243.243 977.593 242.765 980.695 243.72" stroke="#1D1D1D" stroke-width="2" stroke-miterlimit="10" stroke-linecap="round" stroke-linejoin="round"/>
<path d="M908.689 165.854L915.827 159.585L940.723 178.131L916.534 164.129L908.689 165.854ZM908.689 165.854L916.302 169.535" stroke="#1D1D1D" stroke-width="2" stroke-miterlimit="10" stroke-linecap="round" stroke-linejoin="round"/>
<path d="M946.126 181.012L919.195 153.332L915.828 159.586L946.126 181.012ZM946.126 181.012L917.254 177.958L916.535 164.13L946.126 181.012Z" stroke="#1D1D1D" stroke-width="2" stroke-miterlimit="10" stroke-linecap="round" stroke-linejoin="round"/>
<path d="M800.546 207.752C797.38 194.607 797.732 180.411 802.734 168.008C805.471 161.25 809.773 154.569 815.825 150.5C821.703 146.422 832.041 144.652 836.783 151.944C840.197 157.078 837.57 165.933 830.93 166.486C824.031 166.939 820.641 158.23 822.379 152.733C832.955 117.926 884.812 145.969 903.548 157.247" stroke="#1D1D1D" stroke-width="2" stroke-miterlimit="10" stroke-linecap="round" stroke-linejoin="round"/>
<path d="M359.478 166.784L318.467 157.369L335.348 186.663L343.801 179.913L318.467 157.369L350.477 174.379L359.478 166.784Z" stroke="#1D1D1D" stroke-width="2" stroke-miterlimit="10" stroke-linecap="round" stroke-linejoin="round"/>
<path d="M343.804 179.914L352.461 184.508L350.48 174.379L318.47 157.369L343.804 179.914Z" stroke="#1D1D1D" stroke-width="2" stroke-miterlimit="10" stroke-linecap="round" stroke-linejoin="round"/>
<path d="M343.8 179.912L352.457 184.507" stroke="#1D1D1D" stroke-width="2" stroke-miterlimit="10" stroke-linecap="round" stroke-linejoin="round"/>
<path d="M352.457 184.507L343.8 179.912L352.457 184.507Z" stroke="#1D1D1D" stroke-width="2" stroke-miterlimit="10" stroke-linecap="round" stroke-linejoin="round"/>
<path d="M359.686 188.87C369.856 202.632 382.573 216.062 398.841 222.348C412.36 227.54 438.556 228.507 435.728 207.068C435.054 201.823 430.715 197.124 425.301 196.798C419.957 196.416 414.416 201.067 414.313 206.366C414.294 210.009 416.424 213.411 419.065 215.837C427.977 223.915 442.52 223.641 453.212 217.371C463.904 211.101 471.754 200.978 475.509 189.249" stroke="#1D1D1D" stroke-width="2" stroke-miterlimit="10" stroke-linecap="round" stroke-linejoin="round"/>
<path d="M1059.61 316.774C1052.61 312.159 1056.19 269.186 1056.66 256.214C1057.38 238.388 1077.9 237.831 1077.9 237.831L1095.72 236.24L1097.31 223.586C1097.31 223.586 1121.97 233.852 1128.81 233.852C1141.22 233.852 1149.73 232.818 1157.93 243.879C1162.46 250.246 1175.59 277.382 1178.05 286.693C1180.28 295.526 1183.3 306.508 1176.7 314.228C1171.77 320.037 1163.58 320.037 1156.73 317.968" fill="white"/>
<path d="M1059.61 316.774C1052.61 312.159 1056.19 269.186 1056.66 256.214C1057.38 238.388 1077.9 237.831 1077.9 237.831L1095.72 236.24L1097.31 223.586C1097.31 223.586 1121.97 233.852 1128.81 233.852C1141.22 233.852 1149.73 232.818 1157.93 243.879C1162.46 250.246 1175.59 277.382 1178.05 286.693C1180.28 295.526 1183.3 306.508 1176.7 314.228C1171.77 320.037 1163.58 320.037 1156.73 317.968" stroke="#1D1D1D" stroke-width="2" stroke-miterlimit="10" stroke-linecap="round" stroke-linejoin="round"/>
<path d="M1129.85 218.331C1130.64 208.543 1130.33 204.166 1127.38 198.277C1122.77 189.046 1111.23 185.465 1103.52 190.478C1093.58 196.845 1093.42 212.92 1096.76 225.891C1098.9 234.247 1110.04 246.9 1120.3 239.659C1126.59 235.043 1129.13 225.812 1129.85 218.331Z" fill="white" stroke="#1D1D1D" stroke-width="2" stroke-miterlimit="10" stroke-linecap="round" stroke-linejoin="round"/>
<path d="M1122.45 226.927C1122.45 226.927 1120.14 222.311 1119.11 217.696" stroke="#1D1D1D" stroke-width="2" stroke-miterlimit="10" stroke-linecap="round" stroke-linejoin="round"/>
<path d="M1113.3 230.585C1118.55 233.768 1122.05 231.619 1122.61 230.903" stroke="white" stroke-width="2" stroke-miterlimit="10" stroke-linecap="round" stroke-linejoin="round"/>
<path d="M1110.28 215.307C1109.56 216.102 1109.33 217.614 1109.88 218.49C1110.36 219.365 1111.71 219.684 1112.43 218.967C1113.54 217.853 1113.62 215.307 1111.87 214.829C1111.23 214.67 1110.68 214.909 1110.28 215.307Z" fill="#1D1D1D"/>
<path d="M1123.8 215.466C1123.01 216.261 1122.69 217.614 1123.32 218.49C1123.8 219.365 1125.23 219.683 1125.87 218.967C1126.98 217.933 1127.22 214.511 1125.08 214.749C1124.6 214.829 1124.12 215.068 1123.8 215.466Z" fill="#1D1D1D"/>
<path d="M1070.11 296.958L1103.6 264.728C1102.09 258.043 1103.12 254.86 1103.36 248.176C1103.52 245.231 1102.56 241.252 1103.92 240.456C1104.87 239.979 1106.94 239.82 1108.21 244.276C1108.93 246.664 1108.93 251.995 1111.71 252.791C1114.89 253.587 1118.39 248.016 1119.59 245.788C1120.7 243.719 1121.58 241.173 1122.45 238.944C1122.85 237.91 1123.41 236.318 1124.52 236.239C1130.41 236 1125.63 246.425 1124.84 248.653C1128.02 249.449 1127.14 252.393 1126.51 253.507C1127.3 253.189 1128.1 253.985 1128.42 254.622C1129.21 255.974 1128.5 257.009 1127.94 258.203C1128.1 257.805 1128.97 258.919 1129.05 259.078C1130.41 261.386 1127.14 264.33 1125.79 265.763C1123.56 267.991 1088.64 317.808 1088.64 317.808" fill="white"/>
<path d="M1070.11 296.958L1103.6 264.728C1102.09 258.043 1103.12 254.86 1103.36 248.176C1103.52 245.231 1102.56 241.252 1103.92 240.456C1104.87 239.979 1106.94 239.82 1108.21 244.276C1108.93 246.664 1108.93 251.995 1111.71 252.791C1114.89 253.587 1118.39 248.016 1119.59 245.788C1120.7 243.719 1121.58 241.173 1122.45 238.944C1122.85 237.91 1123.41 236.318 1124.52 236.239C1130.41 236 1125.63 246.425 1124.84 248.653C1128.02 249.449 1127.14 252.393 1126.51 253.507C1127.3 253.189 1128.1 253.985 1128.42 254.622C1129.21 255.974 1128.5 257.009 1127.94 258.203C1128.1 257.805 1128.97 258.919 1129.05 259.078C1130.41 261.386 1127.14 264.33 1125.79 265.763C1123.56 267.991 1088.64 317.808 1088.64 317.808" stroke="#1D1D1D" stroke-width="2" stroke-miterlimit="10" stroke-linecap="round" stroke-linejoin="round"/>
<path d="M1122.29 253.189C1125.95 246.822 1126.67 243.241 1126.67 243.321" stroke="#1D1D1D" stroke-width="2" stroke-miterlimit="10" stroke-linecap="round" stroke-linejoin="round"/>
<path d="M1125.32 255.498C1126.19 254.066 1126.59 253.35 1126.59 253.35" stroke="#1D1D1D" stroke-width="2" stroke-miterlimit="10" stroke-linecap="round" stroke-linejoin="round"/>
<path d="M1122.92 279.767C1123.16 279.13 1123.72 278.653 1124.36 278.653H1189.35C1190.3 278.653 1191.1 279.687 1190.78 280.642L1177.57 325.923H1109.4L1122.92 279.767Z" fill="white" stroke="#1D1D1D" stroke-width="2" stroke-miterlimit="10" stroke-linecap="round" stroke-linejoin="round"/>
<path d="M1062.07 325.922H1109.32L1110.52 321.386H1063.42L1062.07 325.922Z" fill="white" stroke="#1D1D1D" stroke-width="2" stroke-miterlimit="10" stroke-linecap="round" stroke-linejoin="round"/>
<path d="M1133.67 211.568C1133.27 214.274 1132.16 216.9 1130.33 218.89C1130.09 213.717 1128.26 207.43 1124.92 202.576C1123.17 200.109 1120.94 198.358 1118 195.653C1116.48 198.597 1111.71 206.794 1108.69 210.614C1104.23 216.264 1100.34 218.253 1098.9 219.208C1098.51 219.447 1098.98 221.516 1098.98 222.153C1099.06 223.585 1099.22 225.017 1099.22 226.45C1099.14 229.235 1098.67 232.1 1097.15 234.487C1096.99 234.806 1093.97 238.705 1093.34 237.591C1094.69 239.899 1094.93 242.843 1094.05 245.39C1093.18 247.936 1091.19 250.085 1088.72 251.12C1091.11 254.064 1090.63 260.59 1086.18 261.385C1086.73 262.579 1087.13 263.693 1087.45 264.966C1088.24 268.07 1089.04 271.094 1089.84 274.198C1084.59 273.163 1079.49 271.572 1074.56 269.502C1075.68 267.593 1076.79 265.683 1078.22 264.091C1078.46 263.852 1082.2 260.51 1082.52 260.828C1079.34 257.884 1078.3 253.348 1080.93 249.687C1081.16 249.289 1083.47 246.106 1083.55 246.265C1080.29 242.445 1079.81 236.318 1084.27 233.214C1084.43 233.135 1084.59 232.975 1084.59 232.816C1084.59 232.737 1084.51 232.657 1084.43 232.578C1079.89 228.917 1083.55 220.959 1086.49 217.457C1086.57 217.378 1086.65 217.298 1086.65 217.139C1086.65 216.98 1086.65 216.9 1086.57 216.821C1085.54 214.672 1085.22 212.444 1085.14 210.056C1084.98 207.271 1085.46 204.406 1086.42 201.78C1088.17 197.165 1091.9 192.867 1095.96 190.082C1102.96 185.228 1111.95 184.83 1119.59 188.411C1126.35 191.594 1132.08 197.801 1133.51 205.202C1133.91 207.271 1133.98 209.42 1133.67 211.568Z" fill="#1D1D1D" stroke="#1D1D1D" stroke-width="2" stroke-miterlimit="10" stroke-linecap="round" stroke-linejoin="round"/>
<path d="M1112.11 231.065C1114.42 232.577 1117.68 232.498 1119.91 230.827" stroke="#1D1D1D" stroke-width="2" stroke-miterlimit="10" stroke-linecap="round" stroke-linejoin="round"/>
</g>
<defs>
<clipPath id="clip0_2638_18299">
<rect width="1280" height="380" fill="white" transform="translate(0 0.000488281)"/>
</clipPath>
</defs>
</svg>
