<svg xmlns="http://www.w3.org/2000/svg" xmlns:xlink="http://www.w3.org/1999/xlink" width="500" zoomAndPan="magnify" viewBox="0 0 375 65.249999" height="87" preserveAspectRatio="xMidYMid meet" version="1.0"><defs><g/></defs><g fill="#000000" fill-opacity="1"><g transform="translate(2.147467, 52.5578)"><g><path d="M 28.765625 -4.734375 L 1.90625 -16.65625 L 1.90625 -21.21875 L 28.765625 -34.671875 L 28.765625 -26.78125 L 12.296875 -19.265625 L 28.765625 -12.5625 Z M 28.765625 -4.734375 "/></g></g></g><g fill="#000000" fill-opacity="1"><g transform="translate(32.938121, 52.5578)"><g><path d="M 14.53125 0 L 4.203125 0 L 4.203125 -38.84375 L 27.15625 -38.84375 L 27.15625 -30.421875 L 14.53125 -30.421875 L 14.53125 -23 L 26.171875 -23 L 26.171875 -14.578125 L 14.53125 -14.578125 Z M 14.53125 0 "/></g></g></g><g fill="#000000" fill-opacity="1"><g transform="translate(62.267615, 52.5578)"><g><path d="M 21.75 -30.625 C 22.65625 -30.625 23.515625 -30.554688 24.328125 -30.421875 L 24.921875 -30.3125 L 23.984375 -20.515625 C 23.140625 -20.722656 21.960938 -20.828125 20.453125 -20.828125 C 18.191406 -20.828125 16.546875 -20.304688 15.515625 -19.265625 C 14.484375 -18.234375 13.96875 -16.742188 13.96875 -14.796875 L 13.96875 0 L 3.59375 0 L 3.59375 -30.09375 L 11.3125 -30.09375 L 12.9375 -25.296875 L 13.4375 -25.296875 C 14.3125 -26.890625 15.519531 -28.175781 17.0625 -29.15625 C 18.613281 -30.132812 20.175781 -30.625 21.75 -30.625 Z M 21.75 -30.625 "/></g></g></g><g fill="#000000" fill-opacity="1"><g transform="translate(87.798088, 52.5578)"><g><path d="M 32.328125 -15.109375 C 32.328125 -10.191406 31.003906 -6.351562 28.359375 -3.59375 C 25.710938 -0.84375 22.003906 0.53125 17.234375 0.53125 C 12.671875 0.53125 9.035156 -0.875 6.328125 -3.6875 C 3.628906 -6.507812 2.28125 -10.316406 2.28125 -15.109375 C 2.28125 -20.015625 3.601562 -23.828125 6.25 -26.546875 C 8.90625 -29.265625 12.625 -30.625 17.40625 -30.625 C 20.363281 -30.625 22.972656 -29.992188 25.234375 -28.734375 C 27.503906 -27.484375 29.253906 -25.679688 30.484375 -23.328125 C 31.710938 -20.984375 32.328125 -18.242188 32.328125 -15.109375 Z M 12.828125 -15.109375 C 12.828125 -12.523438 13.171875 -10.554688 13.859375 -9.203125 C 14.554688 -7.847656 15.71875 -7.171875 17.34375 -7.171875 C 18.957031 -7.171875 20.09375 -7.847656 20.75 -9.203125 C 21.414062 -10.554688 21.75 -12.523438 21.75 -15.109375 C 21.75 -17.679688 21.410156 -19.625 20.734375 -20.9375 C 20.066406 -22.25 18.921875 -22.90625 17.296875 -22.90625 C 15.703125 -22.90625 14.554688 -22.253906 13.859375 -20.953125 C 13.171875 -19.648438 12.828125 -17.703125 12.828125 -15.109375 Z M 12.828125 -15.109375 "/></g></g></g><g fill="#000000" fill-opacity="1"><g transform="translate(122.467462, 52.5578)"><g><path d="M 22.578125 0 L 22.578125 -16.421875 C 22.578125 -18.421875 22.289062 -19.925781 21.71875 -20.9375 C 21.144531 -21.957031 20.21875 -22.46875 18.9375 -22.46875 C 17.1875 -22.46875 15.921875 -21.769531 15.140625 -20.375 C 14.359375 -18.976562 13.96875 -16.578125 13.96875 -13.171875 L 13.96875 0 L 3.59375 0 L 3.59375 -30.09375 L 11.421875 -30.09375 L 12.71875 -26.375 L 13.328125 -26.375 C 14.222656 -27.789062 15.453125 -28.851562 17.015625 -29.5625 C 18.578125 -30.269531 20.378906 -30.625 22.421875 -30.625 C 25.753906 -30.625 28.34375 -29.660156 30.1875 -27.734375 C 32.039062 -25.804688 32.96875 -23.085938 32.96875 -19.578125 L 32.96875 0 Z M 22.578125 0 "/></g></g></g><g fill="#000000" fill-opacity="1"><g transform="translate(158.916796, 52.5578)"><g><path d="M 18.328125 -7.671875 C 19.722656 -7.671875 21.394531 -8.019531 23.34375 -8.71875 L 23.34375 -1.140625 C 21.945312 -0.535156 20.613281 -0.109375 19.34375 0.140625 C 18.082031 0.398438 16.601562 0.53125 14.90625 0.53125 C 11.414062 0.53125 8.898438 -0.320312 7.359375 -2.03125 C 5.816406 -3.738281 5.046875 -6.363281 5.046875 -9.90625 L 5.046875 -22.3125 L 1.40625 -22.3125 L 1.40625 -26.53125 L 6.03125 -29.8125 L 8.71875 -36.125 L 15.515625 -36.125 L 15.515625 -30.09375 L 22.90625 -30.09375 L 22.90625 -22.3125 L 15.515625 -22.3125 L 15.515625 -10.59375 C 15.515625 -8.644531 16.453125 -7.671875 18.328125 -7.671875 Z M 18.328125 -7.671875 "/></g></g></g><g fill="#000000" fill-opacity="1"><g transform="translate(183.942505, 52.5578)"><g><path d="M 18.125 0.53125 C 13.101562 0.53125 9.207031 -0.800781 6.4375 -3.46875 C 3.664062 -6.132812 2.28125 -9.925781 2.28125 -14.84375 C 2.28125 -19.925781 3.5625 -23.828125 6.125 -26.546875 C 8.695312 -29.265625 12.367188 -30.625 17.140625 -30.625 C 21.671875 -30.625 25.171875 -29.441406 27.640625 -27.078125 C 30.109375 -24.710938 31.34375 -21.3125 31.34375 -16.875 L 31.34375 -12.25 L 12.78125 -12.25 C 12.851562 -10.5625 13.46875 -9.238281 14.625 -8.28125 C 15.78125 -7.332031 17.359375 -6.859375 19.359375 -6.859375 C 21.191406 -6.859375 22.875 -7.03125 24.40625 -7.375 C 25.9375 -7.71875 27.59375 -8.304688 29.375 -9.140625 L 29.375 -1.671875 C 27.75 -0.835938 26.066406 -0.265625 24.328125 0.046875 C 22.597656 0.367188 20.53125 0.53125 18.125 0.53125 Z M 17.5 -23.5625 C 16.28125 -23.5625 15.257812 -23.175781 14.4375 -22.40625 C 13.613281 -21.632812 13.128906 -20.425781 12.984375 -18.78125 L 21.921875 -18.78125 C 21.878906 -20.226562 21.460938 -21.382812 20.671875 -22.25 C 19.890625 -23.125 18.832031 -23.5625 17.5 -23.5625 Z M 17.5 -23.5625 "/></g></g></g><g fill="#000000" fill-opacity="1"><g transform="translate(217.575782, 52.5578)"><g><path d="M 22.578125 0 L 22.578125 -16.421875 C 22.578125 -18.421875 22.289062 -19.925781 21.71875 -20.9375 C 21.144531 -21.957031 20.21875 -22.46875 18.9375 -22.46875 C 17.1875 -22.46875 15.921875 -21.769531 15.140625 -20.375 C 14.359375 -18.976562 13.96875 -16.578125 13.96875 -13.171875 L 13.96875 0 L 3.59375 0 L 3.59375 -30.09375 L 11.421875 -30.09375 L 12.71875 -26.375 L 13.328125 -26.375 C 14.222656 -27.789062 15.453125 -28.851562 17.015625 -29.5625 C 18.578125 -30.269531 20.378906 -30.625 22.421875 -30.625 C 25.753906 -30.625 28.34375 -29.660156 30.1875 -27.734375 C 32.039062 -25.804688 32.96875 -23.085938 32.96875 -19.578125 L 32.96875 0 Z M 22.578125 0 "/></g></g></g><g fill="#000000" fill-opacity="1"><g transform="translate(254.025115, 52.5578)"><g><path d="M 12.9375 0.53125 C 10.789062 0.53125 8.914062 -0.078125 7.3125 -1.296875 C 5.71875 -2.523438 4.476562 -4.320312 3.59375 -6.6875 C 2.71875 -9.0625 2.28125 -11.835938 2.28125 -15.015625 C 2.28125 -19.898438 3.265625 -23.722656 5.234375 -26.484375 C 7.203125 -29.242188 9.898438 -30.625 13.328125 -30.625 C 15.015625 -30.625 16.488281 -30.285156 17.75 -29.609375 C 19.019531 -28.941406 20.175781 -27.8125 21.21875 -26.21875 L 21.4375 -26.21875 C 21.101562 -28.570312 20.9375 -30.925781 20.9375 -33.28125 L 20.9375 -41.34375 L 31.40625 -41.34375 L 31.40625 0 L 23.5625 0 L 21.328125 -3.796875 L 20.9375 -3.796875 C 19.144531 -0.910156 16.476562 0.53125 12.9375 0.53125 Z M 17.1875 -7.671875 C 18.851562 -7.671875 20.023438 -8.191406 20.703125 -9.234375 C 21.390625 -10.285156 21.757812 -11.898438 21.8125 -14.078125 L 21.8125 -14.90625 C 21.8125 -17.5625 21.429688 -19.453125 20.671875 -20.578125 C 19.910156 -21.703125 18.710938 -22.265625 17.078125 -22.265625 C 15.710938 -22.265625 14.65625 -21.617188 13.90625 -20.328125 C 13.15625 -19.046875 12.78125 -17.21875 12.78125 -14.84375 C 12.78125 -12.507812 13.160156 -10.726562 13.921875 -9.5 C 14.679688 -8.28125 15.769531 -7.671875 17.1875 -7.671875 Z M 17.1875 -7.671875 "/></g></g></g><g fill="#000000" fill-opacity="1"><g transform="translate(289.013288, 52.5578)"><g><path d="M 26.828125 -9.25 C 26.828125 -6.019531 25.726562 -3.582031 23.53125 -1.9375 C 21.34375 -0.289062 18.191406 0.53125 14.078125 0.53125 C 11.847656 0.53125 9.910156 0.410156 8.265625 0.171875 C 6.617188 -0.0664062 4.9375 -0.503906 3.21875 -1.140625 L 3.21875 -9.453125 C 4.820312 -8.742188 6.582031 -8.160156 8.5 -7.703125 C 10.425781 -7.242188 12.144531 -7.015625 13.65625 -7.015625 C 15.90625 -7.015625 17.03125 -7.523438 17.03125 -8.546875 C 17.03125 -9.078125 16.710938 -9.550781 16.078125 -9.96875 C 15.453125 -10.382812 13.625 -11.195312 10.59375 -12.40625 C 7.832031 -13.539062 5.898438 -14.828125 4.796875 -16.265625 C 3.703125 -17.710938 3.15625 -19.539062 3.15625 -21.75 C 3.15625 -24.550781 4.234375 -26.726562 6.390625 -28.28125 C 8.554688 -29.84375 11.613281 -30.625 15.5625 -30.625 C 17.550781 -30.625 19.414062 -30.40625 21.15625 -29.96875 C 22.90625 -29.539062 24.71875 -28.910156 26.59375 -28.078125 L 23.78125 -21.390625 C 22.394531 -22.003906 20.929688 -22.523438 19.390625 -22.953125 C 17.847656 -23.390625 16.59375 -23.609375 15.625 -23.609375 C 13.914062 -23.609375 13.0625 -23.195312 13.0625 -22.375 C 13.0625 -21.851562 13.359375 -21.410156 13.953125 -21.046875 C 14.546875 -20.691406 16.257812 -19.953125 19.09375 -18.828125 C 21.207031 -17.960938 22.78125 -17.113281 23.8125 -16.28125 C 24.851562 -15.445312 25.613281 -14.46875 26.09375 -13.34375 C 26.582031 -12.21875 26.828125 -10.851562 26.828125 -9.25 Z M 26.828125 -9.25 "/></g></g></g><g fill="#000000" fill-opacity="1"><g transform="translate(318.023982, 52.5578)"><g><path d="M 23.9375 -39.390625 L 9.453125 0.53125 L 0.265625 0.53125 L 14.75 -39.390625 Z M 23.9375 -39.390625 "/></g></g></g><g fill="#000000" fill-opacity="1"><g transform="translate(342.066744, 52.5578)"><g><path d="M 1.90625 -12.5625 L 18.390625 -19.265625 L 1.90625 -26.78125 L 1.90625 -34.671875 L 28.765625 -21.21875 L 28.765625 -16.65625 L 1.90625 -4.734375 Z M 1.90625 -12.5625 "/></g></g></g></svg>