<svg width="157" height="32" viewBox="0 0 157 32" fill="none" xmlns="http://www.w3.org/2000/svg">
<g clip-path="url(#clip0_2363_20666)">
<path d="M41.9433 19.0146C41.4814 18.7974 40.9968 18.6209 40.485 18.4941C39.9732 18.3629 39.475 18.295 38.9995 18.295C38.5601 18.295 38.1344 18.3402 37.7404 18.4262C37.3373 18.5122 36.984 18.6616 36.6715 18.8608C36.3635 19.0599 36.1144 19.3269 35.9333 19.6574C35.7521 19.9878 35.6615 20.3906 35.6615 20.8704C35.6615 21.6127 35.888 22.2011 36.3409 22.6537C36.7938 23.1018 37.4686 23.3281 38.3654 23.3281C39.1263 23.3281 39.8464 23.0656 40.5303 22.5405C41.2096 22.0155 41.7441 21.3185 42.1245 20.463L41.9433 19.0146ZM38.8772 10.0664C40.8971 10.0664 42.3872 10.5507 43.3247 11.5193C44.2668 12.4834 44.8465 13.805 45.0639 15.4842L46.4181 25.383H42.7858L42.3691 22.0924C41.7848 23.2059 40.9968 24.0885 39.9958 24.7267C38.9949 25.3649 37.8898 25.6862 36.6896 25.6862C35.9061 25.6862 35.2267 25.5731 34.647 25.3422C34.0628 25.1114 33.5736 24.8036 33.1705 24.4144C32.7675 24.0251 32.4731 23.5634 32.2693 23.0203C32.07 22.4817 31.9658 21.9114 31.9658 21.3139C31.9658 20.5354 32.1379 19.8656 32.4776 19.3134C32.8173 18.7521 33.2657 18.295 33.8137 17.9374C34.3662 17.5753 35.0048 17.3128 35.7204 17.1408C36.4405 16.9688 37.1833 16.8828 37.9442 16.8828C38.6054 16.8828 39.2848 16.9688 39.9732 17.1408C40.6616 17.3128 41.2685 17.5346 41.7894 17.8152L41.5176 15.8146C41.3365 14.4975 41.0013 13.5063 40.5076 12.8364C40.0185 12.1665 39.2893 11.8316 38.3292 11.8316C37.8491 11.8316 37.4596 11.8995 37.1561 12.0308C36.8527 12.162 36.6172 12.334 36.436 12.5422C36.2548 12.7504 36.1144 12.9994 36.0193 13.289C35.9197 13.5787 35.8382 13.8684 35.7793 14.1716C35.5347 15.3077 34.9595 15.878 34.0401 15.878C33.5782 15.878 33.1706 15.7286 32.8082 15.4435C32.4504 15.1583 32.2693 14.7238 32.2693 14.1445C32.2693 13.5832 32.4504 13.0582 32.8082 12.5603C33.1706 12.0624 33.6552 11.6279 34.2666 11.2568C34.878 10.8902 35.5845 10.6005 36.3862 10.3923C37.1788 10.1705 38.0121 10.0664 38.8772 10.0664Z" fill="#1D1D1D"/>
<path d="M56.2469 25.686C55.1825 25.686 54.2133 25.514 53.3347 25.1745C52.4515 24.8351 51.6951 24.3508 51.0475 23.7216C50.4044 23.0925 49.9062 22.3321 49.5438 21.445C49.1815 20.5578 49.0049 19.5621 49.0049 18.4667C49.0049 17.3307 49.2042 16.2489 49.6072 15.2351C50.0103 14.2167 50.5674 13.3205 51.2739 12.5601C51.985 11.7907 52.8319 11.1841 53.8102 10.7315C54.793 10.2834 55.8664 10.0571 57.0259 10.0571C57.8456 10.0571 58.5884 10.1793 59.2677 10.4147C59.938 10.6546 60.5132 10.9759 60.9978 11.3742C61.4779 11.7725 61.8493 12.2297 62.1211 12.7411C62.3928 13.2436 62.5287 13.7731 62.5287 14.3117C62.5287 15.1491 62.3475 15.7148 61.9897 16.0181C61.6274 16.3213 61.2198 16.4662 60.7578 16.4662C60.2958 16.4662 59.8928 16.3213 59.5576 16.0317C59.2179 15.7465 59.0458 15.2803 59.0458 14.6376C59.0458 14.2981 59.0005 13.9632 58.9145 13.6328C58.8284 13.3024 58.679 13.0037 58.4797 12.7366C58.2804 12.4696 58.0132 12.2478 57.669 12.0803C57.3293 11.9083 56.9081 11.8269 56.4099 11.8269C55.2097 11.8269 54.2903 12.3021 53.6608 13.2617C53.0267 14.2212 52.7142 15.5474 52.7142 17.2447C52.7142 18.159 52.8365 18.9873 53.0765 19.7114C53.3166 20.4402 53.6562 21.0557 54.0956 21.5491C54.5349 22.0469 55.0512 22.4271 55.6445 22.6851C56.2333 22.9477 56.8719 23.0744 57.5512 23.0744C58.5295 23.0744 59.3719 22.9205 60.0784 22.6127C60.7759 22.3049 61.3194 21.9157 61.7044 21.4631L62.4245 22.6851C62.2252 23.1015 61.9172 23.4908 61.5051 23.8529C61.093 24.2105 60.6174 24.5273 60.0784 24.7943C59.5395 25.0614 58.9417 25.2786 58.2895 25.437C57.6237 25.6045 56.9443 25.686 56.2469 25.686Z" fill="#1D1D1D"/>
<path d="M75.468 19.0146C75.0061 18.7974 74.5215 18.6209 74.0097 18.4941C73.4979 18.3629 73.0042 18.295 72.5241 18.295C72.0848 18.295 71.6591 18.3402 71.2651 18.4262C70.862 18.5122 70.5087 18.6616 70.1962 18.8607C69.8882 19.0599 69.6391 19.3269 69.458 19.6574C69.2768 19.9878 69.1862 20.3906 69.1862 20.8704C69.1862 21.6127 69.4127 22.2011 69.8656 22.6537C70.3185 23.1018 70.9933 23.3281 71.8901 23.3281C72.6509 23.3281 73.3711 23.0656 74.055 22.5405C74.7343 22.0155 75.2687 21.3185 75.6447 20.463L75.468 19.0146ZM72.3973 10.0664C74.4173 10.0664 75.9073 10.5507 76.8449 11.5193C77.7869 12.4834 78.3666 13.805 78.584 15.4842L79.9382 25.392H76.3014L75.8847 22.1015C75.3005 23.2149 74.5124 24.0975 73.5115 24.7357C72.5105 25.3739 71.4055 25.6953 70.2053 25.6953C69.4217 25.6953 68.7424 25.5821 68.1626 25.3513C67.5784 25.1204 67.0893 24.8127 66.6862 24.4234C66.2831 24.0342 65.9887 23.5725 65.7849 23.0294C65.5856 22.4907 65.4814 21.9204 65.4814 21.323C65.4814 20.5445 65.6536 19.8746 65.9932 19.3224C66.3329 18.7612 66.7813 18.304 67.3293 17.9465C67.8818 17.5844 68.5204 17.3219 69.236 17.1499C69.9562 16.9779 70.6989 16.8919 71.4598 16.8919C72.121 16.8919 72.8004 16.9779 73.4888 17.1499C74.1772 17.3219 74.7841 17.5436 75.305 17.8243L75.0332 15.8237C74.8521 14.5066 74.5169 13.5153 74.0233 12.8455C73.5341 12.1756 72.8049 11.8407 71.8402 11.8407C71.3602 11.8407 70.9707 11.9086 70.6672 12.0398C70.3638 12.1711 70.1283 12.3431 69.9471 12.5513C69.7659 12.7595 69.6255 13.0084 69.5304 13.2981C69.4308 13.5878 69.3493 13.8774 69.2904 14.1807C69.0458 15.3168 68.4706 15.8871 67.5512 15.8871C67.0893 15.8871 66.6816 15.7377 66.3193 15.4525C65.9615 15.1674 65.7804 14.7329 65.7804 14.1535C65.7804 13.5923 65.9615 13.0673 66.3193 12.5694C66.6816 12.0715 67.1663 11.637 67.7777 11.2658C68.3891 10.8992 69.0956 10.6095 69.8973 10.4013C70.708 10.1705 71.5413 10.0664 72.3973 10.0664Z" fill="#1D1D1D"/>
<path d="M86.3155 17.3036C86.3155 18.2179 86.4468 19.0688 86.705 19.8473C86.9631 20.6258 87.3164 21.2957 87.7557 21.8479C88.195 22.4091 88.7159 22.8391 89.3047 23.1514C89.8934 23.4592 90.523 23.6131 91.1842 23.6131C91.9043 23.6131 92.5339 23.4502 93.0638 23.1198C93.5937 22.7893 94.0285 22.3367 94.3681 21.7529V14.3435C93.9062 13.6239 93.34 13.0762 92.6562 12.696C91.9723 12.3158 91.225 12.1302 90.4052 12.1302C89.0465 12.1302 88.0184 12.5874 87.339 13.5062C86.6506 14.4205 86.3155 15.6878 86.3155 17.3036ZM82.6152 17.8785C82.6152 16.7198 82.7873 15.6606 83.127 14.7011C83.4667 13.7415 83.9422 12.9178 84.5537 12.2343C85.1651 11.5418 85.8943 11.0123 86.7367 10.6321C87.5791 10.2519 88.4985 10.0663 89.4994 10.0663C90.4777 10.0663 91.388 10.2654 92.2214 10.6456C93.0547 11.0349 93.7703 11.578 94.3681 12.2796V4.44026L98.005 3.53955V25.3874H95.274L94.5267 23.2917C93.9288 24.0521 93.1951 24.6405 92.3346 25.057C91.4695 25.4734 90.5275 25.6861 89.5085 25.6861C88.5075 25.6861 87.5881 25.496 86.7457 25.1203C85.9033 24.7401 85.1742 24.206 84.5673 23.5181C83.9558 22.8346 83.4803 22.0108 83.1406 21.0513C82.7873 20.0872 82.6152 19.0326 82.6152 17.8785Z" fill="#1D1D1D"/>
<path d="M105.17 17.159C106.053 17.2043 106.886 17.2043 107.683 17.159C108.476 17.1228 109.182 17.0051 109.803 16.815C110.423 16.6249 110.917 16.3398 111.275 15.9641C111.637 15.5839 111.814 15.0634 111.814 14.4071C111.814 14.1038 111.764 13.8051 111.664 13.4928C111.565 13.185 111.406 12.9044 111.184 12.6555C110.962 12.402 110.677 12.2074 110.333 12.058C109.979 11.9086 109.567 11.8317 109.087 11.8317C108.485 11.8317 107.941 11.9811 107.452 12.2798C106.963 12.5785 106.551 12.9768 106.22 13.4747C105.89 13.9726 105.636 14.5429 105.455 15.1811C105.265 15.8193 105.17 16.4801 105.17 17.159ZM115.124 22.6945C114.925 23.1109 114.617 23.5002 114.205 23.8623C113.793 24.2198 113.317 24.5367 112.778 24.8037C112.239 25.0707 111.642 25.288 110.989 25.4464C110.337 25.6048 109.662 25.6863 108.965 25.6863C107.842 25.6863 106.823 25.4872 105.899 25.107C104.979 24.7177 104.191 24.1791 103.544 23.4911C102.896 22.7986 102.393 21.9794 102.04 21.0244C101.687 20.0648 101.515 19.0238 101.515 17.8832C101.515 16.7426 101.714 15.7016 102.112 14.742C102.516 13.7825 103.077 12.9587 103.797 12.2753C104.517 11.5828 105.378 11.0487 106.379 10.6594C107.38 10.2702 108.494 10.0801 109.717 10.0801C110.718 10.0801 111.583 10.2113 112.316 10.4693C113.05 10.7273 113.648 11.0668 114.119 11.4832C114.586 11.8996 114.939 12.3703 115.17 12.8908C115.401 13.4113 115.519 13.9183 115.519 14.4161C115.519 15.1358 115.319 15.7649 114.921 16.3036C114.518 16.8422 113.997 17.2857 113.34 17.6343C112.692 17.9873 111.963 18.2453 111.166 18.4218C110.36 18.6029 109.554 18.6889 108.729 18.6889C108.15 18.6889 107.538 18.6119 106.895 18.4625C106.252 18.3087 105.695 18.1186 105.21 17.8741C105.333 19.4492 105.831 20.712 106.714 21.658C107.593 22.6085 108.788 23.0792 110.287 23.0792C111.27 23.0792 112.104 22.9253 112.801 22.6176C113.489 22.3098 114.028 21.9205 114.409 21.4679L115.124 22.6945Z" fill="#1D1D1D"/>
<path d="M140.473 25.3827H136.805L135.786 15.9863C135.663 14.8503 135.432 13.9948 135.093 13.4245C134.753 12.8588 134.259 12.5736 133.621 12.5736C133.1 12.5736 132.629 12.723 132.212 13.0081C131.795 13.2978 131.429 13.6916 131.125 14.194V25.3917H127.488V16.2579C127.488 14.9996 127.334 14.0537 127.022 13.4155C126.709 12.7773 126.207 12.4559 125.5 12.4559C124.902 12.4559 124.368 12.5781 123.892 12.8135C123.426 13.0534 123.018 13.3838 122.674 13.8002V25.3827H119.037V10.4237H121.768L122.579 12.7003C123.1 11.863 123.747 11.2203 124.517 10.7677C125.287 10.3196 126.198 10.0933 127.239 10.0933C128.304 10.0933 129.119 10.3558 129.689 10.8718C130.265 11.3923 130.654 12.13 130.881 13.0896C131.383 12.13 132.026 11.3968 132.819 10.8718C133.612 10.3513 134.527 10.0933 135.568 10.0933C136.266 10.0933 136.841 10.22 137.28 10.4644C137.72 10.7088 138.091 11.0754 138.376 11.5416C138.666 12.0124 138.888 12.5781 139.037 13.248C139.187 13.9179 139.3 14.6692 139.386 15.5066L140.473 25.3827Z" fill="#1D1D1D"/>
<path d="M157 10.4238L152.584 24.1924C152.222 25.3104 151.828 26.3424 151.402 27.2929C150.972 28.2433 150.469 29.0581 149.898 29.7596C149.328 30.4612 148.662 31.0043 147.901 31.4071C147.14 31.8054 146.248 32.0046 145.224 32.0046C144.586 32.0046 144.002 31.905 143.485 31.7013C142.969 31.4977 142.511 31.2442 142.131 30.9409C141.751 30.6332 141.461 30.2711 141.261 29.8592C141.062 29.4473 140.958 29.0354 140.958 28.619C140.958 27.9989 141.157 27.5327 141.56 27.2159C141.963 26.8991 142.421 26.7407 142.942 26.7407C143.467 26.7407 143.888 26.8719 144.219 27.1299C144.55 27.3879 144.753 27.75 144.835 28.2071C144.935 28.7276 145.084 29.1441 145.288 29.4654C145.487 29.7822 145.877 29.9407 146.461 29.9407C146.764 29.9407 147.068 29.909 147.376 29.8366C147.684 29.7641 147.983 29.6465 148.263 29.479C148.544 29.307 148.798 29.0716 149.029 28.7774C149.26 28.4742 149.441 28.0985 149.586 27.6414L141.76 10.4238H145.818L151.434 23.7398L154.26 10.4238H157Z" fill="#1D1D1D"/>
<path d="M23.2797 12.2025C23.1438 12.0396 22.7951 11.6277 22.2063 11.2158C22.0297 11.0936 21.8531 10.9805 21.6719 10.8809C21.1375 10.5867 20.5849 10.383 20.0324 10.2518C19.5976 10.1477 19.1628 10.0934 18.7371 10.0707C16.7669 9.96209 14.9961 10.5595 14.4435 10.7632C14.756 9.86704 15.3131 8.6133 16.3321 7.33692C17.7905 5.49929 19.4753 4.52164 20.4672 4.05092C20.44 3.72051 20.3585 3.21358 20.0913 2.65233C19.8376 2.10919 19.5206 1.729 19.2896 1.50269C17.4735 2.3355 15.843 3.56662 14.5432 5.08289C14.5432 5.07836 14.5431 5.07383 14.5477 5.07383C15.0051 3.77482 15.6347 2.78812 16.1374 2.12277C15.9517 1.84668 15.6482 1.47553 15.1908 1.12249C14.6971 0.742291 14.2171 0.534088 13.8864 0.42546C12.9987 1.59321 12.3103 2.88769 11.8393 4.26818C11.7714 4.46733 11.708 4.66195 11.6536 4.86563C11.708 4.2727 11.8031 3.69788 11.9525 3.12758C12.1563 2.34003 12.419 1.68373 12.65 1.19491C12.4009 0.9686 12.0431 0.678925 11.554 0.443564C10.9833 0.158416 10.4579 0.0497878 10.0956 0C9.71064 0.819236 9.40719 1.65658 9.19433 2.51655C8.80936 4.05092 8.78218 5.30467 8.78218 5.86591C8.8003 8.27383 9.52042 10.211 10.0866 11.4059C9.87369 11.2702 9.32567 10.9443 8.56479 10.6863C7.6001 10.3559 6.2912 10.1386 4.84643 10.5324C2.79023 11.0936 1.67608 12.5782 1.32282 13.0625C1.10089 13.3658 -0.47975 15.6243 0.145261 18.5347C0.222255 18.8877 0.724981 20.9788 2.63625 22.5177C5.32198 24.6857 7.74503 23.3279 10.0231 25.0116C10.9833 25.7177 12.0612 27.0755 12.4598 29.9542C12.5096 30.2982 12.9987 30.3344 13.0939 29.9904C13.4969 28.5601 13.7415 27.0665 13.8185 25.5321C14.0404 25.5774 14.7968 25.7222 15.8339 25.7358C16.0649 25.7358 16.314 25.7358 16.5676 25.7177C18.2208 25.6226 20.3222 25.1293 22.0478 23.5225C22.2471 23.3369 22.4328 23.1378 22.6094 22.9341C22.6638 22.8662 22.7181 22.8028 22.7725 22.7349C23.2842 22.1058 23.6919 21.4133 23.9998 20.6846C24.0315 20.6076 24.0678 20.5352 24.0949 20.4583C25.2363 17.5344 24.8513 14.1216 23.2797 12.2025Z" fill="#A60A3D"/>
</g>
<defs>
<clipPath id="clip0_2363_20666">
<rect width="157" height="32" fill="white"/>
</clipPath>
</defs>
</svg>
